<?xml version="1.0" encoding="utf-8"?>
<!-- Generator: Adobe Illustrator 16.0.0, SVG Export Plug-In . SVG Version: 6.00 Build 0)  -->
<!DOCTYPE svg PUBLIC "-//W3C//DTD SVG 1.1//EN" "http://www.w3.org/Graphics/SVG/1.1/DTD/svg11.dtd">
<svg version="1.1" xmlns="http://www.w3.org/2000/svg" xmlns:xlink="http://www.w3.org/1999/xlink" x="0px" y="0px"
	 width="82.495px" height="112.541px" viewBox="0 0 82.495 112.541" enable-background="new 0 0 82.495 112.541"
	 xml:space="preserve">
<g id="Layer_1" display="none">
	<g display="inline">
		<line fill="#FFFFFF" x1="81.552" y1="6.5" x2="39.936" y2="6.5"/>
		<path fill="#1D1D1B" d="M39.936,6h41.616c0.521,0,0.943,0.224,0.943,0.5S82.073,7,81.552,7H39.936c-0.521,0-0.942-0.224-0.942-0.5
			S39.415,6,39.936,6z"/>
	</g>
	<g display="inline">
		<line fill="#FFFFFF" x1="72.292" y1="0.5" x2="30.68" y2="0.5"/>
		<path fill="#1D1D1B" d="M30.68,0h41.612c0.521,0,0.943,0.224,0.943,0.5S72.813,1,72.292,1H30.68c-0.521,0-0.942-0.224-0.942-0.5
			S30.159,0,30.68,0z"/>
	</g>
	<g display="inline">
		<line fill="#FFFFFF" x1="35.641" y1="6.5" x2="24.331" y2="6.5"/>
		<path fill="#1D1D1B" d="M24.331,6h11.31c0.521,0,0.942,0.224,0.942,0.5S36.162,7,35.641,7h-11.31c-0.521,0-0.942-0.224-0.942-0.5
			S23.811,6,24.331,6z"/>
	</g>
	<g display="inline">
		<line fill="#FFFFFF" x1="53.005" y1="13.563" x2="41.695" y2="13.563"/>
		<path fill="#1D1D1B" d="M41.695,13.063h11.31c0.52,0,0.941,0.224,0.941,0.5s-0.422,0.5-0.941,0.5h-11.31
			c-0.521,0-0.942-0.224-0.942-0.5S41.174,13.063,41.695,13.063z"/>
	</g>
	<g display="inline">
		<line fill="#FFFFFF" x1="27.43" y1="112.041" x2="15.21" y2="112.041"/>
		<path fill="#1D1D1B" d="M27.43,112.541H15.21c-0.276,0-0.5-0.223-0.5-0.5c0-0.275,0.224-0.5,0.5-0.5h12.22
			c0.276,0,0.5,0.225,0.5,0.5C27.93,112.318,27.707,112.541,27.43,112.541z"/>
	</g>
	<g display="inline">
		<line fill="#FFFFFF" x1="15.364" y1="106.498" x2="9.254" y2="106.498"/>
		<path fill="#1D1D1B" d="M15.364,106.998H9.254c-0.276,0-0.5-0.225-0.5-0.5c0-0.277,0.224-0.5,0.5-0.5h6.109
			c0.276,0,0.5,0.223,0.5,0.5C15.864,106.773,15.64,106.998,15.364,106.998z"/>
	</g>
	<g display="inline">
		<line fill="#FFFFFF" x1="40.919" y1="106.498" x2="18.418" y2="106.498"/>
		<path fill="#1D1D1B" d="M40.919,106.998h-22.5c-0.276,0-0.5-0.225-0.5-0.5c0-0.277,0.224-0.5,0.5-0.5h22.5
			c0.276,0,0.5,0.223,0.5,0.5C41.419,106.773,41.195,106.998,40.919,106.998z"/>
	</g>
	<path display="inline" fill="#B7343E" d="M75.833,92.656c0,2.763-2.267,5.005-5.064,5.005H5.063C2.267,97.662,0,95.419,0,92.656
		V24.499c0-2.764,2.267-5.005,5.063-5.005h65.706c2.797,0,5.064,2.241,5.064,5.005V92.656z"/>
	<path display="inline" fill="#FFFFFF" d="M70.98,89.201c0,2.541-1.933,4.604-4.318,4.604H9.17c-2.384,0-4.317-2.063-4.317-4.604
		V24.099c0-2.544,1.933-4.604,4.317-4.604h57.492c2.385,0,4.318,2.061,4.318,4.604V89.201z"/>
	<path display="inline" fill="#4C4040" d="M75.833,29.189v-4.69c0-2.764-2.267-5.005-5.064-5.005H5.063
		C2.267,19.494,0,21.735,0,24.499v4.69H75.833z"/>
	<ellipse display="inline" fill="#FFFEFA" cx="17.513" cy="24.343" rx="1.846" ry="1.823"/>
	<ellipse display="inline" fill="#FFFEFA" cx="12.449" cy="24.343" rx="1.846" ry="1.823"/>
	<ellipse display="inline" fill="#FFFEFA" cx="7.385" cy="24.343" rx="1.846" ry="1.823"/>
	<path display="inline" fill="#FFFEFA" d="M24.133,24.343c0,1.005,0.827,1.823,1.846,1.823h43.498c1.02,0,1.846-0.818,1.846-1.823
		l0,0c0-1.008-0.827-1.825-1.846-1.825H25.979C24.96,22.518,24.133,23.335,24.133,24.343L24.133,24.343z"/>
	<path display="inline" fill="#43D98E" d="M56.639,38.147c0,0.536-0.299,0.973-0.667,0.973H10.521c-0.369,0-0.667-0.437-0.667-0.973
		v-2.183c0-0.538,0.299-0.973,0.667-0.973h45.451c0.369,0,0.667,0.435,0.667,0.973V38.147z"/>
	<path display="inline" fill="#FF918C" d="M63.995,72.27c0,0.536-0.299,0.973-0.667,0.973H38.088c-0.369,0-0.667-0.437-0.667-0.973
		v-2.183c0-0.537,0.299-0.973,0.667-0.973h25.239c0.369,0,0.667,0.436,0.667,0.973V72.27z"/>
	<path display="inline" fill="#FFC250" d="M65.711,46.099c0,0.537-0.348,0.973-0.778,0.973H10.631c-0.43,0-0.778-0.436-0.778-0.973
		v-2.182c0-0.537,0.348-0.973,0.778-0.973h54.302c0.43,0,0.778,0.436,0.778,0.973V46.099z"/>
	<path display="inline" fill="#43D98E" d="M58.162,76.841H10.521c-0.369,0-0.667,0.436-0.667,0.973v2.183
		c0,0.537,0.299,0.973,0.667,0.973h47.641V76.841z"/>
	<path display="inline" fill="#045B78" d="M48.117,87.948c0,0.537-0.348,0.973-0.778,0.973H10.631c-0.43,0-0.778-0.436-0.778-0.973
		v-2.182c0-0.538,0.348-0.973,0.778-0.973h36.708c0.43,0,0.778,0.435,0.778,0.973V87.948z"/>
	<path display="inline" fill="#045B78" d="M57.662,55.177c0,0.537-0.299,0.973-0.667,0.973H38.088c-0.369,0-0.667-0.436-0.667-0.973
		v-2.182c0-0.538,0.299-0.973,0.667-0.973h18.906c0.369,0,0.667,0.435,0.667,0.973V55.177z"/>
	<path display="inline" fill="#43D98E" d="M65.711,63.724c0,0.535-0.348,0.973-0.778,0.973H38.199c-0.43,0-0.778-0.438-0.778-0.973
		V61.54c0-0.537,0.348-0.973,0.778-0.973h26.734c0.43,0,0.778,0.436,0.778,0.973V63.724z"/>
	<path display="inline" fill="#FF918C" d="M10.117,54.214c0-1.65,1.35-3,3-3h15.197c1.65,0,3,1.35,3,3v15.22c0,1.649-1.35,3-3,3
		H13.117c-1.65,0-3-1.351-3-3V54.214z"/>
</g>
<g id="Layer_2">
	<g>
		<path fill="#6D6E71" d="M69.455,40.897C68.597,7.25,47.045,5.598,42.206,5.652c-0.64,0.007-1.277,0.007-1.917,0
			C35.45,5.598,13.898,7.25,13.04,40.897c0,0,1.397,15.707-1.374,23.833c-0.524,1.537,0.199,3.225,1.696,3.855
			c3.903,1.643,11.144,3.813,17.279,0.746h10.605h10.606c6.136,3.067,13.376,0.897,17.279-0.746c1.496-0.63,2.221-2.318,1.696-3.855
			C68.057,56.604,69.455,40.897,69.455,40.897z"/>
		<path fill="#F8D8A7" d="M41.248,67.214L41.248,67.214c-10.31,0-18.667-8.356-18.667-18.666V35.395
			c0-10.309,8.357-18.667,18.666-18.667h0.001c10.308,0,18.665,8.357,18.665,18.667v13.153
			C59.913,58.857,51.556,67.214,41.248,67.214z"/>
		<path fill="#6D6E71" d="M53.265,20.884c-3.225-2.658-5.674-4.993-10.18-4.993l-1.333,0.083
			C31.353,13.987,19.302,28.72,22.452,35.291l-0.031,0.094C39.793,35,49.244,26.295,53.265,20.884z"/>
		<path fill="#6D6E71" d="M59.823,33.57c2.191-0.746-2.999-10.526-6.712-13.586v1C53.111,20.984,52.051,28.663,59.823,33.57z"/>
		<path fill="#6D6E71" d="M70.999,81.381C59.777,70.878,41.247,70.877,41.247,70.877s-18.529,0.001-29.751,10.504
			C0.273,91.886,0.467,99.388,0.467,99.388l0,0c0,4.145,3.359,7.502,7.503,7.502h33.277h33.278c4.144,0,7.503-3.357,7.503-7.502l0,0
			C82.028,99.388,82.222,91.886,70.999,81.381z"/>
		<path fill="#919191" d="M39.577,70.94c-3.236,0.189-10.69,0.96-18.022,4.076l-2.997,5.35l6.609,6.506l-2.586,6.005l8.789,14.013
			h8.207V70.94z"/>
		<path fill="#919191" d="M42.918,70.94c3.236,0.189,10.69,0.96,18.022,4.076l2.997,5.35l-6.61,6.506l2.586,6.005l-8.788,14.013
			h-8.207V70.94z"/>
		<path fill="#F2F2F2" d="M46.856,106.89l10.471-33.227V73.66c-8.438-2.782-16.08-2.783-16.08-2.783s-7.641,0-16.08,2.783v0.004
			l10.472,33.227h5.608H46.856z"/>
		<path fill="#F8D8A7" d="M41.248,67.214L41.248,67.214c-4.268,0-8.198-1.435-11.342-3.845v8.283
			c0,6.263,5.077,11.342,11.341,11.342l0,0c6.265,0,11.342-5.079,11.342-11.342v-8.283C49.445,65.779,45.515,67.214,41.248,67.214z"
			/>
		<path fill="#EFCC9E" d="M29.906,71.487c14.614,1.727,20.844-6.874,20.844-6.874c-2.783,1.651-6.031,2.601-9.502,2.601h-0.001
			c-4.267,0-8.197-1.435-11.341-3.845V71.487z"/>
		<path fill="#D42B27" d="M20.701,46.063V34.203c0-11.329,9.217-20.546,20.547-20.546c11.328,0,20.546,9.217,20.546,20.546v11.859
			h3.003V34.203c0-12.984-10.564-23.548-23.549-23.548c-12.985,0-23.55,10.564-23.55,23.548v11.859H20.701z"/>
		<path fill="#D42B27" d="M20.701,51.163L20.701,51.163V36.135l0,0c-4.039,0-7.313,3.274-7.313,7.313v0.402
			C13.389,47.888,16.662,51.163,20.701,51.163z"/>
		<path fill="#D42B27" d="M61.795,51.163L61.795,51.163V36.135l0,0c4.038,0,7.313,3.274,7.313,7.313v0.402
			C69.107,47.888,65.833,51.163,61.795,51.163z"/>
		<g>
			<path fill="#D42B27" d="M43.643,62.34l-0.08-1.875l8.363-0.359c5.749-0.246,10.597-4.15,12.063-9.715l0.62-2.354l1.814,0.479
				l-0.62,2.354c-1.678,6.364-7.222,10.83-13.799,11.112L43.643,62.34z"/>
		</g>
		<path fill="#D42B27" d="M45.279,63.369h-1.891c-1.183,0-2.141-0.958-2.141-2.141l0,0c0-1.182,0.958-2.141,2.141-2.141h1.891
			c1.182,0,2.141,0.959,2.141,2.141l0,0C47.42,62.411,46.461,63.369,45.279,63.369z"/>
	</g>
</g>
</svg>
