<?xml version="1.0" encoding="utf-8"?>
<!-- Generator: Adobe Illustrator 16.0.0, SVG Export Plug-In . SVG Version: 6.00 Build 0)  -->
<!DOCTYPE svg PUBLIC "-//W3C//DTD SVG 1.1//EN" "http://www.w3.org/Graphics/SVG/1.1/DTD/svg11.dtd">
<svg version="1.1" xmlns="http://www.w3.org/2000/svg" xmlns:xlink="http://www.w3.org/1999/xlink" x="0px" y="0px"
	 width="82.496px" height="112.541px" viewBox="0 0 82.496 112.541" enable-background="new 0 0 82.496 112.541"
	 xml:space="preserve">
<g id="Layer_1" display="none">
	<g id="Layer_1_1_">
		<g display="inline">
			<line fill="none" x1="81.552" y1="6.5" x2="39.936" y2="6.5"/>
			<path fill="#1D1D1B" d="M39.936,6h41.616c0.521,0,0.943,0.224,0.943,0.5S82.074,7,81.552,7H39.936
				c-0.521,0-0.942-0.224-0.942-0.5S39.415,6,39.936,6z"/>
		</g>
		<g display="inline">
			<line fill="none" x1="72.292" y1="0.5" x2="30.68" y2="0.5"/>
			<path fill="#1D1D1B" d="M30.68,0h41.612c0.521,0,0.942,0.224,0.942,0.5S72.813,1,72.292,1H30.68c-0.521,0-0.942-0.224-0.942-0.5
				S30.159,0,30.68,0z"/>
		</g>
		<g display="inline">
			<line fill="none" x1="35.641" y1="6.5" x2="24.331" y2="6.5"/>
			<path fill="#1D1D1B" d="M24.331,6h11.31c0.521,0,0.942,0.224,0.942,0.5S36.162,7,35.641,7h-11.31c-0.521,0-0.942-0.224-0.942-0.5
				S23.811,6,24.331,6z"/>
		</g>
		<g display="inline">
			<line fill="none" x1="53.005" y1="13.563" x2="41.695" y2="13.563"/>
			<path fill="#1D1D1B" d="M41.695,13.063h11.311c0.52,0,0.94,0.224,0.94,0.5s-0.422,0.5-0.94,0.5H41.695
				c-0.521,0-0.942-0.224-0.942-0.5S41.174,13.063,41.695,13.063z"/>
		</g>
		<g display="inline">
			<line fill="none" x1="27.43" y1="112.041" x2="15.21" y2="112.041"/>
			<path fill="#1D1D1B" d="M27.43,112.541H15.21c-0.276,0-0.5-0.224-0.5-0.5c0-0.274,0.224-0.5,0.5-0.5h12.22
				c0.276,0,0.5,0.226,0.5,0.5C27.93,112.317,27.707,112.541,27.43,112.541z"/>
		</g>
		<g display="inline">
			<line fill="none" x1="15.364" y1="106.498" x2="9.254" y2="106.498"/>
			<path fill="#1D1D1B" d="M15.364,106.998h-6.11c-0.276,0-0.5-0.226-0.5-0.5c0-0.276,0.224-0.5,0.5-0.5h6.109
				c0.276,0,0.5,0.224,0.5,0.5C15.864,106.772,15.64,106.998,15.364,106.998z"/>
		</g>
		<g display="inline">
			<line fill="none" x1="40.919" y1="106.498" x2="18.418" y2="106.498"/>
			<path fill="#1D1D1B" d="M40.919,106.998h-22.5c-0.276,0-0.5-0.226-0.5-0.5c0-0.276,0.224-0.5,0.5-0.5h22.5
				c0.276,0,0.5,0.224,0.5,0.5C41.419,106.772,41.195,106.998,40.919,106.998z"/>
		</g>
		<path display="inline" fill="#B7343E" d="M75.833,92.656c0,2.763-2.268,5.005-5.064,5.005H5.063C2.267,97.662,0,95.419,0,92.656
			V24.499c0-2.764,2.267-5.005,5.063-5.005h65.706c2.797,0,5.064,2.241,5.064,5.005V92.656z"/>
		<path display="inline" fill="#FFFFFF" d="M70.98,89.201c0,2.541-1.934,4.604-4.318,4.604H9.17c-2.384,0-4.317-2.063-4.317-4.604
			V24.099c0-2.544,1.933-4.604,4.317-4.604h57.492c2.385,0,4.318,2.061,4.318,4.604V89.201z"/>
		<path display="inline" fill="#4C4040" d="M75.833,29.189v-4.69c0-2.764-2.268-5.005-5.064-5.005H5.063
			C2.267,19.494,0,21.735,0,24.499v4.69H75.833z"/>
		<ellipse display="inline" fill="#FFFEFA" cx="17.513" cy="24.343" rx="1.846" ry="1.823"/>
		<ellipse display="inline" fill="#FFFEFA" cx="12.449" cy="24.343" rx="1.846" ry="1.823"/>
		<ellipse display="inline" fill="#FFFEFA" cx="7.385" cy="24.343" rx="1.846" ry="1.823"/>
		<path display="inline" fill="#FFFEFA" d="M24.133,24.343c0,1.005,0.827,1.823,1.846,1.823h43.498c1.021,0,1.847-0.818,1.847-1.823
			l0,0c0-1.008-0.828-1.825-1.847-1.825H25.979C24.96,22.518,24.133,23.335,24.133,24.343L24.133,24.343z"/>
		<path display="inline" fill="#43D98E" d="M56.639,38.147c0,0.536-0.3,0.973-0.667,0.973H10.521c-0.369,0-0.667-0.437-0.667-0.973
			v-2.183c0-0.538,0.299-0.973,0.667-0.973h45.451c0.369,0,0.667,0.435,0.667,0.973V38.147z"/>
		<path display="inline" fill="#FF918C" d="M63.996,72.271c0,0.535-0.3,0.973-0.668,0.973h-25.24c-0.369,0-0.667-0.438-0.667-0.973
			v-2.184c0-0.537,0.299-0.973,0.667-0.973h25.24c0.368,0,0.666,0.436,0.666,0.973v2.184H63.996z"/>
		<path display="inline" fill="#FFC250" d="M65.71,46.099c0,0.537-0.348,0.973-0.777,0.973H10.631c-0.43,0-0.778-0.437-0.778-0.973
			v-2.182c0-0.537,0.348-0.973,0.778-0.973h54.302c0.43,0,0.777,0.436,0.777,0.973V46.099z"/>
		<path display="inline" fill="#43D98E" d="M58.162,76.841H10.521c-0.369,0-0.667,0.436-0.667,0.973v2.184
			c0,0.537,0.299,0.973,0.667,0.973h47.641V76.841z"/>
		<path display="inline" fill="#045B78" d="M48.117,87.948c0,0.537-0.348,0.973-0.777,0.973H10.631c-0.43,0-0.778-0.436-0.778-0.973
			v-2.182c0-0.539,0.348-0.974,0.778-0.974h36.708c0.43,0,0.777,0.435,0.777,0.974V87.948z"/>
		<path display="inline" fill="#045B78" d="M57.662,55.177c0,0.537-0.299,0.973-0.666,0.973H38.088
			c-0.369,0-0.667-0.436-0.667-0.973v-2.182c0-0.538,0.299-0.973,0.667-0.973h18.906c0.369,0,0.668,0.435,0.668,0.973V55.177
			L57.662,55.177z"/>
		<path display="inline" fill="#43D98E" d="M65.71,63.724c0,0.535-0.348,0.974-0.777,0.974H38.199c-0.43,0-0.778-0.438-0.778-0.974
			V61.54c0-0.537,0.348-0.973,0.778-0.973h26.734c0.43,0,0.777,0.436,0.777,0.973V63.724z"/>
		<path display="inline" fill="#FF918C" d="M10.117,54.214c0-1.65,1.35-3,3-3h15.197c1.65,0,3,1.35,3,3v15.221c0,1.648-1.35,3-3,3
			H13.117c-1.65,0-3-1.352-3-3V54.214z"/>
	</g>
	<g id="Layer_2" display="inline">
		<g>
			<path fill="#6D6E71" d="M69.455,40.897C68.597,7.25,47.044,5.598,42.207,5.652c-0.641,0.007-1.277,0.007-1.917,0
				C35.45,5.598,13.898,7.25,13.04,40.897c0,0,1.397,15.707-1.374,23.833c-0.524,1.537,0.199,3.226,1.696,3.855
				c3.903,1.643,11.144,3.813,17.279,0.746h10.605h10.606c6.136,3.066,13.376,0.896,17.278-0.746
				c1.496-0.63,2.222-2.318,1.697-3.855C68.057,56.604,69.455,40.897,69.455,40.897z"/>
			<path fill="#F8D8A7" d="M41.248,67.214L41.248,67.214c-10.31,0-18.667-8.355-18.667-18.666V35.395
				c0-10.309,8.357-18.667,18.666-18.667h0.001c10.308,0,18.666,8.357,18.666,18.667v13.153
				C59.914,58.856,51.556,67.214,41.248,67.214z"/>
			<path fill="#6D6E71" d="M53.265,20.884c-3.225-2.658-5.674-4.993-10.18-4.993l-1.334,0.083
				c-10.398-1.987-22.45,12.746-19.299,19.317l-0.031,0.094C39.793,35,49.244,26.295,53.265,20.884z"/>
			<path fill="#6D6E71" d="M59.824,33.57c2.19-0.746-3-10.526-6.713-13.586v1C53.111,20.984,52.05,28.663,59.824,33.57z"/>
			<path fill="#6D6E71" d="M71,81.381C59.777,70.878,41.247,70.877,41.247,70.877s-18.529,0.001-29.751,10.504
				C0.273,91.886,0.467,99.388,0.467,99.388l0,0c0,4.146,3.359,7.502,7.503,7.502h33.277h33.278c4.145,0,7.503-3.356,7.503-7.502
				l0,0C82.028,99.388,82.222,91.886,71,81.381z"/>
			<path fill="#919191" d="M39.577,70.94c-3.236,0.188-10.69,0.959-18.022,4.076l-2.997,5.35l6.609,6.506l-2.586,6.005l8.789,14.013
				h8.207V70.94z"/>
			<path fill="#919191" d="M42.917,70.94c3.236,0.188,10.69,0.959,18.022,4.076l2.997,5.35l-6.609,6.506l2.586,6.005l-8.789,14.013
				h-8.207V70.94z"/>
			<path fill="#F2F2F2" d="M46.856,106.89l10.472-33.227V73.66c-8.438-2.782-16.081-2.783-16.081-2.783s-7.641,0-16.08,2.783v0.004
				l10.472,33.228h5.608h5.609V106.89z"/>
			<path fill="#F8D8A7" d="M41.248,67.214L41.248,67.214c-4.268,0-8.198-1.436-11.342-3.845v8.282
				c0,6.264,5.077,11.343,11.341,11.343l0,0c6.265,0,11.342-5.079,11.342-11.343v-8.282C49.445,65.778,45.515,67.214,41.248,67.214z
				"/>
			<path fill="#EFCC9E" d="M29.906,71.487c14.614,1.727,20.844-6.875,20.844-6.875c-2.783,1.652-6.03,2.602-9.501,2.602h-0.001
				c-4.267,0-8.197-1.436-11.341-3.845V71.487z"/>
			<path fill="#D42B27" d="M20.701,46.063v-11.86c0-11.329,9.217-20.546,20.547-20.546c11.328,0,20.546,9.217,20.546,20.546v11.859
				h3.002V34.203c0-12.984-10.563-23.548-23.548-23.548s-23.55,10.563-23.55,23.548v11.859L20.701,46.063L20.701,46.063z"/>
			<path fill="#D42B27" d="M20.701,51.163L20.701,51.163V36.135l0,0c-4.039,0-7.313,3.274-7.313,7.313v0.402
				C13.389,47.888,16.662,51.163,20.701,51.163z"/>
			<path fill="#D42B27" d="M61.794,51.163L61.794,51.163V36.135l0,0c4.039,0,7.313,3.274,7.313,7.313v0.402
				C69.107,47.888,65.833,51.163,61.794,51.163z"/>
			<g>
				<path fill="#D42B27" d="M43.643,62.34l-0.08-1.875l8.362-0.358c5.75-0.246,10.598-4.15,12.063-9.715l0.62-2.354l1.814,0.479
					l-0.62,2.354c-1.679,6.363-7.222,10.83-13.8,11.111L43.643,62.34z"/>
			</g>
			<path fill="#D42B27" d="M45.279,63.369h-1.891c-1.184,0-2.141-0.958-2.141-2.142l0,0c0-1.182,0.958-2.141,2.141-2.141h1.891
				c1.182,0,2.141,0.959,2.141,2.141l0,0C47.419,62.411,46.46,63.369,45.279,63.369z"/>
		</g>
	</g>
</g>
<g id="Layer_2_1_">
	<g>
		<g>
			<path fill="#68E7C5" d="M7.105,15.026v8.717c0,0.563-0.442,1.022-0.998,1.053H6.104c-0.019,0.002-0.037,0.003-0.055,0.003
				s-0.036-0.001-0.055-0.003H5.991c-0.269-0.015-0.511-0.129-0.689-0.306c-0.19-0.191-0.309-0.455-0.309-0.747V8.965H4.688
				l-2.042,5.039c-0.215,0.587-0.408,0.91-0.91,0.91c-0.503,0-1.106-0.419-0.825-1.155l1.956-5.563c0.1-0.413,0,0,0.1-0.413
				c0.206-0.87,0.783-1.518,1.716-1.518h5.271c0.934,0,1.511,0.647,1.716,1.518c0.101,0.413,0,0,0.101,0.413l1.956,5.563
				c0.281,0.735-0.322,1.155-0.825,1.155c-0.502,0-0.694-0.323-0.91-0.91L9.95,8.965H9.645v14.778c0,0.292-0.119,0.556-0.31,0.747
				c-0.178,0.177-0.42,0.292-0.688,0.306H8.643c-0.018,0.002-0.036,0.003-0.054,0.003c-0.019,0-0.036-0.001-0.055-0.003H8.531
				c-0.557-0.031-0.998-0.49-0.998-1.053v-8.717H7.105z"/>
			<path fill="#3CE50B" d="M7.288,5.614c-1.091,0-1.975-0.884-1.975-1.974V3.578c0-1.09,0.884-1.974,1.975-1.974h0.063
				c1.09,0,1.974,0.884,1.974,1.974V3.64c0,1.09-0.884,1.974-1.974,1.974H7.288z"/>
		</g>
		<g>
			<path fill="#E6AD59" d="M18.414,15.026v8.717c0,0.563-0.441,1.022-0.997,1.053h-0.003c-0.019,0.002-0.037,0.003-0.055,0.003
				c-0.019,0-0.037-0.001-0.055-0.003h-0.003c-0.269-0.015-0.51-0.129-0.689-0.306c-0.19-0.191-0.309-0.455-0.309-0.747V8.965
				h-0.306l-2.042,5.039c-0.215,0.587-0.408,0.91-0.91,0.91c-0.503,0-1.106-0.419-0.824-1.155l1.955-5.563
				c0.101-0.413,0,0,0.101-0.413c0.205-0.87,0.783-1.518,1.716-1.518h5.272c0.933,0,1.51,0.647,1.716,1.518c0.1,0.413,0,0,0.1,0.413
				l1.956,5.563c0.281,0.735-0.322,1.155-0.824,1.155c-0.503,0-0.695-0.323-0.911-0.91L21.26,8.965h-0.306v14.778
				c0,0.292-0.119,0.556-0.309,0.747c-0.178,0.177-0.419,0.292-0.688,0.306h-0.004c-0.018,0.002-0.036,0.003-0.054,0.003
				c-0.019,0-0.037-0.001-0.055-0.003h-0.003c-0.557-0.031-0.998-0.49-0.998-1.053v-8.717H18.414z"/>
			<path fill="#BCEF41" d="M18.597,5.614c-1.089,0-1.973-0.884-1.973-1.974V3.578c0-1.09,0.884-1.974,1.973-1.974h0.063
				c1.09,0,1.974,0.884,1.974,1.974V3.64c0,1.09-0.884,1.974-1.974,1.974H18.597z"/>
		</g>
		<g>
			<path fill="#CA75FB" d="M29.724,15.026v8.717c0,0.563-0.442,1.022-0.998,1.053h-0.004c-0.018,0.002-0.036,0.003-0.054,0.003
				s-0.036-0.001-0.055-0.003h-0.003c-0.269-0.015-0.511-0.129-0.689-0.306c-0.19-0.191-0.309-0.455-0.309-0.747V8.965h-0.306
				l-2.042,5.039c-0.214,0.587-0.407,0.91-0.91,0.91c-0.503,0-1.106-0.419-0.824-1.155l1.955-5.563c0.101-0.413,0,0,0.101-0.413
				c0.206-0.87,0.782-1.518,1.716-1.518h5.272c0.933,0,1.51,0.647,1.716,1.518c0.1,0.413,0,0,0.1,0.413l1.956,5.563
				c0.282,0.735-0.321,1.155-0.824,1.155c-0.502,0-0.695-0.323-0.91-0.91l-2.042-5.039h-0.306v14.778
				c0,0.292-0.119,0.556-0.309,0.747c-0.178,0.177-0.42,0.292-0.689,0.306h-0.003c-0.019,0.002-0.036,0.003-0.054,0.003
				c-0.019,0-0.037-0.001-0.055-0.003H31.15c-0.556-0.031-0.998-0.49-0.998-1.053v-8.717H29.724z"/>
			<path fill="#A23923" d="M29.907,5.614c-1.09,0-1.974-0.884-1.974-1.974V3.578c0-1.09,0.884-1.974,1.974-1.974h0.063
				c1.091,0,1.975,0.884,1.975,1.974V3.64c0,1.09-0.884,1.974-1.975,1.974H29.907z"/>
		</g>
		<g>
			<path fill="#1E2B1B" d="M41.034,15.026v8.717c0,0.563-0.441,1.022-0.998,1.053h-0.003c-0.018,0.002-0.036,0.003-0.055,0.003
				c-0.018,0-0.036-0.001-0.054-0.003H39.92c-0.27-0.015-0.511-0.129-0.689-0.306c-0.191-0.191-0.309-0.455-0.309-0.747V8.965
				h-0.306l-2.042,5.039c-0.215,0.587-0.408,0.91-0.911,0.91c-0.502,0-1.106-0.419-0.824-1.155l1.956-5.563c0.1-0.413,0,0,0.1-0.413
				c0.206-0.87,0.783-1.518,1.716-1.518h5.271c0.935,0,1.511,0.647,1.717,1.518c0.1,0.413,0,0,0.1,0.413l1.956,5.563
				c0.281,0.735-0.321,1.155-0.824,1.155c-0.502,0-0.696-0.323-0.911-0.91l-2.041-5.039h-0.306v14.778
				c0,0.292-0.119,0.556-0.31,0.747c-0.178,0.177-0.419,0.292-0.688,0.306h-0.004c-0.018,0.002-0.036,0.003-0.054,0.003
				c-0.019,0-0.037-0.001-0.055-0.003h-0.004c-0.556-0.031-0.997-0.49-0.997-1.053v-8.717H41.034z"/>
			<path fill="#BE0DED" d="M41.216,5.614c-1.09,0-1.974-0.884-1.974-1.974V3.578c0-1.09,0.884-1.974,1.974-1.974h0.063
				c1.09,0,1.974,0.884,1.974,1.974V3.64c0,1.09-0.884,1.974-1.974,1.974H41.216z"/>
		</g>
		<g>
			<path fill="#7463BB" d="M52.343,15.026v8.717c0,0.563-0.442,1.022-0.998,1.053h-0.003c-0.019,0.002-0.036,0.003-0.056,0.003
				c-0.017,0-0.034-0.001-0.054-0.003H51.23c-0.269-0.015-0.511-0.129-0.689-0.306c-0.19-0.191-0.309-0.455-0.309-0.747V8.965
				h-0.305l-2.043,5.039c-0.215,0.587-0.407,0.91-0.91,0.91c-0.502,0-1.106-0.419-0.824-1.155l1.955-5.563
				c0.101-0.413,0,0,0.101-0.413c0.205-0.87,0.783-1.518,1.716-1.518h5.271c0.935,0,1.511,0.647,1.717,1.518
				c0.099,0.413,0,0,0.099,0.413l1.957,5.563c0.282,0.735-0.321,1.155-0.825,1.155c-0.502,0-0.695-0.323-0.909-0.91l-2.042-5.039
				h-0.306v14.778c0,0.292-0.119,0.556-0.31,0.747c-0.178,0.177-0.419,0.292-0.688,0.306h-0.004
				c-0.018,0.002-0.035,0.003-0.055,0.003c-0.019,0-0.036-0.001-0.054-0.003h-0.004c-0.556-0.031-0.998-0.49-0.998-1.053v-8.717
				H52.343z"/>
			<path fill="#4E7F71" d="M52.527,5.614c-1.092,0-1.975-0.884-1.975-1.974V3.578c0-1.09,0.883-1.974,1.975-1.974h0.063
				c1.09,0,1.974,0.884,1.974,1.974V3.64c0,1.09-0.884,1.974-1.974,1.974H52.527z"/>
		</g>
		<g>
			<path fill="#A07B31" d="M63.653,15.026v8.717c0,0.563-0.441,1.022-0.998,1.053h-0.003c-0.019,0.002-0.036,0.003-0.054,0.003
				c-0.02,0-0.036-0.001-0.056-0.003H62.54c-0.269-0.015-0.511-0.129-0.689-0.306c-0.19-0.191-0.309-0.455-0.309-0.747V8.965h-0.306
				l-2.042,5.039c-0.216,0.587-0.407,0.91-0.911,0.91c-0.502,0-1.105-0.419-0.823-1.155l1.955-5.563c0.101-0.413,0,0,0.101-0.413
				c0.205-0.87,0.783-1.518,1.715-1.518h5.272c0.935,0,1.512,0.647,1.717,1.518c0.101,0.413,0,0,0.101,0.413l1.955,5.563
				c0.282,0.735-0.321,1.155-0.825,1.155c-0.502,0-0.695-0.323-0.909-0.91l-2.042-5.039h-0.306v14.778
				c0,0.292-0.119,0.556-0.311,0.747c-0.177,0.177-0.418,0.292-0.688,0.306h-0.003c-0.019,0.002-0.036,0.003-0.056,0.003
				c-0.018,0-0.036-0.001-0.054-0.003h-0.004c-0.556-0.031-0.997-0.49-0.997-1.053v-8.717H63.653z"/>
			<path fill="#A2C3A5" d="M63.835,5.614c-1.091,0-1.974-0.884-1.974-1.974V3.578c0-1.09,0.883-1.974,1.974-1.974h0.063
				c1.089,0,1.974,0.884,1.974,1.974V3.64c0,1.09-0.885,1.974-1.974,1.974H63.835z"/>
		</g>
		<g>
			<path fill="#F28D09" d="M74.962,15.026v8.717c0,0.563-0.441,1.022-0.998,1.053h-0.003c-0.02,0.002-0.036,0.003-0.054,0.003
				c-0.02,0-0.037-0.001-0.056-0.003h-0.003c-0.27-0.015-0.511-0.129-0.689-0.306c-0.19-0.191-0.309-0.455-0.309-0.747V8.965h-0.306
				l-2.042,5.039c-0.216,0.587-0.407,0.91-0.909,0.91c-0.504,0-1.107-0.419-0.825-1.155l1.955-5.563c0.101-0.413,0,0,0.101-0.413
				c0.205-0.87,0.782-1.518,1.715-1.518h5.272c0.934,0,1.512,0.647,1.717,1.518c0.101,0.413,0,0,0.101,0.413l1.955,5.563
				c0.282,0.735-0.321,1.155-0.825,1.155c-0.502,0-0.693-0.323-0.909-0.91l-2.042-5.039h-0.306v14.778
				c0,0.292-0.118,0.556-0.309,0.747c-0.179,0.177-0.421,0.292-0.689,0.306h-0.003c-0.02,0.002-0.037,0.003-0.056,0.003
				c-0.018,0-0.036-0.001-0.054-0.003h-0.003c-0.558-0.031-0.998-0.49-0.998-1.053v-8.717H74.962z"/>
			<path fill="#441FBB" d="M75.145,5.614c-1.091,0-1.974-0.884-1.974-1.974V3.578c0-1.09,0.883-1.974,1.974-1.974h0.063
				c1.092,0,1.975,0.884,1.975,1.974V3.64c0,1.09-0.883,1.974-1.975,1.974H75.145z"/>
		</g>
	</g>
	<g>
		<g>
			<g>
				<path fill="#2AD163" d="M12.76,41.05v8.717c0,0.564-0.442,1.023-0.998,1.053h-0.003c-0.018,0.002-0.036,0.003-0.055,0.003
					c-0.018,0-0.036,0-0.055-0.003h-0.003c-0.269-0.015-0.51-0.128-0.688-0.306c-0.191-0.191-0.309-0.455-0.309-0.747V34.988h-0.306
					L8.3,40.027c-0.215,0.587-0.407,0.91-0.91,0.91c-0.502,0-1.106-0.42-0.824-1.155l1.956-5.563c0.1-0.412,0,0,0.1-0.412
					c0.206-0.87,0.783-1.518,1.716-1.518h5.272c0.933,0,1.51,0.647,1.716,1.518c0.1,0.412,0,0,0.1,0.412l1.956,5.563
					c0.282,0.735-0.322,1.155-0.824,1.155s-0.695-0.323-0.91-0.91l-2.042-5.039h-0.305v14.778c0,0.292-0.119,0.556-0.309,0.747
					c-0.178,0.178-0.42,0.291-0.689,0.306h-0.003c-0.019,0.002-0.037,0.003-0.055,0.003s-0.036,0-0.055-0.003h-0.003
					c-0.556-0.03-0.998-0.489-0.998-1.053V41.05H12.76z"/>
				<path fill="#2AD163" d="M12.942,31.638c-1.09,0-1.974-0.884-1.974-1.974v-0.063c0-1.09,0.884-1.974,1.974-1.974h0.063
					c1.09,0,1.974,0.884,1.974,1.974v0.063c0,1.09-0.884,1.974-1.974,1.974H12.942z"/>
			</g>
			<g>
				<path fill="#2AD163" d="M24.069,42.98v6.786c0,0.564-0.441,1.023-0.998,1.053h-0.004c-0.018,0.002-0.035,0.003-0.054,0.003
					s-0.036,0-0.054-0.003h-0.004c-0.269-0.015-0.511-0.128-0.689-0.306c-0.19-0.191-0.309-0.455-0.309-0.747v-6.669l-2.454-0.021
					l2.386-7.163l0.067-0.925h-0.305l-2.042,5.039c-0.215,0.587-0.408,0.91-0.91,0.91c-0.503,0-1.106-0.42-0.825-1.155l1.956-5.563
					c0.1-0.412,0,0,0.1-0.412c0.206-0.87,0.783-1.518,1.716-1.518h5.272c0.934,0,1.511,0.647,1.716,1.518c0.1,0.412,0,0,0.1,0.412
					l1.955,5.563c0.282,0.735-0.32,1.155-0.824,1.155c-0.503,0-0.695-0.323-0.91-0.91l-2.042-5.039h-0.307l0.068,0.925l2.386,7.163
					l-2.455,0.021v6.669c0,0.292-0.118,0.556-0.308,0.747c-0.179,0.178-0.42,0.291-0.689,0.306h-0.004
					c-0.018,0.002-0.036,0.003-0.054,0.003s-0.036,0-0.055-0.003h-0.003c-0.556-0.03-0.998-0.489-0.998-1.053V42.98H24.069z"/>
				<path fill="#2AD163" d="M24.252,31.638c-1.09,0-1.974-0.884-1.974-1.974v-0.063c0-1.09,0.884-1.974,1.974-1.974h0.063
					c1.09,0,1.974,0.884,1.974,1.974v0.063c0,1.09-0.884,1.974-1.974,1.974H24.252z"/>
			</g>
		</g>
		<g>
			<g>
				<path fill="#7463BB" d="M35.379,41.05v8.717c0,0.564-0.442,1.023-0.998,1.053h-0.003c-0.019,0.002-0.037,0.003-0.055,0.003
					c-0.019,0-0.036,0-0.055-0.003h-0.003c-0.269-0.015-0.511-0.128-0.689-0.306c-0.19-0.191-0.309-0.455-0.309-0.747V34.988h-0.306
					l-2.042,5.039c-0.215,0.587-0.408,0.91-0.91,0.91c-0.503,0-1.106-0.42-0.825-1.155l1.956-5.563c0.1-0.412,0,0,0.1-0.412
					c0.206-0.87,0.783-1.518,1.716-1.518h5.271c0.934,0,1.511,0.647,1.716,1.518c0.101,0.412,0,0,0.101,0.412l1.957,5.563
					c0.281,0.735-0.322,1.155-0.826,1.155c-0.502,0-0.694-0.323-0.909-0.91l-2.042-5.039h-0.306v14.778
					c0,0.292-0.118,0.556-0.31,0.747c-0.178,0.178-0.42,0.291-0.688,0.306h-0.004c-0.018,0.002-0.036,0.003-0.055,0.003
					c-0.018,0-0.035,0-0.054-0.003h-0.003c-0.557-0.03-0.998-0.489-0.998-1.053V41.05H35.379z"/>
				<path fill="#7463BB" d="M35.562,31.638c-1.091,0-1.975-0.884-1.975-1.974v-0.063c0-1.09,0.884-1.974,1.975-1.974h0.063
					c1.09,0,1.974,0.884,1.974,1.974v0.063c0,1.09-0.884,1.974-1.974,1.974H35.562z"/>
			</g>
			<g>
				<path fill="#7463BB" d="M46.689,42.98v6.786c0,0.564-0.441,1.023-0.998,1.053h-0.004c-0.018,0.002-0.035,0.003-0.054,0.003
					s-0.036,0-0.054-0.003h-0.005c-0.269-0.015-0.511-0.128-0.688-0.306c-0.19-0.191-0.311-0.455-0.311-0.747v-6.669l-2.453-0.021
					l2.387-7.163l0.066-0.925h-0.306l-2.041,5.039c-0.215,0.587-0.407,0.91-0.911,0.91c-0.503,0-1.106-0.42-0.825-1.155l1.957-5.563
					c0.101-0.412,0,0,0.101-0.412c0.205-0.87,0.782-1.518,1.716-1.518h5.272c0.933,0,1.51,0.647,1.715,1.518
					c0.101,0.412,0,0,0.101,0.412l1.955,5.563c0.282,0.735-0.321,1.155-0.823,1.155s-0.695-0.323-0.911-0.91l-2.041-5.039h-0.307
					l0.068,0.925l2.386,7.163l-2.454,0.021v6.669c0,0.292-0.118,0.556-0.309,0.747c-0.179,0.178-0.42,0.291-0.688,0.306h-0.004
					c-0.018,0.002-0.036,0.003-0.054,0.003c-0.02,0-0.036,0-0.056-0.003h-0.003c-0.556-0.03-0.998-0.489-0.998-1.053V42.98H46.689z"
					/>
				<path fill="#7463BB" d="M46.872,31.638c-1.09,0-1.975-0.884-1.975-1.974v-0.063c0-1.09,0.885-1.974,1.975-1.974h0.063
					c1.091,0,1.974,0.884,1.974,1.974v0.063c0,1.09-0.883,1.974-1.974,1.974H46.872z"/>
			</g>
		</g>
		<g>
			<g>
				<g>
					<path fill="#EC9521" d="M57.999,41.05v8.717c0,0.564-0.442,1.023-0.998,1.053h-0.004c-0.018,0.002-0.035,0.003-0.054,0.003
						c-0.02,0-0.037,0-0.054-0.003h-0.005c-0.27-0.015-0.511-0.128-0.688-0.306c-0.191-0.191-0.311-0.455-0.311-0.747V34.988h-0.306
						l-2.041,5.039c-0.215,0.587-0.408,0.91-0.91,0.91c-0.504,0-1.105-0.42-0.825-1.155l1.957-5.563c0.099-0.412,0,0,0.099-0.412
						c0.207-0.87,0.784-1.518,1.717-1.518h5.272c0.932,0,1.51,0.647,1.715,1.518c0.101,0.412,0,0,0.101,0.412l1.956,5.563
						c0.281,0.735-0.321,1.155-0.824,1.155c-0.504,0-0.695-0.323-0.911-0.91l-2.041-5.039h-0.306v14.778
						c0,0.292-0.119,0.556-0.31,0.747c-0.179,0.178-0.421,0.291-0.688,0.306h-0.004c-0.018,0.002-0.036,0.003-0.054,0.003
						c-0.02,0-0.037,0-0.056-0.003h-0.003c-0.556-0.03-0.998-0.489-0.998-1.053V41.05H57.999z"/>
					<path fill="#EC9521" d="M58.18,31.638c-1.089,0-1.974-0.884-1.974-1.974v-0.063c0-1.09,0.885-1.974,1.974-1.974h0.064
						c1.09,0,1.973,0.884,1.973,1.974v0.063c0,1.09-0.883,1.974-1.973,1.974H58.18z"/>
				</g>
				<g>
					<path fill="#EC9521" d="M69.308,42.98v6.786c0,0.564-0.442,1.023-0.998,1.053h-0.003c-0.019,0.002-0.036,0.003-0.055,0.003
						c-0.018,0-0.037,0-0.055-0.003h-0.004c-0.268-0.015-0.509-0.128-0.688-0.306c-0.19-0.191-0.31-0.455-0.31-0.747v-6.669
						l-2.453-0.021l2.386-7.163l0.067-0.925H66.89l-2.041,5.039c-0.215,0.587-0.407,0.91-0.91,0.91c-0.504,0-1.106-0.42-0.825-1.155
						l1.957-5.563c0.1-0.412,0,0,0.1-0.412c0.205-0.87,0.783-1.518,1.716-1.518h5.271c0.933,0,1.511,0.647,1.717,1.518
						c0.1,0.412,0,0,0.1,0.412l1.956,5.563c0.281,0.735-0.321,1.155-0.825,1.155c-0.501,0-0.695-0.323-0.91-0.91l-2.041-5.039
						h-0.306l0.067,0.925l2.386,7.163l-2.453,0.021v6.669c0,0.292-0.119,0.556-0.31,0.747c-0.178,0.178-0.419,0.291-0.688,0.306
						h-0.004c-0.018,0.002-0.035,0.003-0.054,0.003c-0.02,0-0.037,0-0.055-0.003h-0.004c-0.556-0.03-0.998-0.489-0.998-1.053V42.98
						H69.308z"/>
					<path fill="#EC9521" d="M69.49,31.638c-1.09,0-1.973-0.884-1.973-1.974v-0.063c0-1.09,0.883-1.974,1.973-1.974h0.064
						c1.09,0,1.974,0.884,1.974,1.974v0.063c0,1.09-0.884,1.974-1.974,1.974H69.49z"/>
				</g>
			</g>
		</g>
	</g>
	<g>
		<g>
			<path d="M7.105,68.655v8.718c0,0.563-0.442,1.021-0.998,1.052H6.104c-0.019,0.003-0.037,0.003-0.055,0.003s-0.036,0-0.055-0.003
				H5.991c-0.269-0.015-0.511-0.128-0.689-0.306c-0.19-0.19-0.309-0.455-0.309-0.746V62.595H4.688l-2.042,5.039
				c-0.215,0.586-0.408,0.909-0.91,0.909c-0.503,0-1.106-0.419-0.825-1.155l1.956-5.563c0.1-0.411,0,0,0.1-0.411
				c0.206-0.87,0.783-1.518,1.716-1.518h5.271c0.934,0,1.511,0.647,1.716,1.518c0.101,0.411,0,0,0.101,0.411l1.956,5.563
				c0.281,0.736-0.322,1.155-0.825,1.155c-0.502,0-0.694-0.323-0.91-0.909L9.95,62.595H9.645v14.778c0,0.291-0.119,0.556-0.31,0.746
				c-0.178,0.178-0.42,0.291-0.688,0.306H8.643c-0.018,0.003-0.036,0.003-0.054,0.003c-0.019,0-0.036,0-0.055-0.003H8.531
				c-0.557-0.03-0.998-0.488-0.998-1.052v-8.718H7.105z"/>
			<path d="M7.288,59.244c-1.091,0-1.975-0.884-1.975-1.975v-0.063c0-1.09,0.884-1.974,1.975-1.974h0.063
				c1.09,0,1.974,0.884,1.974,1.974v0.063c0,1.091-0.884,1.975-1.974,1.975H7.288z"/>
		</g>
		<g>
			<path d="M18.414,68.655v8.718c0,0.563-0.441,1.021-0.997,1.052h-0.003c-0.019,0.003-0.037,0.003-0.055,0.003
				c-0.019,0-0.037,0-0.055-0.003h-0.003c-0.269-0.015-0.51-0.128-0.689-0.306c-0.19-0.19-0.309-0.455-0.309-0.746V62.595h-0.306
				l-2.042,5.039c-0.215,0.586-0.408,0.909-0.91,0.909c-0.503,0-1.106-0.419-0.824-1.155l1.955-5.563c0.101-0.411,0,0,0.101-0.411
				c0.205-0.87,0.783-1.518,1.716-1.518h5.272c0.933,0,1.51,0.647,1.716,1.518c0.1,0.411,0,0,0.1,0.411l1.956,5.563
				c0.281,0.736-0.322,1.155-0.824,1.155c-0.503,0-0.695-0.323-0.911-0.909l-2.042-5.039h-0.306v14.778
				c0,0.291-0.119,0.556-0.309,0.746c-0.178,0.178-0.419,0.291-0.688,0.306h-0.004c-0.018,0.003-0.036,0.003-0.054,0.003
				c-0.019,0-0.037,0-0.055-0.003h-0.003c-0.557-0.03-0.998-0.488-0.998-1.052v-8.718H18.414z"/>
			<path d="M18.597,59.244c-1.089,0-1.973-0.884-1.973-1.975v-0.063c0-1.09,0.884-1.974,1.973-1.974h0.063
				c1.09,0,1.974,0.884,1.974,1.974v0.063c0,1.091-0.884,1.975-1.974,1.975H18.597z"/>
		</g>
		<g>
			<path d="M29.724,68.655v8.718c0,0.563-0.442,1.021-0.998,1.052h-0.004c-0.018,0.003-0.036,0.003-0.054,0.003
				s-0.036,0-0.055-0.003h-0.003c-0.269-0.015-0.511-0.128-0.689-0.306c-0.19-0.19-0.309-0.455-0.309-0.746V62.595h-0.306
				l-2.042,5.039c-0.214,0.586-0.407,0.909-0.91,0.909c-0.503,0-1.106-0.419-0.824-1.155l1.955-5.563c0.101-0.411,0,0,0.101-0.411
				c0.206-0.87,0.782-1.518,1.716-1.518h5.272c0.933,0,1.51,0.647,1.716,1.518c0.1,0.411,0,0,0.1,0.411l1.956,5.563
				c0.282,0.736-0.321,1.155-0.824,1.155c-0.502,0-0.695-0.323-0.91-0.909l-2.042-5.039h-0.306v14.778
				c0,0.291-0.119,0.556-0.309,0.746c-0.178,0.178-0.42,0.291-0.689,0.306h-0.003c-0.019,0.003-0.036,0.003-0.054,0.003
				c-0.019,0-0.037,0-0.055-0.003H31.15c-0.556-0.03-0.998-0.488-0.998-1.052v-8.718H29.724z"/>
			<path d="M29.907,59.244c-1.09,0-1.974-0.884-1.974-1.975v-0.063c0-1.09,0.884-1.974,1.974-1.974h0.063
				c1.091,0,1.975,0.884,1.975,1.974v0.063c0,1.091-0.884,1.975-1.975,1.975H29.907z"/>
		</g>
		<g>
			<path d="M41.034,68.655v8.718c0,0.563-0.441,1.021-0.998,1.052h-0.003c-0.018,0.003-0.036,0.003-0.055,0.003
				c-0.018,0-0.036,0-0.054-0.003H39.92c-0.27-0.015-0.511-0.128-0.689-0.306c-0.191-0.19-0.309-0.455-0.309-0.746V62.595h-0.306
				l-2.042,5.039c-0.215,0.586-0.408,0.909-0.911,0.909c-0.502,0-1.106-0.419-0.824-1.155l1.956-5.563c0.1-0.411,0,0,0.1-0.411
				c0.206-0.87,0.783-1.518,1.716-1.518h5.271c0.935,0,1.511,0.647,1.717,1.518c0.1,0.411,0,0,0.1,0.411l1.956,5.563
				c0.281,0.736-0.321,1.155-0.824,1.155c-0.502,0-0.696-0.323-0.911-0.909l-2.041-5.039h-0.306v14.778
				c0,0.291-0.119,0.556-0.31,0.746c-0.178,0.178-0.419,0.291-0.688,0.306h-0.004c-0.018,0.003-0.036,0.003-0.054,0.003
				c-0.019,0-0.037,0-0.055-0.003h-0.004c-0.556-0.03-0.997-0.488-0.997-1.052v-8.718H41.034z"/>
			<path d="M41.216,59.244c-1.09,0-1.974-0.884-1.974-1.975v-0.063c0-1.09,0.884-1.974,1.974-1.974h0.063
				c1.09,0,1.974,0.884,1.974,1.974v0.063c0,1.091-0.884,1.975-1.974,1.975H41.216z"/>
		</g>
		<g>
			<path d="M52.343,68.655v8.718c0,0.563-0.442,1.021-0.998,1.052h-0.003c-0.019,0.003-0.036,0.003-0.056,0.003
				c-0.017,0-0.034,0-0.054-0.003H51.23c-0.269-0.015-0.511-0.128-0.689-0.306c-0.19-0.19-0.309-0.455-0.309-0.746V62.595h-0.305
				l-2.043,5.039c-0.215,0.586-0.407,0.909-0.91,0.909c-0.502,0-1.106-0.419-0.824-1.155l1.955-5.563c0.101-0.411,0,0,0.101-0.411
				c0.205-0.87,0.783-1.518,1.716-1.518h5.271c0.935,0,1.511,0.647,1.717,1.518c0.099,0.411,0,0,0.099,0.411l1.957,5.563
				c0.282,0.736-0.321,1.155-0.825,1.155c-0.502,0-0.695-0.323-0.909-0.909l-2.042-5.039h-0.306v14.778
				c0,0.291-0.119,0.556-0.31,0.746c-0.178,0.178-0.419,0.291-0.688,0.306h-0.004c-0.018,0.003-0.035,0.003-0.055,0.003
				c-0.019,0-0.036,0-0.054-0.003h-0.004c-0.556-0.03-0.998-0.488-0.998-1.052v-8.718H52.343z"/>
			<path d="M52.527,59.244c-1.092,0-1.975-0.884-1.975-1.975v-0.063c0-1.09,0.883-1.974,1.975-1.974h0.063
				c1.09,0,1.974,0.884,1.974,1.974v0.063c0,1.091-0.884,1.975-1.974,1.975H52.527z"/>
		</g>
		<g>
			<path d="M63.653,68.655v8.718c0,0.563-0.441,1.021-0.998,1.052h-0.003c-0.019,0.003-0.036,0.003-0.054,0.003
				c-0.02,0-0.036,0-0.056-0.003H62.54c-0.269-0.015-0.511-0.128-0.689-0.306c-0.19-0.19-0.309-0.455-0.309-0.746V62.595h-0.306
				l-2.042,5.039c-0.216,0.586-0.407,0.909-0.911,0.909c-0.502,0-1.105-0.419-0.823-1.155l1.955-5.563c0.101-0.411,0,0,0.101-0.411
				c0.205-0.87,0.783-1.518,1.715-1.518h5.272c0.935,0,1.512,0.647,1.717,1.518c0.101,0.411,0,0,0.101,0.411l1.955,5.563
				c0.282,0.736-0.321,1.155-0.825,1.155c-0.502,0-0.695-0.323-0.909-0.909l-2.042-5.039h-0.306v14.778
				c0,0.291-0.119,0.556-0.311,0.746c-0.177,0.178-0.418,0.291-0.688,0.306h-0.003c-0.019,0.003-0.036,0.003-0.056,0.003
				c-0.018,0-0.036,0-0.054-0.003h-0.004c-0.556-0.03-0.997-0.488-0.997-1.052v-8.718H63.653z"/>
			<path d="M63.835,59.244c-1.091,0-1.974-0.884-1.974-1.975v-0.063c0-1.09,0.883-1.974,1.974-1.974h0.063
				c1.089,0,1.974,0.884,1.974,1.974v0.063c0,1.091-0.885,1.975-1.974,1.975H63.835z"/>
		</g>
		<g>
			<path d="M74.962,68.655v8.718c0,0.563-0.441,1.021-0.998,1.052h-0.003c-0.02,0.003-0.036,0.003-0.054,0.003
				c-0.02,0-0.037,0-0.056-0.003h-0.003c-0.27-0.015-0.511-0.128-0.689-0.306c-0.19-0.19-0.309-0.455-0.309-0.746V62.595h-0.306
				l-2.042,5.039c-0.216,0.586-0.407,0.909-0.909,0.909c-0.504,0-1.107-0.419-0.825-1.155l1.955-5.563c0.101-0.411,0,0,0.101-0.411
				c0.205-0.87,0.782-1.518,1.715-1.518h5.272c0.934,0,1.512,0.647,1.717,1.518c0.101,0.411,0,0,0.101,0.411l1.955,5.563
				c0.282,0.736-0.321,1.155-0.825,1.155c-0.502,0-0.693-0.323-0.909-0.909l-2.042-5.039h-0.306v14.778
				c0,0.291-0.118,0.556-0.309,0.746c-0.179,0.178-0.421,0.291-0.689,0.306h-0.003c-0.02,0.003-0.037,0.003-0.056,0.003
				c-0.018,0-0.036,0-0.054-0.003h-0.003c-0.558-0.03-0.998-0.488-0.998-1.052v-8.718H74.962z"/>
			<path d="M75.145,59.244c-1.091,0-1.974-0.884-1.974-1.975v-0.063c0-1.09,0.883-1.974,1.974-1.974h0.063
				c1.092,0,1.975,0.884,1.975,1.974v0.063c0,1.091-0.883,1.975-1.975,1.975H75.145z"/>
		</g>
	</g>
	<linearGradient id="SVGID_1_" gradientUnits="userSpaceOnUse" x1="1.4424" y1="95.8662" x2="81.0532" y2="95.8662">
		<stop  offset="0" style="stop-color:#00A0DB"/>
		<stop  offset="0.2" style="stop-color:#362983"/>
		<stop  offset="0.4" style="stop-color:#E4007D"/>
		<stop  offset="0.6" style="stop-color:#E31F21"/>
		<stop  offset="0.8" style="stop-color:#FFE900"/>
		<stop  offset="1" style="stop-color:#009447"/>
	</linearGradient>
	<path fill="url(#SVGID_1_)" d="M8.974,87.217h0.071c1.243,0,2.251-1.009,2.251-2.251v-0.073c0-1.242-1.008-2.25-2.251-2.25H8.974
		c-1.243,0-2.251,1.008-2.251,2.25v0.073C6.723,86.208,7.73,87.217,8.974,87.217z M21.868,87.217h0.072
		c1.243,0,2.25-1.009,2.25-2.251v-0.073c0-1.242-1.007-2.25-2.25-2.25h-0.072c-1.243,0-2.25,1.008-2.25,2.25v0.073
		C19.618,86.208,20.625,87.217,21.868,87.217z M34.764,87.217h0.072c1.242,0,2.25-1.009,2.25-2.251v-0.073
		c0-1.242-1.008-2.25-2.25-2.25h-0.072c-1.243,0-2.251,1.008-2.251,2.25v0.073C32.513,86.208,33.521,87.217,34.764,87.217z
		 M47.658,87.217h0.071c1.244,0,2.251-1.009,2.251-2.251v-0.073c0-1.242-1.007-2.25-2.251-2.25h-0.071
		c-1.243,0-2.25,1.008-2.25,2.25v0.073C45.408,86.208,46.415,87.217,47.658,87.217z M60.553,87.217h0.071
		c1.243,0,2.25-1.009,2.25-2.251v-0.073c0-1.242-1.007-2.25-2.25-2.25h-0.071c-1.244,0-2.251,1.008-2.251,2.25v0.073
		C58.302,86.208,59.309,87.217,60.553,87.217z M73.448,87.217h0.071c1.244,0,2.251-1.009,2.251-2.251v-0.073
		c0-1.242-1.007-2.25-2.251-2.25h-0.071c-1.243,0-2.25,1.008-2.25,2.25v0.073C71.198,86.208,72.205,87.217,73.448,87.217z
		 M78.56,90.159c-0.114-0.47,0,0-0.114-0.47c-0.234-0.992-0.893-1.731-1.957-1.731h-6.012c-1.063,0-1.721,0.739-1.955,1.731
		c-0.114,0.47,0,0-0.114,0.47l-1.372,3.9l-1.37-3.9c-0.115-0.47,0,0-0.115-0.47c-0.234-0.992-0.892-1.731-1.957-1.731h-6.01
		c-1.064,0-1.722,0.739-1.956,1.731c-0.115,0.47,0,0-0.115,0.47l-1.37,3.9l-1.372-3.9c-0.115-0.47,0,0-0.115-0.47
		c-0.234-0.992-0.892-1.731-1.956-1.731h-6.01c-1.065,0-1.723,0.739-1.957,1.731c-0.114,0.47,0,0-0.114,0.47l-1.371,3.9l-1.371-3.9
		c-0.114-0.47,0,0-0.114-0.47c-0.234-0.992-0.893-1.731-1.957-1.731h-6.011c-1.064,0-1.722,0.739-1.957,1.731
		c-0.113,0.47,0,0-0.113,0.47l-1.372,3.9l-1.371-3.9c-0.114-0.47,0,0-0.114-0.47c-0.234-0.992-0.893-1.731-1.957-1.731h-6.011
		c-1.064,0-1.722,0.739-1.957,1.731c-0.113,0.47,0,0-0.113,0.47l-1.372,3.9l-1.371-3.9c-0.114-0.47,0,0-0.114-0.47
		c-0.233-0.992-0.893-1.731-1.956-1.731H6.003c-1.063,0-1.722,0.739-1.955,1.731c-0.114,0.47,0,0-0.114,0.47
		c0,0-2.483,6.174-2.491,6.622s0.465,1.037,1.037,1.037c0.027,0,0.055-0.001,0.082-0.004c0.027,0.003,0.055,0.004,0.082,0.004
		c0.572,0,0.792-0.368,1.037-1.037l2.328-5.746h0.349v16.853c0,0.331,0.136,0.633,0.353,0.851c0.203,0.202,0.479,0.332,0.785,0.35
		H7.5c0.02,0.001,0.04,0.003,0.062,0.003c0.021,0,0.041-0.002,0.062-0.003h0.005c0.633-0.035,1.138-0.56,1.138-1.2v-9.941h0.487
		v9.941c0,0.641,0.504,1.165,1.138,1.2h0.004c0.021,0.001,0.041,0.003,0.063,0.003c0.021,0,0.041-0.002,0.062-0.003h0.004
		c0.307-0.018,0.583-0.147,0.786-0.35c0.217-0.218,0.353-0.52,0.353-0.851V91.035h0.349l2.328,5.746
		c0.245,0.669,0.465,1.037,1.037,1.037c0.027,0,0.055-0.001,0.081-0.004c0.028,0.003,0.055,0.004,0.082,0.004
		c0.573,0,0.793-0.368,1.038-1.037l2.328-5.746h0.349v16.853c0,0.331,0.135,0.633,0.352,0.851c0.204,0.202,0.479,0.332,0.786,0.35
		h0.003c0.021,0.001,0.042,0.003,0.063,0.003c0.021,0,0.041-0.002,0.063-0.003h0.004c0.634-0.035,1.138-0.56,1.138-1.2v-9.941h0.488
		v9.941c0,0.641,0.503,1.165,1.138,1.2h0.004c0.021,0.001,0.041,0.003,0.063,0.003c0.021,0,0.04-0.002,0.062-0.003h0.004
		c0.307-0.018,0.582-0.147,0.785-0.35c0.218-0.218,0.353-0.52,0.353-0.851V91.035h0.349l2.328,5.746
		c0.245,0.669,0.465,1.037,1.038,1.037c0.026,0,0.054-0.001,0.081-0.004c0.027,0.003,0.055,0.004,0.081,0.004
		c0.573,0,0.793-0.368,1.038-1.037l2.329-5.746h0.348v16.853c0,0.331,0.136,0.633,0.353,0.851c0.203,0.202,0.479,0.332,0.785,0.35
		h0.004c0.021,0.001,0.041,0.003,0.063,0.003c0.021,0,0.041-0.002,0.062-0.003h0.004c0.635-0.035,1.139-0.56,1.139-1.2v-9.941h0.488
		v9.941c0,0.641,0.503,1.165,1.138,1.2h0.003c0.021,0.001,0.042,0.003,0.063,0.003s0.041-0.002,0.063-0.003h0.003
		c0.308-0.018,0.583-0.147,0.786-0.35c0.217-0.218,0.352-0.52,0.352-0.851V91.035h0.349l2.328,5.746
		c0.245,0.669,0.465,1.037,1.038,1.037c0.027,0,0.055-0.001,0.082-0.004c0.027,0.003,0.054,0.004,0.081,0.004
		c0.573,0,0.792-0.368,1.038-1.037l2.327-5.746h0.35v16.853c0,0.331,0.135,0.633,0.352,0.851c0.204,0.202,0.479,0.332,0.786,0.35
		h0.004c0.021,0.001,0.041,0.003,0.062,0.003c0.021,0,0.04-0.002,0.063-0.003h0.004c0.633-0.035,1.138-0.56,1.138-1.2v-9.941h0.487
		v9.941c0,0.641,0.505,1.165,1.138,1.2h0.005c0.021,0.001,0.04,0.003,0.063,0.003c0.021,0,0.04-0.002,0.061-0.003h0.005
		c0.307-0.018,0.582-0.147,0.785-0.35c0.217-0.218,0.353-0.52,0.353-0.851V91.035h0.349l2.328,5.746
		c0.245,0.669,0.465,1.037,1.037,1.037c0.027,0,0.055-0.001,0.083-0.004c0.026,0.003,0.054,0.004,0.081,0.004
		c0.572,0,0.792-0.368,1.037-1.037l2.328-5.746h0.349v16.853c0,0.331,0.136,0.633,0.353,0.851c0.203,0.202,0.479,0.332,0.785,0.35
		h0.005c0.021,0.001,0.04,0.003,0.061,0.003c0.022,0,0.041-0.002,0.063-0.003h0.005c0.633-0.035,1.138-0.56,1.138-1.2v-9.941h0.487
		v9.941c0,0.641,0.505,1.165,1.138,1.2h0.004c0.021,0.001,0.041,0.003,0.063,0.003c0.021,0,0.041-0.002,0.062-0.003h0.004
		c0.308-0.018,0.582-0.147,0.786-0.35c0.217-0.218,0.352-0.52,0.352-0.851V91.035h0.35l2.327,5.746
		c0.246,0.669,0.466,1.037,1.037,1.037c0.028,0,0.056-0.001,0.083-0.004c0.026,0.003,0.054,0.004,0.082,0.004
		c0.571,0,0.791-0.368,1.037-1.037l2.327-5.746h0.35v16.853c0,0.331,0.135,0.633,0.352,0.851c0.204,0.202,0.479,0.332,0.786,0.35
		h0.004c0.021,0.001,0.041,0.003,0.062,0.003s0.041-0.002,0.063-0.003h0.004c0.633-0.035,1.138-0.56,1.138-1.2v-9.941h0.487v9.941
		c0,0.641,0.504,1.165,1.138,1.2h0.005c0.021,0.001,0.041,0.003,0.063,0.003c0.021,0,0.041-0.002,0.061-0.003h0.005
		c0.307-0.018,0.582-0.147,0.785-0.35c0.217-0.218,0.353-0.52,0.353-0.851V91.035h0.349l2.328,5.746
		c0.246,0.669,0.466,1.037,1.037,1.037c0.027,0,0.056-0.001,0.083-0.004c0.026,0.003,0.054,0.004,0.081,0.004
		c0.572,0,1.072-0.631,1.038-1.037S78.56,90.159,78.56,90.159z"/>
</g>
</svg>
