<?xml version="1.0" encoding="utf-8"?>
<!-- Generator: Adobe Illustrator 16.0.0, SVG Export Plug-In . SVG Version: 6.00 Build 0)  -->
<!DOCTYPE svg PUBLIC "-//W3C//DTD SVG 1.1//EN" "http://www.w3.org/Graphics/SVG/1.1/DTD/svg11.dtd">
<svg version="1.1" id="Layer_1" xmlns="http://www.w3.org/2000/svg" xmlns:xlink="http://www.w3.org/1999/xlink" x="0px" y="0px"
	 width="82.495px" height="112.541px" viewBox="0 0 82.495 112.541" enable-background="new 0 0 82.495 112.541"
	 xml:space="preserve">
<path fill="#B883AE" d="M297.802,33.173c0,2.764-2.268,5.005-5.064,5.005H187.03c-2.797,0-5.064-2.241-5.064-5.005V-4.981
	c0-2.764,2.268-5.005,5.064-5.005h105.707c2.797,0,5.064,2.241,5.064,5.005V33.173z"/>
<path fill="#FFFFFF" d="M292.948,29.718c0,2.541-1.934,4.604-4.318,4.604h-97.494c-2.383,0-4.316-2.063-4.316-4.604v-35.1
	c0-2.544,1.934-4.604,4.316-4.604h97.494c2.385,0,4.318,2.061,4.318,4.604V29.718z"/>
<path fill="#045B78" d="M297.802-0.291v-4.69c0-2.764-2.268-5.005-5.064-5.005H187.03c-2.797,0-5.064,2.241-5.064,5.005v4.69
	H297.802z"/>
<ellipse fill="#FFFEFA" cx="199.479" cy="-5.138" rx="1.847" ry="1.823"/>
<ellipse fill="#FFFEFA" cx="194.415" cy="-5.138" rx="1.846" ry="1.823"/>
<ellipse fill="#FFFEFA" cx="189.351" cy="-5.138" rx="1.846" ry="1.823"/>
<path fill="#FFFEFA" d="M206.099-5.138c0,1.005,0.828,1.823,1.848,1.823h83.498c1.02,0,1.848-0.818,1.848-1.823l0,0
	c0-1.008-0.828-1.825-1.848-1.825h-83.498C206.927-6.963,206.099-6.146,206.099-5.138L206.099-5.138z"/>
<path fill="#FF918C" d="M253.97,26.709c0,0.536-0.299,0.973-0.668,0.973h-58.219c-0.369,0-0.668-0.437-0.668-0.973v-2.183
	c0-0.537,0.299-0.973,0.668-0.973h58.219c0.369,0,0.668,0.436,0.668,0.973V26.709z"/>
<path fill="#045B78" d="M256.021,9.616c0,0.537-0.299,0.973-0.668,0.973h-60.27c-0.369,0-0.668-0.436-0.668-0.973V7.435
	c0-0.538,0.299-0.973,0.668-0.973h60.27c0.369,0,0.668,0.435,0.668,0.973V9.616z"/>
<path fill="#43D98E" d="M247.161,18.163c0,0.535-0.348,0.973-0.777,0.973h-51.191c-0.43,0-0.777-0.438-0.777-0.973v-2.184
	c0-0.537,0.348-0.973,0.777-0.973h51.191c0.43,0,0.777,0.436,0.777,0.973V18.163z"/>
<path fill="#FFC250" d="M284.606,27.765h-20.82c-0.436,0-0.787-0.354-0.787-0.789V16.564c0-0.208,0.082-0.409,0.23-0.557
	l10.41-10.41c0.309-0.309,0.809-0.309,1.115,0l10.41,10.41c0.148,0.147,0.23,0.349,0.23,0.557v10.411
	C285.396,27.41,285.042,27.765,284.606,27.765z"/>
<path fill="#045B78" d="M276.827,27.777h-5.207c-0.436,0-0.787-0.013-0.787-0.013v-5.994c0-0.436,0.352-0.789,0.787-0.789h5.207
	c0.436,0,0.787,0.354,0.787,0.789v5.994C277.614,27.765,277.263,27.777,276.827,27.777z"/>
<path fill="#FF918C" d="M284.606,17.354h-20.82c-0.318,0-0.605-0.192-0.727-0.486c-0.123-0.295-0.057-0.635,0.17-0.859l10.41-10.41
	c0.309-0.309,0.809-0.309,1.115,0l10.41,10.41c0.225,0.225,0.293,0.564,0.172,0.859C285.214,17.161,284.927,17.354,284.606,17.354z"
	/>
<g>
	<line fill="#FFFFFF" x1="81.552" y1="6.5" x2="39.936" y2="6.5"/>
	<path fill="#1D1D1B" d="M39.936,6h41.616c0.521,0,0.943,0.224,0.943,0.5S82.073,7,81.552,7H39.936c-0.521,0-0.942-0.224-0.942-0.5
		S39.415,6,39.936,6z"/>
</g>
<g>
	<line fill="#FFFFFF" x1="72.292" y1="0.5" x2="30.68" y2="0.5"/>
	<path fill="#1D1D1B" d="M30.68,0h41.612c0.521,0,0.943,0.224,0.943,0.5S72.813,1,72.292,1H30.68c-0.521,0-0.942-0.224-0.942-0.5
		S30.159,0,30.68,0z"/>
</g>
<g>
	<line fill="#FFFFFF" x1="35.641" y1="6.5" x2="24.331" y2="6.5"/>
	<path fill="#1D1D1B" d="M24.331,6h11.31c0.521,0,0.942,0.224,0.942,0.5S36.162,7,35.641,7h-11.31c-0.521,0-0.942-0.224-0.942-0.5
		S23.811,6,24.331,6z"/>
</g>
<g>
	<line fill="#FFFFFF" x1="53.005" y1="13.563" x2="41.695" y2="13.563"/>
	<path fill="#1D1D1B" d="M41.695,13.063h11.31c0.52,0,0.941,0.224,0.941,0.5s-0.422,0.5-0.941,0.5h-11.31
		c-0.521,0-0.942-0.224-0.942-0.5S41.174,13.063,41.695,13.063z"/>
</g>
<g>
	<line fill="#FFFFFF" x1="145.958" y1="186.536" x2="187.575" y2="186.536"/>
	<path fill="#1D1D1B" d="M187.575,187.036h-41.617c-0.521,0-0.941-0.223-0.941-0.5c0-0.275,0.42-0.5,0.941-0.5h41.617
		c0.521,0,0.941,0.225,0.941,0.5C188.517,186.813,188.097,187.036,187.575,187.036z"/>
</g>
<g>
	<line fill="#FFFFFF" x1="155.218" y1="192.536" x2="196.831" y2="192.536"/>
	<path fill="#1D1D1B" d="M196.831,193.036h-41.613c-0.521,0-0.941-0.223-0.941-0.5c0-0.275,0.42-0.5,0.941-0.5h41.613
		c0.521,0,0.941,0.225,0.941,0.5C197.772,192.813,197.353,193.036,196.831,193.036z"/>
</g>
<g>
	<line fill="#FFFFFF" x1="191.87" y1="186.536" x2="203.181" y2="186.536"/>
	<path fill="#1D1D1B" d="M203.181,187.036H191.87c-0.521,0-0.941-0.223-0.941-0.5c0-0.275,0.42-0.5,0.941-0.5h11.311
		c0.52,0,0.941,0.225,0.941,0.5C204.122,186.813,203.7,187.036,203.181,187.036z"/>
</g>
<g>
	<line fill="#FFFFFF" x1="174.507" y1="179.473" x2="185.815" y2="179.473"/>
	<path fill="#1D1D1B" d="M185.815,179.973h-11.309c-0.521,0-0.943-0.225-0.943-0.5c0-0.277,0.422-0.5,0.943-0.5h11.309
		c0.521,0,0.943,0.223,0.943,0.5C186.759,179.749,186.337,179.973,185.815,179.973z"/>
</g>
<g>
	<line fill="#FFFFFF" x1="27.43" y1="112.041" x2="15.21" y2="112.041"/>
	<path fill="#1D1D1B" d="M27.43,112.541H15.21c-0.276,0-0.5-0.223-0.5-0.5c0-0.275,0.224-0.5,0.5-0.5h12.22
		c0.276,0,0.5,0.225,0.5,0.5C27.93,112.318,27.707,112.541,27.43,112.541z"/>
</g>
<g>
	<line fill="#FFFFFF" x1="15.364" y1="106.498" x2="9.254" y2="106.498"/>
	<path fill="#1D1D1B" d="M15.364,106.998H9.254c-0.276,0-0.5-0.225-0.5-0.5c0-0.277,0.224-0.5,0.5-0.5h6.109
		c0.276,0,0.5,0.223,0.5,0.5C15.864,106.773,15.64,106.998,15.364,106.998z"/>
</g>
<g>
	<line fill="#FFFFFF" x1="40.919" y1="106.498" x2="18.418" y2="106.498"/>
	<path fill="#1D1D1B" d="M40.919,106.998h-22.5c-0.276,0-0.5-0.225-0.5-0.5c0-0.277,0.224-0.5,0.5-0.5h22.5
		c0.276,0,0.5,0.223,0.5,0.5C41.419,106.773,41.195,106.998,40.919,106.998z"/>
</g>
<g>
	<line fill="#FFFFFF" x1="298.257" y1="93.752" x2="293.062" y2="93.752"/>
	<path fill="#1D1D1B" d="M298.257,94.252h-5.195c-0.117,0-0.211-0.223-0.211-0.5c0-0.275,0.094-0.5,0.211-0.5h5.195
		c0.117,0,0.213,0.225,0.213,0.5C298.47,94.03,298.374,94.252,298.257,94.252z"/>
</g>
<g>
	<line fill="#FFFFFF" x1="303.991" y1="88.209" x2="294.427" y2="88.209"/>
	<path fill="#1D1D1B" d="M303.991,88.709h-9.564c-0.117,0-0.213-0.225-0.213-0.5c0-0.277,0.096-0.5,0.213-0.5h9.564
		c0.117,0,0.213,0.223,0.213,0.5C304.204,88.485,304.108,88.709,303.991,88.709z"/>
</g>
<g>
	<line fill="#FFFFFF" x1="300.442" y1="135.407" x2="290.876" y2="135.407"/>
	<path fill="#1D1D1B" d="M300.442,135.907h-9.566c-0.117,0-0.213-0.225-0.213-0.5c0-0.277,0.096-0.5,0.213-0.5h9.566
		c0.117,0,0.213,0.223,0.213,0.5C300.655,135.682,300.56,135.907,300.442,135.907z"/>
</g>
<path fill="#B883AE" d="M297.802,190.356c0,2.764-2.268,5.006-5.064,5.006h-55.705c-2.797,0-5.064-2.242-5.064-5.006v-41.154
	c0-2.764,2.268-5.004,5.064-5.004h55.705c2.797,0,5.064,2.24,5.064,5.004V190.356z"/>
<path fill="#FFFFFF" d="M292.948,186.901c0,2.541-1.934,4.604-4.318,4.604h-47.492c-2.383,0-4.316-2.063-4.316-4.604v-38.1
	c0-2.543,1.934-4.604,4.316-4.604h47.492c2.385,0,4.318,2.061,4.318,4.604V186.901z"/>
<path fill="#045B78" d="M297.802,153.893v-4.691c0-2.764-2.268-5.004-5.064-5.004h-55.705c-2.797,0-5.064,2.24-5.064,5.004v4.691
	H297.802z"/>
<ellipse fill="#FFFEFA" cx="249.481" cy="149.045" rx="1.846" ry="1.824"/>
<ellipse fill="#FFFEFA" cx="244.418" cy="149.045" rx="1.847" ry="1.824"/>
<ellipse fill="#FFFEFA" cx="239.354" cy="149.045" rx="1.847" ry="1.824"/>
<path fill="#FFFEFA" d="M256.103,149.045c0,1.006,0.826,1.824,1.846,1.824h33.496c1.02,0,1.848-0.818,1.848-1.824l0,0
	c0-1.008-0.828-1.824-1.848-1.824h-33.496C256.929,147.221,256.103,148.038,256.103,149.045L256.103,149.045z"/>
<path fill="#B883AE" d="M284.024,125.213c0,2.764-2.268,5.004-5.064,5.004h-55.705c-2.797,0-5.064-2.24-5.064-5.004V57.056
	c0-2.764,2.268-5.005,5.064-5.005h55.705c2.797,0,5.064,2.241,5.064,5.005V125.213z"/>
<path fill="#FFFFFF" d="M279.171,121.758c0,2.541-1.934,4.604-4.318,4.604H227.36c-2.383,0-4.316-2.063-4.316-4.604V56.655
	c0-2.544,1.934-4.604,4.316-4.604h47.492c2.385,0,4.318,2.061,4.318,4.604V121.758z"/>
<path fill="#045B78" d="M284.024,61.746v-4.69c0-2.764-2.268-5.005-5.064-5.005h-55.705c-2.797,0-5.064,2.241-5.064,5.005v4.69
	H284.024z"/>
<ellipse fill="#FFFEFA" cx="235.704" cy="56.899" rx="1.846" ry="1.823"/>
<ellipse fill="#FFFEFA" cx="230.641" cy="56.899" rx="1.847" ry="1.823"/>
<ellipse fill="#FFFEFA" cx="225.576" cy="56.899" rx="1.847" ry="1.823"/>
<path fill="#FFFEFA" d="M242.325,56.899c0,1.005,0.826,1.823,1.846,1.823h33.496c1.02,0,1.848-0.818,1.848-1.823l0,0
	c0-1.008-0.828-1.825-1.848-1.825h-33.496C243.151,55.074,242.325,55.892,242.325,56.899L242.325,56.899z"/>
<path fill="#B7343E" d="M75.833,92.656c0,2.763-2.267,5.005-5.064,5.005H5.063C2.267,97.662,0,95.419,0,92.656V24.499
	c0-2.764,2.267-5.005,5.063-5.005h65.706c2.797,0,5.064,2.241,5.064,5.005V92.656z"/>
<path fill="#FFFFFF" d="M70.98,89.201c0,2.541-1.933,4.604-4.318,4.604H9.17c-2.384,0-4.317-2.063-4.317-4.604V24.099
	c0-2.544,1.933-4.604,4.317-4.604h57.492c2.385,0,4.318,2.061,4.318,4.604V89.201z"/>
<path fill="#4C4040" d="M75.833,29.189v-4.69c0-2.764-2.267-5.005-5.064-5.005H5.063C2.267,19.494,0,21.735,0,24.499v4.69H75.833z"
	/>
<ellipse fill="#FFFEFA" cx="17.513" cy="24.343" rx="1.846" ry="1.823"/>
<ellipse fill="#FFFEFA" cx="12.449" cy="24.343" rx="1.846" ry="1.823"/>
<ellipse fill="#FFFEFA" cx="7.385" cy="24.343" rx="1.846" ry="1.823"/>
<path fill="#FFFEFA" d="M24.133,24.343c0,1.005,0.827,1.823,1.846,1.823h43.498c1.02,0,1.846-0.818,1.846-1.823l0,0
	c0-1.008-0.827-1.825-1.846-1.825H25.979C24.96,22.518,24.133,23.335,24.133,24.343L24.133,24.343z"/>
<path fill="#43D98E" d="M56.639,38.147c0,0.536-0.299,0.973-0.667,0.973H10.521c-0.369,0-0.667-0.437-0.667-0.973v-2.183
	c0-0.538,0.299-0.973,0.667-0.973h45.451c0.369,0,0.667,0.435,0.667,0.973V38.147z"/>
<path fill="#FF918C" d="M63.995,72.27c0,0.536-0.299,0.973-0.667,0.973H38.088c-0.369,0-0.667-0.437-0.667-0.973v-2.183
	c0-0.537,0.299-0.973,0.667-0.973h25.239c0.369,0,0.667,0.436,0.667,0.973V72.27z"/>
<path fill="#FFC250" d="M65.711,46.099c0,0.537-0.348,0.973-0.778,0.973H10.631c-0.43,0-0.778-0.436-0.778-0.973v-2.182
	c0-0.537,0.348-0.973,0.778-0.973h54.302c0.43,0,0.778,0.436,0.778,0.973V46.099z"/>
<path fill="#43D98E" d="M58.162,76.841H10.521c-0.369,0-0.667,0.436-0.667,0.973v2.183c0,0.537,0.299,0.973,0.667,0.973h47.641
	V76.841z"/>
<path fill="#045B78" d="M48.117,87.948c0,0.537-0.348,0.973-0.778,0.973H10.631c-0.43,0-0.778-0.436-0.778-0.973v-2.182
	c0-0.538,0.348-0.973,0.778-0.973h36.708c0.43,0,0.778,0.435,0.778,0.973V87.948z"/>
<path fill="#045B78" d="M271.519,70.635c0,0.552-0.299,1-0.668,1h-14.225c-0.369,0-0.668-0.448-0.668-1v-2.243
	c0-0.553,0.299-1,0.668-1h14.225c0.369,0,0.668,0.447,0.668,1V70.635z"/>
<path fill="#FF918C" d="M271.519,88.206c0,0.553-0.299,1-0.668,1h-14.225c-0.369,0-0.668-0.447-0.668-1v-2.243
	c0-0.553,0.299-1,0.668-1h14.225c0.369,0,0.668,0.447,0.668,1V88.206z"/>
<path fill="#43D98E" d="M271.519,79.421c0,0.551-0.35,1-0.779,1h-14.004c-0.43,0-0.777-0.449-0.777-1v-2.244
	c0-0.553,0.348-1,0.777-1h14.004c0.43,0,0.779,0.447,0.779,1V79.421z"/>
<path fill="#045B78" d="M57.662,55.177c0,0.537-0.299,0.973-0.667,0.973H38.088c-0.369,0-0.667-0.436-0.667-0.973v-2.182
	c0-0.538,0.299-0.973,0.667-0.973h18.906c0.369,0,0.667,0.435,0.667,0.973V55.177z"/>
<path fill="#43D98E" d="M65.711,63.724c0,0.535-0.348,0.973-0.778,0.973H38.199c-0.43,0-0.778-0.438-0.778-0.973V61.54
	c0-0.537,0.348-0.973,0.778-0.973h26.734c0.43,0,0.778,0.436,0.778,0.973V63.724z"/>
<path fill="#FF918C" d="M245.69,100.946c0,0.551-0.299,1-0.668,1h-14.225c-0.369,0-0.668-0.449-0.668-1v-2.244
	c0-0.553,0.299-1,0.668-1h14.225c0.369,0,0.668,0.447,0.668,1V100.946z"/>
<path fill="#FFC250" d="M245.69,118.516c0,0.553-0.299,1-0.668,1h-14.225c-0.369,0-0.668-0.447-0.668-1v-2.242
	c0-0.553,0.299-1,0.668-1h14.225c0.369,0,0.668,0.447,0.668,1V118.516z"/>
<path fill="#43D98E" d="M245.69,109.731c0,0.551-0.348,1-0.777,1h-14.006c-0.43,0-0.777-0.449-0.777-1v-2.244
	c0-0.553,0.348-1,0.777-1h14.006c0.43,0,0.777,0.447,0.777,1V109.731z"/>
<path fill="#FFC250" d="M230.13,70.392c0-1.65,1.35-3,3-3h15.197c1.65,0,3,1.35,3,3v15.814c0,1.65-1.35,3-3,3H233.13
	c-1.65,0-3-1.35-3-3V70.392z"/>
<path fill="#FF918C" d="M10.117,54.214c0-1.65,1.35-3,3-3h15.197c1.65,0,3,1.35,3,3v15.22c0,1.649-1.35,3-3,3H13.117
	c-1.65,0-3-1.351-3-3V54.214z"/>
<path fill="#FF918C" d="M244.483,162.958c0-1.65,1.352-3,3-3h34.803c1.65,0,3,1.35,3,3v18.766c0,1.648-1.35,3-3,3h-34.803
	c-1.648,0-3-1.352-3-3V162.958z"/>
<path fill="#045B78" d="M250.321,100.702c0-1.65,1.35-3,3-3h15.197c1.648,0,3,1.35,3,3v15.814c0,1.65-1.352,3-3,3h-15.197
	c-1.65,0-3-1.35-3-3V100.702z"/>
<g>
	<g>
		<path fill="#FFFFFF" d="M259.409,178.249c0,1.18,0.824,1.637,1.824,1.025l9.531-5.816c1.004-0.619,1.004-1.617,0-2.232
			l-9.531-5.818c-1-0.613-1.824-0.152-1.824,1.029V178.249z"/>
	</g>
</g>
</svg>
