<?xml version="1.0" encoding="utf-8"?>
<!-- Generator: Adobe Illustrator 16.0.0, SVG Export Plug-In . SVG Version: 6.00 Build 0)  -->
<!DOCTYPE svg PUBLIC "-//W3C//DTD SVG 1.1//EN" "http://www.w3.org/Graphics/SVG/1.1/DTD/svg11.dtd">
<svg version="1.1" xmlns="http://www.w3.org/2000/svg" xmlns:xlink="http://www.w3.org/1999/xlink" x="0px" y="0px"
	 width="774.254px" height="160.723px" viewBox="0 0 774.254 160.723" enable-background="new 0 0 774.254 160.723"
	 xml:space="preserve">
<g id="Layer_2" display="none">
	<rect x="-9.244" y="-19.863" display="inline" width="793.5" height="192"/>
</g>
<g id="Layer_1">
	<g display="none">
		<path display="inline" fill="none" d="M269.226,69.452h-0.072c-0.109,0.689-0.231,1.235-0.364,1.634l-3.578,10.389h7.973
			l-3.614-10.389C269.463,70.748,269.348,70.203,269.226,69.452z"/>
		<path display="inline" fill="none" d="M307.253,75.7c-1.21,0-2.236,0.44-3.077,1.325c-0.842,0.884-1.36,2.041-1.554,3.47h8.609
			c-0.012-1.515-0.37-2.691-1.072-3.533C309.458,76.12,308.489,75.7,307.253,75.7z"/>
		<path display="inline" fill="none" d="M625.364,74.609c-1.018,0-1.938,0.177-2.762,0.526c-0.823,0.354-1.528,0.863-2.116,1.535
			s-1.038,1.496-1.353,2.472c-0.315,0.975-0.473,2.077-0.473,3.313c0,1.162,0.157,2.21,0.473,3.142
			c0.314,0.934,0.76,1.732,1.334,2.399c0.575,0.665,1.275,1.176,2.099,1.534c0.822,0.355,1.742,0.535,2.76,0.535
			c1.041,0,1.962-0.172,2.761-0.518c0.799-0.344,1.478-0.848,2.034-1.508c0.556-0.658,0.978-1.467,1.263-2.425
			c0.283-0.955,0.426-2.045,0.426-3.269c0-2.506-0.556-4.421-1.67-5.747C629.024,75.273,627.433,74.609,625.364,74.609z"/>
		<path display="inline" fill="none" d="M610.183,76.516c-0.492-0.617-1.085-1.09-1.781-1.416c-0.695-0.328-1.474-0.491-2.334-0.491
			c-0.969,0-1.84,0.18-2.615,0.537c-0.773,0.357-1.434,0.844-1.979,1.461c-0.546,0.618-0.963,1.341-1.254,2.171
			s-0.436,1.711-0.436,2.643v2.47c0,0.849,0.143,1.644,0.428,2.388c0.284,0.744,0.681,1.397,1.188,1.962
			c0.509,0.563,1.124,1.008,1.845,1.335c0.719,0.326,1.515,0.49,2.387,0.49c0.933,0,1.772-0.197,2.524-0.59
			c0.751-0.394,1.39-0.953,1.917-1.681c0.526-0.727,0.933-1.604,1.215-2.632c0.285-1.029,0.429-2.182,0.429-3.451
			c0-1.091-0.134-2.073-0.401-2.953C611.051,77.881,610.672,77.133,610.183,76.516z"/>
		<path display="inline" fill="none" d="M723.143,74.609c-0.788,0-1.518,0.141-2.188,0.418c-0.673,0.279-1.264,0.681-1.771,1.208
			c-0.507,0.526-0.929,1.169-1.263,1.926c-0.333,0.757-0.565,1.606-0.698,2.551h10.987c-0.036-1.938-0.497-3.438-1.38-4.504
			C725.944,75.143,724.715,74.609,723.143,74.609z"/>
		<path display="inline" fill="none" d="M405.378,75.7c-1.211,0-2.237,0.44-3.078,1.325c-0.843,0.884-1.358,2.041-1.554,3.47h8.608
			c-0.013-1.515-0.369-2.691-1.072-3.533C407.58,76.12,406.612,75.7,405.378,75.7z"/>
		<path display="inline" fill="none" d="M488.502,75.7c-1.209,0-2.235,0.44-3.077,1.325c-0.842,0.884-1.359,2.041-1.553,3.47h8.608
			c-0.012-1.515-0.369-2.691-1.07-3.533C490.707,76.12,489.737,75.7,488.502,75.7z"/>
		<path display="inline" fill="none" d="M459.775,75.954c-1.646,0-2.947,0.576-3.904,1.725c-0.958,1.151-1.435,2.736-1.435,4.759
			c0,1.95,0.484,3.484,1.453,4.604c0.969,1.12,2.263,1.681,3.886,1.681c1.659,0,2.935-0.551,3.823-1.653
			c0.889-1.101,1.334-2.671,1.334-4.703c0-2.046-0.445-3.627-1.334-4.74S461.435,75.954,459.775,75.954z"/>
		<path display="inline" fill="#FFFFFF" d="M266.866,65.583l-9.752,26.043h4.722l2.251-6.629h10.243l2.343,6.629h4.739
			l-9.679-26.043H266.866z M265.213,81.475l3.578-10.389c0.133-0.399,0.254-0.945,0.364-1.634h0.072
			c0.122,0.75,0.237,1.296,0.346,1.634l3.614,10.389H265.213z"/>
		<path display="inline" fill="#FFFFFF" d="M284.826,75.382c-1.822,1.856-2.733,4.318-2.733,7.382c0,2.749,0.847,4.985,2.542,6.711
			c1.695,1.726,3.923,2.588,6.683,2.588c2.034,0,3.796-0.43,5.285-1.291v-3.667c-1.344,1.076-2.772,1.616-4.286,1.616
			c-1.805,0-3.242-0.557-4.313-1.67c-1.072-1.114-1.607-2.635-1.607-4.559c0-1.95,0.569-3.527,1.707-4.732
			c1.138-1.203,2.597-1.807,4.377-1.807c1.465,0,2.846,0.483,4.141,1.452v-3.923c-1.295-0.591-2.791-0.891-4.487-0.891
			C289.085,72.592,286.647,73.523,284.826,75.382z"/>
		<path display="inline" fill="#FFFFFF" d="M307.308,72.592c-2.542,0-4.671,0.913-6.383,2.734c-1.714,1.822-2.57,4.18-2.57,7.072
			c0,3.064,0.777,5.441,2.333,7.131c1.556,1.688,3.702,2.533,6.438,2.533c2.784,0,5.024-0.532,6.719-1.598v-3.397
			c-1.659,1.188-3.481,1.78-5.467,1.78c-1.768,0-3.157-0.466-4.168-1.399c-1.011-0.932-1.541-2.258-1.589-3.977H315.3v-1.616
			c0-2.905-0.697-5.176-2.089-6.811C311.818,73.412,309.851,72.592,307.308,72.592z M302.622,80.495
			c0.193-1.429,0.712-2.586,1.554-3.47c0.841-0.885,1.867-1.325,3.077-1.325c1.236,0,2.205,0.42,2.906,1.262
			c0.702,0.842,1.06,2.019,1.072,3.533H302.622z"/>
		<rect x="327.083" y="73.029" display="inline" fill="#FFFFFF" width="4.212" height="18.598"/>
		<path display="inline" fill="#FFFFFF" d="M329.208,64.33c-0.691,0-1.282,0.231-1.772,0.69c-0.49,0.46-0.735,1.035-0.735,1.725
			c0,0.691,0.245,1.26,0.735,1.708c0.491,0.447,1.081,0.671,1.772,0.671c0.714,0,1.318-0.232,1.815-0.699
			c0.497-0.465,0.743-1.026,0.743-1.68c0-0.689-0.247-1.265-0.743-1.725C330.527,64.561,329.922,64.33,329.208,64.33z"/>
		<path display="inline" fill="#FFFFFF" d="M345.905,72.592c-2.628,0-4.637,1.176-6.03,3.525h-0.071v-3.089h-4.231v18.598h4.231
			V81.021c0-1.466,0.417-2.678,1.253-3.641c0.835-0.964,1.895-1.444,3.179-1.444c2.457,0,3.686,1.736,3.686,5.211v10.479h4.212
			V80.258c0-2.481-0.529-4.38-1.597-5.695C349.473,73.251,347.928,72.592,345.905,72.592z"/>
		<path display="inline" fill="#FFFFFF" d="M370.402,67.526l-4.214,1.199v4.304h-3.104v3.306h3.104V86.85
			c0,3.463,1.805,5.195,5.411,5.195c1.346,0,2.429-0.207,3.252-0.619v-3.34c-0.521,0.41-1.137,0.617-1.853,0.617
			c-0.932,0-1.598-0.236-1.996-0.708c-0.401-0.473-0.601-1.261-0.601-2.361v-9.3h4.449v-3.306h-4.449V67.526z"/>
		<path display="inline" fill="#FFFFFF" d="M387.591,72.592c-2.615,0-4.626,1.176-6.029,3.525h-0.073V64.094h-4.231v27.533h4.231
			V81.62c0-1.658,0.423-3.02,1.272-4.086c0.847-1.064,1.888-1.598,3.121-1.598c2.459,0,3.688,1.841,3.688,5.521v10.17h4.214v-11.46
			C393.783,75.118,391.719,72.592,387.591,72.592z"/>
		<path display="inline" fill="#FFFFFF" d="M405.433,72.592c-2.543,0-4.671,0.913-6.383,2.734c-1.715,1.822-2.571,4.18-2.571,7.072
			c0,3.064,0.779,5.441,2.333,7.131c1.557,1.688,3.702,2.533,6.438,2.533c2.784,0,5.023-0.532,6.721-1.598v-3.397
			c-1.659,1.188-3.481,1.78-5.467,1.78c-1.769,0-3.157-0.466-4.169-1.399c-1.011-0.932-1.54-2.258-1.589-3.977h12.678v-1.616
			c0-2.905-0.696-5.176-2.09-6.811C409.941,73.412,407.974,72.592,405.433,72.592z M400.746,80.495
			c0.195-1.429,0.711-2.586,1.554-3.47c0.841-0.885,1.867-1.325,3.078-1.325c1.234,0,2.202,0.42,2.904,1.262
			c0.703,0.842,1.06,2.019,1.072,3.533H400.746z"/>
		<polygon display="inline" fill="#FFFFFF" points="442.261,76.535 430,76.535 430,65.583 425.679,65.583 425.679,91.626 
			430,91.626 430,80.331 442.261,80.331 442.261,91.626 446.6,91.626 446.6,65.583 442.261,65.583 		"/>
		<path display="inline" fill="#FFFFFF" d="M460.028,72.592c-3.025,0-5.433,0.88-7.219,2.635s-2.679,4.195-2.679,7.318
			c0,2.87,0.857,5.174,2.57,6.911c1.714,1.737,4.006,2.606,6.874,2.606c2.954,0,5.307-0.894,7.057-2.68
			c1.748-1.786,2.624-4.16,2.624-7.127c0-3.027-0.812-5.396-2.435-7.102C465.199,73.448,462.935,72.592,460.028,72.592z
			 M463.599,87.068c-0.889,1.103-2.164,1.653-3.823,1.653c-1.623,0-2.917-0.561-3.886-1.681c-0.969-1.119-1.453-2.653-1.453-4.604
			c0-2.022,0.477-3.607,1.435-4.759c0.957-1.148,2.258-1.725,3.904-1.725c1.659,0,2.935,0.558,3.823,1.671s1.334,2.694,1.334,4.74
			C464.933,84.397,464.487,85.967,463.599,87.068z"/>
		<rect x="472.314" y="64.094" display="inline" fill="#FFFFFF" width="4.231" height="27.533"/>
		<path display="inline" fill="#FFFFFF" d="M488.558,72.592c-2.542,0-4.671,0.913-6.384,2.734c-1.714,1.822-2.569,4.18-2.569,7.072
			c0,3.064,0.777,5.441,2.333,7.131c1.556,1.688,3.702,2.533,6.438,2.533c2.785,0,5.024-0.532,6.721-1.598v-3.397
			c-1.659,1.188-3.482,1.78-5.468,1.78c-1.768,0-3.157-0.466-4.168-1.399c-1.011-0.932-1.539-2.258-1.589-3.977h12.677v-1.616
			c0-2.905-0.696-5.176-2.09-6.811C493.067,73.412,491.1,72.592,488.558,72.592z M483.872,80.495
			c0.193-1.429,0.711-2.586,1.553-3.47c0.842-0.885,1.868-1.325,3.077-1.325c1.235,0,2.205,0.42,2.908,1.262
			c0.701,0.842,1.059,2.019,1.07,3.533H483.872z"/>
		<path display="inline" fill="#FFFFFF" d="M522.771,85.179c-0.206,0.461-0.379,0.89-0.519,1.289
			c-0.139,0.401-0.294,0.842-0.463,1.326h-0.108c-0.146-0.484-0.306-0.941-0.481-1.37c-0.176-0.432-0.355-0.851-0.536-1.262
			l-8.845-19.579h-2.851v26.043h2.36V73.448c0-0.872-0.009-1.666-0.025-2.38c-0.02-0.714-0.054-1.35-0.101-1.906h0.071
			c0.279,1.102,0.551,1.955,0.817,2.56l9.1,19.905h1.035l9.08-20.032c0.121-0.253,0.251-0.582,0.391-0.98
			c0.14-0.399,0.293-0.872,0.464-1.417h0.071c-0.144,2.046-0.218,3.529-0.218,4.45v17.979h2.379V65.583h-2.705L522.771,85.179z"/>
		<path display="inline" fill="#FFFFFF" d="M551.71,83.654c0,0.958-0.133,1.828-0.398,2.615c-0.268,0.788-0.64,1.462-1.118,2.025
			c-0.479,0.563-1.048,0.999-1.706,1.308c-0.661,0.309-1.391,0.463-2.188,0.463c-1.637,0-2.85-0.532-3.642-1.598
			c-0.794-1.065-1.19-2.712-1.19-4.941V73.029h-2.324v10.934c0,5.401,2.209,8.101,6.628,8.101c2.652,0,4.606-1.199,5.867-3.596
			h0.072v3.159h2.325V73.029h-2.325V83.654z"/>
		<rect x="558.801" y="64.094" display="inline" fill="#FFFFFF" width="2.324" height="27.533"/>
		<path display="inline" fill="#FFFFFF" d="M569.088,67.581l-2.326,0.762v4.686h-3.268v2.036h3.268v11.749
			c0,3.463,1.503,5.195,4.505,5.195c0.944,0,1.815-0.2,2.616-0.6v-2.054c-0.667,0.437-1.363,0.654-2.09,0.654
			c-0.979,0-1.677-0.278-2.089-0.835c-0.413-0.558-0.616-1.465-0.616-2.724V75.065h4.795v-2.036h-4.795V67.581z"/>
		<path display="inline" fill="#FFFFFF" d="M578.82,65.475c-0.152-0.146-0.33-0.257-0.534-0.336
			c-0.207-0.078-0.425-0.118-0.654-0.118c-0.45,0-0.837,0.155-1.164,0.462c-0.326,0.31-0.489,0.7-0.489,1.172
			c0,0.484,0.163,0.884,0.489,1.199c0.327,0.314,0.714,0.472,1.164,0.472c0.24,0,0.462-0.043,0.661-0.127
			c0.201-0.085,0.379-0.203,0.537-0.354c0.155-0.151,0.278-0.329,0.362-0.535c0.085-0.207,0.127-0.424,0.127-0.654
			c0-0.243-0.046-0.463-0.137-0.663S578.971,65.619,578.82,65.475z"/>
		<rect x="576.486" y="73.029" display="inline" fill="#FFFFFF" width="2.325" height="18.598"/>
		<path display="inline" fill="#FFFFFF" d="M592.804,83.626c-0.424-0.418-0.964-0.804-1.618-1.161
			c-0.653-0.357-1.428-0.719-2.324-1.082c-0.702-0.29-1.297-0.563-1.789-0.818c-0.49-0.252-0.89-0.519-1.198-0.798
			c-0.308-0.277-0.535-0.591-0.681-0.936c-0.146-0.345-0.219-0.747-0.219-1.207c0-0.448,0.095-0.856,0.282-1.228
			c0.188-0.367,0.451-0.685,0.79-0.952c0.339-0.267,0.747-0.471,1.226-0.616c0.479-0.146,1.008-0.22,1.589-0.22
			c1.61,0,3.112,0.449,4.503,1.345v-2.451c-1.198-0.606-2.602-0.91-4.212-0.91c-0.872,0-1.704,0.119-2.497,0.355
			c-0.793,0.237-1.492,0.578-2.098,1.026c-0.606,0.447-1.088,0.992-1.444,1.635c-0.357,0.642-0.535,1.373-0.535,2.197
			c0,0.653,0.096,1.238,0.291,1.752c0.193,0.516,0.49,0.986,0.89,1.418c0.399,0.429,0.908,0.825,1.524,1.188
			c0.619,0.364,1.356,0.722,2.217,1.071c0.642,0.268,1.216,0.521,1.725,0.763c0.51,0.242,0.945,0.505,1.308,0.79
			c0.363,0.286,0.642,0.599,0.836,0.944c0.194,0.345,0.29,0.754,0.29,1.227c0,2.07-1.38,3.105-4.142,3.105
			c-0.397,0-0.818-0.038-1.26-0.118c-0.444-0.079-0.881-0.196-1.317-0.354c-0.438-0.157-0.86-0.345-1.272-0.563
			c-0.411-0.218-0.792-0.467-1.144-0.744v2.598c1.283,0.786,2.863,1.18,4.74,1.18c0.968,0,1.865-0.116,2.688-0.347
			c0.823-0.229,1.54-0.568,2.152-1.015c0.612-0.448,1.09-1,1.436-1.653c0.345-0.654,0.517-1.398,0.517-2.234
			c0-0.678-0.104-1.273-0.308-1.789C593.541,84.511,593.226,84.045,592.804,83.626z"/>
		<path display="inline" fill="#FFFFFF" d="M612.106,75.065c-0.647-0.789-1.44-1.396-2.378-1.827
			c-0.939-0.429-2.001-0.646-3.188-0.646c-1.453,0-2.759,0.344-3.914,1.026c-1.157,0.686-2.078,1.676-2.77,2.971h-0.072v-3.561
			h-2.324v27.151h2.324V88.631h0.072c1.295,2.287,3.25,3.432,5.866,3.432c1.296,0,2.462-0.252,3.496-0.754
			c1.036-0.501,1.916-1.208,2.643-2.117c0.728-0.906,1.283-1.992,1.672-3.26c0.387-1.264,0.58-2.665,0.58-4.202
			c0-1.405-0.173-2.671-0.518-3.798C613.25,76.808,612.754,75.85,612.106,75.065z M611.288,85.163
			c-0.282,1.028-0.688,1.905-1.215,2.632c-0.527,0.728-1.166,1.287-1.917,1.681c-0.752,0.393-1.592,0.59-2.524,0.59
			c-0.872,0-1.668-0.164-2.387-0.49c-0.721-0.327-1.336-0.772-1.845-1.335c-0.508-0.564-0.904-1.218-1.188-1.962
			c-0.285-0.744-0.428-1.539-0.428-2.388v-2.47c0-0.932,0.145-1.813,0.436-2.643s0.708-1.553,1.254-2.171
			c0.545-0.617,1.205-1.104,1.979-1.461c0.775-0.357,1.646-0.537,2.615-0.537c0.86,0,1.639,0.163,2.334,0.491
			c0.696,0.326,1.289,0.799,1.781,1.416c0.489,0.617,0.868,1.365,1.133,2.242c0.268,0.88,0.401,1.862,0.401,2.953
			C611.717,82.981,611.573,84.133,611.288,85.163z"/>
		<path display="inline" fill="#FFFFFF" d="M631.883,75.173c-0.751-0.837-1.665-1.475-2.742-1.917
			c-1.078-0.442-2.288-0.664-3.633-0.664c-1.404,0-2.676,0.226-3.813,0.673c-1.14,0.448-2.111,1.1-2.915,1.952
			c-0.806,0.855-1.427,1.893-1.861,3.115c-0.437,1.223-0.654,2.609-0.654,4.16c0,1.429,0.205,2.73,0.616,3.903
			c0.412,1.175,1.006,2.182,1.78,3.023s1.711,1.493,2.806,1.953c1.096,0.46,2.335,0.69,3.715,0.69c1.404,0,2.663-0.237,3.778-0.708
			c1.113-0.472,2.059-1.139,2.832-1.999c0.774-0.859,1.371-1.885,1.788-3.078c0.419-1.192,0.628-2.516,0.628-3.967
			c0-1.525-0.2-2.889-0.6-4.087C633.209,77.025,632.633,76.008,631.883,75.173z M631.384,85.615
			c-0.285,0.958-0.707,1.767-1.263,2.425c-0.557,0.66-1.235,1.164-2.034,1.508c-0.799,0.346-1.72,0.518-2.761,0.518
			c-1.018,0-1.938-0.18-2.76-0.535c-0.823-0.358-1.523-0.869-2.099-1.534c-0.574-0.667-1.02-1.466-1.334-2.399
			c-0.315-0.932-0.473-1.979-0.473-3.142c0-1.235,0.157-2.338,0.473-3.313c0.314-0.976,0.765-1.8,1.353-2.472
			s1.293-1.182,2.116-1.535c0.823-0.35,1.744-0.526,2.762-0.526c2.068,0,3.66,0.664,4.775,1.99c1.114,1.326,1.67,3.241,1.67,5.747
			C631.81,83.57,631.667,84.66,631.384,85.615z"/>
		<path display="inline" fill="#FFFFFF" d="M652.239,67.581l-2.326,0.762v4.686h-3.021v-0.053c-0.243-0.098-0.512-0.17-0.808-0.219
			c-0.298-0.048-0.635-0.073-1.008-0.073c-0.569,0-1.111,0.096-1.626,0.292c-0.515,0.194-0.99,0.474-1.425,0.844
			c-0.437,0.368-0.821,0.823-1.153,1.361c-0.334,0.539-0.608,1.147-0.827,1.826h-0.073v-3.979h-2.306v18.598h2.306v-9.098
			c0-0.521,0.033-1.072,0.101-1.653c0.066-0.582,0.176-1.156,0.327-1.727c0.151-0.568,0.351-1.115,0.6-1.643
			c0.248-0.526,0.55-0.99,0.907-1.389c0.357-0.4,0.772-0.718,1.245-0.954c0.473-0.237,1.015-0.354,1.634-0.354
			c0.859,0,1.562,0.198,2.106,0.6v-0.345h3.021v11.749c0,3.463,1.503,5.195,4.506,5.195c0.943,0,1.815-0.2,2.615-0.6v-2.054
			c-0.666,0.437-1.363,0.654-2.089,0.654c-0.98,0-1.678-0.278-2.09-0.835c-0.411-0.558-0.616-1.465-0.616-2.724V75.065h4.795v-2.036
			h-4.795V67.581z"/>
		<path display="inline" fill="#FFFFFF" d="M668.865,83.626c-0.424-0.418-0.964-0.804-1.618-1.161
			c-0.653-0.357-1.429-0.719-2.323-1.082c-0.703-0.29-1.3-0.563-1.789-0.818c-0.491-0.252-0.892-0.519-1.198-0.798
			c-0.31-0.277-0.537-0.591-0.682-0.936c-0.146-0.345-0.219-0.747-0.219-1.207c0-0.448,0.095-0.856,0.281-1.228
			c0.188-0.367,0.452-0.685,0.79-0.952c0.339-0.267,0.748-0.471,1.227-0.616c0.479-0.146,1.008-0.22,1.59-0.22
			c1.609,0,3.112,0.449,4.503,1.345v-2.451c-1.199-0.606-2.604-0.91-4.212-0.91c-0.873,0-1.704,0.119-2.498,0.355
			c-0.793,0.237-1.492,0.578-2.099,1.026c-0.605,0.447-1.086,0.992-1.443,1.635c-0.356,0.642-0.535,1.373-0.535,2.197
			c0,0.653,0.097,1.238,0.29,1.752c0.194,0.516,0.491,0.986,0.89,1.418c0.399,0.429,0.909,0.825,1.526,1.188
			c0.618,0.364,1.355,0.722,2.216,1.071c0.642,0.268,1.217,0.521,1.725,0.763c0.51,0.242,0.945,0.505,1.308,0.79
			c0.363,0.286,0.642,0.599,0.836,0.944c0.193,0.345,0.291,0.754,0.291,1.227c0,2.07-1.381,3.105-4.142,3.105
			c-0.399,0-0.819-0.038-1.263-0.118c-0.441-0.079-0.879-0.196-1.316-0.354c-0.436-0.157-0.859-0.345-1.271-0.563
			s-0.793-0.467-1.143-0.744v2.598c1.281,0.786,2.862,1.18,4.739,1.18c0.969,0,1.863-0.116,2.687-0.347
			c0.825-0.229,1.542-0.568,2.153-1.015c0.612-0.448,1.091-1,1.436-1.653c0.345-0.654,0.518-1.398,0.518-2.234
			c0-0.678-0.104-1.273-0.309-1.789C669.603,84.511,669.287,84.045,668.865,83.626z"/>
		<polygon display="inline" fill="#FFFFFF" points="685.278,79.532 694.795,79.532 694.795,77.353 685.278,77.353 685.278,67.799 
			695.559,67.799 695.559,65.583 682.863,65.583 682.863,91.626 696.14,91.626 696.14,89.428 685.278,89.428 		"/>
		<path display="inline" fill="#FFFFFF" d="M706.19,87.268c-0.229,0.594-0.418,1.325-0.563,2.197h-0.073
			c-0.086-0.653-0.285-1.409-0.6-2.271l-5.14-14.166h-2.562l7.119,18.598h2.217L714,73.029h-2.488L706.19,87.268z"/>
		<path display="inline" fill="#FFFFFF" d="M728.691,75.008c-0.625-0.774-1.396-1.37-2.316-1.788
			c-0.921-0.418-1.979-0.628-3.179-0.628c-1.222,0-2.349,0.247-3.378,0.735c-1.029,0.492-1.919,1.171-2.67,2.035
			c-0.75,0.865-1.338,1.892-1.762,3.078c-0.423,1.188-0.635,2.478-0.635,3.87c0,1.55,0.194,2.928,0.58,4.141
			c0.389,1.209,0.939,2.23,1.653,3.059c0.715,0.83,1.581,1.463,2.597,1.899c1.018,0.435,2.149,0.653,3.397,0.653
			c2.53,0,4.684-0.637,6.465-1.907v-2.288c-1.864,1.466-3.845,2.197-5.938,2.197c-0.981,0-1.862-0.166-2.644-0.5
			c-0.78-0.332-1.443-0.813-1.988-1.444c-0.543-0.629-0.961-1.397-1.253-2.306c-0.291-0.907-0.442-1.932-0.455-3.07h13.44v-1.161
			c0-1.381-0.164-2.627-0.489-3.742C729.789,76.728,729.313,75.783,728.691,75.008z M717.222,80.711
			c0.133-0.944,0.365-1.794,0.698-2.551c0.334-0.757,0.756-1.399,1.263-1.926c0.508-0.527,1.099-0.929,1.771-1.208
			c0.671-0.277,1.4-0.418,2.188-0.418c1.572,0,2.802,0.534,3.687,1.599c0.883,1.066,1.344,2.566,1.38,4.504H717.222z"/>
		<path display="inline" fill="#FFFFFF" d="M742.563,72.592c-2.772,0-4.848,1.226-6.229,3.67h-0.073v-3.233h-2.324v18.598h2.324
			V80.983c0-0.906,0.143-1.751,0.428-2.531c0.282-0.781,0.678-1.456,1.18-2.026c0.504-0.568,1.099-1.014,1.789-1.335
			c0.69-0.32,1.44-0.481,2.252-0.481c3.052,0,4.577,2.102,4.577,6.302v10.716h2.325V80.293c0-2.494-0.534-4.399-1.598-5.72
			C746.149,73.253,744.599,72.592,742.563,72.592z"/>
		<path display="inline" fill="#FFFFFF" d="M756.375,67.581l-2.325,0.762v4.686h-3.268v2.036h3.268v11.749
			c0,3.463,1.501,5.195,4.505,5.195c0.944,0,1.815-0.2,2.615-0.6v-2.054c-0.665,0.437-1.363,0.654-2.089,0.654
			c-0.98,0-1.678-0.278-2.088-0.835c-0.412-0.558-0.618-1.465-0.618-2.724V75.065h4.795v-2.036h-4.795V67.581z"/>
		<path display="inline" fill="#FFFFFF" d="M773.944,85.025c-0.205-0.514-0.52-0.979-0.944-1.398
			c-0.424-0.418-0.962-0.804-1.616-1.161c-0.653-0.357-1.429-0.719-2.323-1.082c-0.702-0.29-1.301-0.563-1.789-0.818
			c-0.491-0.252-0.891-0.519-1.199-0.798c-0.309-0.277-0.536-0.591-0.681-0.936c-0.146-0.345-0.218-0.747-0.218-1.207
			c0-0.448,0.092-0.856,0.28-1.228c0.188-0.367,0.451-0.685,0.789-0.952c0.341-0.267,0.749-0.471,1.228-0.616
			c0.478-0.146,1.009-0.22,1.59-0.22c1.609,0,3.11,0.449,4.502,1.345v-2.451c-1.198-0.606-2.604-0.91-4.212-0.91
			c-0.871,0-1.705,0.119-2.497,0.355c-0.793,0.237-1.493,0.578-2.098,1.026c-0.605,0.447-1.088,0.992-1.444,1.635
			c-0.356,0.642-0.535,1.373-0.535,2.197c0,0.653,0.096,1.238,0.289,1.752c0.195,0.516,0.492,0.986,0.891,1.418
			c0.399,0.429,0.909,0.825,1.525,1.188c0.619,0.364,1.356,0.722,2.216,1.071c0.643,0.268,1.217,0.521,1.726,0.763
			c0.51,0.242,0.945,0.505,1.308,0.79c0.363,0.286,0.641,0.599,0.834,0.944c0.194,0.345,0.291,0.754,0.291,1.227
			c0,2.07-1.379,3.105-4.141,3.105c-0.399,0-0.819-0.038-1.263-0.118c-0.44-0.079-0.88-0.196-1.315-0.354
			c-0.436-0.157-0.859-0.345-1.271-0.563c-0.411-0.218-0.793-0.467-1.145-0.744v2.598c1.283,0.786,2.862,1.18,4.74,1.18
			c0.969,0,1.864-0.116,2.688-0.347c0.824-0.229,1.542-0.568,2.152-1.015c0.612-0.448,1.091-1,1.436-1.653
			c0.344-0.654,0.518-1.398,0.518-2.234C774.254,86.136,774.15,85.541,773.944,85.025z"/>
	</g>
	<g display="none">
	</g>
	<g>
		<g>
			<path fill="#FFFFFF" d="M51.821,21.972c0.078,7.631-3.768,14.041-5.43,20.54h4.438c0.479-1.628,1.103-3.313,1.761-5.09
				c1.2-3.236,2.514-6.781,3.141-10.685l6.807,4.163l-2.955-10.507c-0.28-0.995-0.768-1.744-1.277-2.307
				c0.295-0.639,0.56-1.438,0.673-2.416c0.178-1.549-0.132-2.964-0.357-3.995c-0.05-0.229-0.115-0.526-0.146-0.707
				c0.14-0.928,0.388-1.893,0.649-2.912c0.152-0.593,0.31-1.207,0.455-1.842c0.658-0.115,1.325-0.349,2.018-0.709l0.905-0.472
				l0.351-0.488c0.042,0.008,0.084,0.018,0.125,0.03l0.246,4.75l5.268-1.644c0.64-0.2,1.194-0.302,1.646-0.302
				c0.56,0,0.967,0.147,1.653,0.561c0.291,0.633,0.73,1.236,1.341,1.768c0.403,1.805,0.285,3.288,0.161,4.841
				c-0.271,3.386-0.641,8.022,6.104,11.503c0.967,0.499,2.042,0.741,3.287,0.741c0.096,0,0.192-0.002,0.289-0.004
				c0.728,0.798,1.956,1.72,3.923,1.83c0.307,0.017,0.635,0.025,0.977,0.025c1.936,0,4.825-0.294,6.913-0.951
				c1.604-0.504,2.639-1.354,3.322-1.919c0.105-0.087,0.239-0.196,0.334-0.27c0.521-0.051,1.035-0.076,1.533-0.076
				c3.162,0,5.952,1.024,8.53,3.134l0.585,0.479l0.714,0.25c1.149,0.401,2.371,0.604,3.631,0.604c2.02,0,3.829-0.508,5.426-0.957
				c1.202-0.339,2.338-0.658,3.274-0.67c0.238,0.026,0.86,0.232,1.274,0.37c1.115,0.371,2.504,0.832,4.086,0.832
				c0.228,0,0.456-0.011,0.678-0.029c3.714-0.32,7.188-1.27,10.547-2.188c2.934-0.802,5.704-1.56,8.438-1.851
				c0.29-0.031,0.667-0.047,1.121-0.047c0.719,0,1.553,0.039,2.358,0.077c0.869,0.04,1.766,0.083,2.618,0.083
				c0.385,0,0.732-0.009,1.062-0.026c1.298-0.068,2.466-0.26,3.497-0.43c0.986-0.162,1.837-0.302,2.574-0.302h0.038
				c3.637,0.028,7.332,0.613,11.244,1.233c2.629,0.418,5.347,0.848,8.042,1.091c0.775,0.07,1.546,0.141,2.313,0.211
				c5.357,0.49,10.453,0.957,16.077,1.093c1.166,1.76,2.344,3.129,3.61,4.551c0.755,0.85,1.563,1.508,2.213,2.037
				c0.33,0.27,0.804,0.655,1.015,0.885c-0.095,0.787-1.473,2.832-2.233,3.961c-0.503,0.747-1.046,1.563-1.577,2.423h5.108
				c1.713-2.544,3.267-4.841,2.944-7.113c-0.336-2.35-2.667-3.234-4.271-5.038c-1.541-1.729-2.956-3.377-4.378-5.95
				c-7.253-0.046-13.679-0.715-20.439-1.323c-6.396-0.578-13.054-2.291-19.636-2.342c-0.024,0-0.047,0-0.071,0
				c-2.034,0-4.017,0.616-6.297,0.737c-0.264,0.014-0.545,0.02-0.836,0.02c-1.524,0-3.361-0.159-4.977-0.159
				c-0.559,0-1.09,0.019-1.574,0.069c-6.36,0.68-12.453,3.475-18.9,4.031c-0.102,0.009-0.206,0.013-0.309,0.013
				c-1.76,0-3.667-1.201-5.336-1.201c-0.007,0-0.016,0-0.023,0c-3.028,0.021-5.826,1.628-8.702,1.628
				c-0.733,0-1.47-0.105-2.218-0.366c-3.208-2.625-6.906-4.102-11.241-4.102c-0.693,0-1.402,0.037-2.129,0.114
				c-2.049,0.218-2.52,1.775-4.342,2.346c-1.46,0.46-3.843,0.757-5.631,0.757c-0.26,0-0.507-0.008-0.737-0.02
				c-1.315-0.074-1.161-1.188-2.031-1.61c-0.428-0.207-0.877-0.253-1.329-0.253c-0.364,0-0.731,0.029-1.092,0.029
				c-0.457,0-0.903-0.048-1.325-0.265c-7.051-3.639-1.822-7.122-4.52-15.153c-0.109-0.329-1.643-0.473-1.119-1.716
				c-1.643-1.034-3.119-2.278-5.583-2.278c-0.844,0-1.802,0.145-2.923,0.496c-0.1-1.927-2.364-3.344-4.514-3.344
				c-1.19,0-2.345,0.434-3.08,1.456c-0.418,0.217-0.735,0.307-0.98,0.307C57.478,2.014,57.913,0,56.751,0
				c-0.245,0-0.562,0.09-0.98,0.307c0.479,3.725-1.109,6.812-1.573,10.326c-0.152,1.15,0.707,2.97,0.526,4.549
				c-0.227,1.963-1.649,2.198-1.4,3.851c0.197,1.298,1.807,1.343,2.137,2.52c-0.642-0.394-1.185-0.594-1.694-0.594
				C53.11,20.959,52.509,21.291,51.821,21.972z"/>
			<path fill="#FFFFFF" d="M186.213,123.75c-0.205,1.811-0.426,3.621-0.644,5.398c-0.424,3.465-0.859,7.012-1.167,10.541
				c-41.463-3.127-82.292-9.408-121.824-15.49l-2.449-0.377c-0.655-0.102-1.212-0.229-1.68-0.34H31.402
				c8.104,2.479,16.744,2.289,25.236,3.977c0.557,0.111,1.514,0.391,2.835,0.596c41.331,6.357,84.925,13.137,128.899,16.219
				c0.343-6.715,1.376-13.621,2.146-20.523H186.213z"/>
		</g>
		<path fill="#FFFFFF" d="M70.396,45.724H4.151C1.862,45.724,0,47.587,0,49.875v66.245c0,2.289,1.862,4.15,4.151,4.15h66.245
			c2.289,0,4.151-1.861,4.151-4.15V49.875C74.547,47.587,72.685,45.724,70.396,45.724z M48.008,62.841
			c3.176,0,5.751,2.947,5.751,6.584s-2.575,6.585-5.751,6.585c-3.175,0-5.75-2.949-5.75-6.585S44.833,62.841,48.008,62.841z
			 M40.607,99.682c0,0-19.07-11.447-37.177,1.379c2.509-3.848,10.274-13.973,23.185-15.201c0.602-0.576,1.217-1.193,1.804-1.824
			c0.979-1.055,3.649-3.332,4.132-3.936c1.771-2.213-1.377-7.477-3.05-9.149c-1.673-1.673-3.3-3.187-7.33-3.615
			c-5.429-0.579-9.592,0.073-9.592,0.073s6.27-3.462,12.322-3.321c5.603,0.131,8.701,2.387,10.035,3.395
			c2.776,2.097,4.096,5.276,6.863,7.157c2.767,1.883,3.442,1.721,5.514,3.531c2.07,1.811,1.864,6.85-0.005,8.619
			c-0.937,0.887-2.201,1.859-3.229,2.607c0.123,0.057,0.244,0.111,0.366,0.172c0,0,17.158,5.732,26.579-11.906
			C71.024,77.663,69.982,109.211,40.607,99.682z"/>
		<g>
			
				<ellipse transform="matrix(0.4086 -0.9127 0.9127 0.4086 -26.109 149.106)" fill="#FFFFFF" cx="102.007" cy="94.701" rx="11.801" ry="11.109"/>
			
				<ellipse transform="matrix(0.4086 -0.9127 0.9127 0.4086 -3.3311 184.2603)" fill="#FFFFFF" cx="140.524" cy="94.701" rx="11.801" ry="11.109"/>
			<path fill="#FFFFFF" d="M153.255,45.724H87.011c-2.289,0-4.151,1.863-4.151,4.151v66.245c0,2.289,1.862,4.15,4.151,4.15h66.244
				c2.29,0,4.152-1.861,4.152-4.15V49.875C157.407,47.587,155.545,45.724,153.255,45.724z M130.714,56.008
				c2.879,0,5.212,2.627,5.212,5.868c0,3.24-2.333,5.867-5.212,5.867c-2.878,0-5.212-2.627-5.212-5.867
				C125.502,58.635,127.836,56.008,130.714,56.008z M114.214,101.668c-3.511,7.846-12.344,11.523-19.728,8.217
				c-7.383-3.305-10.521-12.344-7.01-20.188s12.344-11.521,19.728-8.217C114.588,84.786,117.726,93.825,114.214,101.668z
				 M118.462,91.657c-0.117-1.807-0.514-4.084-0.73-4.85c-0.656-2.316-1.692-3.967-3.166-5.043
				c-1.081-0.789-2.337-1.289-3.637-1.771c-0.467-0.174-0.952-0.318-1.465-0.473c-1.52-0.453-3.092-0.92-4.232-2.182
				c-0.805-0.889-1.171-1.984-1.061-3.168c0.197-2.105,1.536-3.577,2.849-4.573c0.615-0.466,3.522-2.048,6.558-3.145
				c3.048-1.102,6.224-1.715,7.105-1.715c1.776,0,3.179,0.59,4.357,1.537c3.091,2.486,1.474,8.686,3.705,9.768
				s3.747-0.4,6.959-0.178c3.211,0.223,4.996,2.408,4.996,2.408s-3.391-0.58-6.691,0.668c-4.088,1.549-6.479,2.512-9.089,0.594
				c-2.609-1.92-2.104-6.94-4.45-8.7c-0.267-0.201-6.891,2.709-6.958,3.043c-0.317,1.588,2.035,2.834,2.654,3.123
				c2.017,0.941,5.309,2.832,5.944,8.018c0.636,5.188-3.406,11.635-3.406,11.635S118.579,93.463,118.462,91.657z M152.73,101.668
				c-3.512,7.846-12.344,11.523-19.727,8.217c-7.383-3.305-10.522-12.344-7.01-20.188s12.344-11.521,19.728-8.217
				C153.105,84.786,156.243,93.825,152.73,101.668z"/>
		</g>
		<path fill="#FFFFFF" d="M236.086,45.991h-66.244c-2.142,0-3.884,1.742-3.884,3.884v66.245c0,2.141,1.742,3.885,3.884,3.885h66.244
			c2.142,0,3.885-1.744,3.885-3.885V49.875C239.971,47.733,238.228,45.991,236.086,45.991z M212.065,54.979
			c3.207-0.505,6.262,1.975,6.823,5.539c0.561,3.563-1.584,6.862-4.792,7.367c-3.208,0.504-6.263-1.976-6.824-5.539
			C206.712,58.782,208.858,55.484,212.065,54.979z M181.46,105.372c-12.239-2.691-11.016-17.502-11.016-17.502
			s2.203,7.955,8.935,8.201c6.73,0.244,14.443-4.896,18.114-12.729c3.672-7.834-3.182-15.422-8.078-11.383
			c-4.896,4.04-2.57,14.075-2.57,14.075c-11.383-10.402-3.795-25.458,10.159-23.377c13.953,2.081,15.422,11.137,20.93,16.157
			c5.507,5.018,14.075,1.346,14.075,1.346c-10.526,14.197-20.563,0.98-20.563,0.98s-3.306,5.018-2.326,6.486
			c22.888-2.814,26.193,22.889,26.193,22.889C212.671,80.159,193.699,108.065,181.46,105.372z"/>
	</g>
	<g>
		<path fill="#FFFFFF" d="M282.039,91.793h-4.674l-2.311-6.537h-10.101l-2.221,6.537h-4.656l9.618-25.683h4.8L282.039,91.793z
			 M273.925,81.782l-3.564-10.244c-0.107-0.334-0.221-0.872-0.34-1.612h-0.072c-0.107,0.681-0.227,1.218-0.358,1.612l-3.528,10.244
			H273.925z"/>
		<path fill="#FFFFFF" d="M297.019,90.952c-1.469,0.848-3.206,1.271-5.212,1.271c-2.722,0-4.919-0.85-6.591-2.551
			c-1.672-1.703-2.507-3.908-2.507-6.619c0-3.02,0.898-5.447,2.695-7.279c1.797-1.834,4.2-2.75,7.209-2.75
			c1.671,0,3.146,0.292,4.424,0.876v3.869c-1.278-0.955-2.639-1.432-4.083-1.432c-1.755,0-3.194,0.594-4.316,1.781
			c-1.123,1.188-1.684,2.744-1.684,4.666c0,1.898,0.528,3.396,1.585,4.494c1.057,1.1,2.475,1.648,4.254,1.648
			c1.492,0,2.901-0.531,4.227-1.594V90.952z"/>
		<path fill="#FFFFFF" d="M315.456,83.752h-12.501c0.047,1.695,0.57,3.002,1.567,3.922c0.997,0.92,2.367,1.379,4.11,1.379
			c1.958,0,3.755-0.584,5.391-1.754v3.348c-1.672,1.051-3.881,1.576-6.627,1.576c-2.698,0-4.815-0.832-6.349-2.498
			s-2.301-4.008-2.301-7.029c0-2.854,0.844-5.18,2.534-6.977c1.689-1.797,3.788-2.695,6.295-2.695s4.448,0.806,5.821,2.417
			s2.06,3.852,2.06,6.717V83.752z M311.444,80.815c-0.012-1.492-0.364-2.654-1.057-3.482c-0.693-0.83-1.648-1.246-2.866-1.246
			c-1.194,0-2.206,0.436-3.036,1.309c-0.83,0.871-1.341,2.012-1.531,3.42H311.444z"/>
		<path fill="#FFFFFF" d="M329.172,69.604c-0.681,0-1.263-0.221-1.746-0.663c-0.483-0.442-0.726-1.003-0.726-1.684
			c0-0.681,0.242-1.248,0.726-1.702c0.483-0.454,1.065-0.681,1.746-0.681c0.705,0,1.301,0.227,1.791,0.681
			c0.49,0.454,0.734,1.021,0.734,1.702c0,0.645-0.245,1.197-0.734,1.656C330.473,69.374,329.876,69.604,329.172,69.604z
			 M331.231,91.793h-4.155v-18.34h4.155V91.793z"/>
		<path fill="#FFFFFF" d="M351.781,91.793h-4.154V81.459c0-3.426-1.213-5.141-3.637-5.141c-1.266,0-2.309,0.475-3.133,1.424
			s-1.236,2.146-1.236,3.592v10.459h-4.173v-18.34h4.173v3.045h0.072c1.373-2.316,3.354-3.474,5.945-3.474
			c1.994,0,3.516,0.648,4.566,1.943s1.576,3.168,1.576,5.615V91.793z"/>
		<path fill="#FFFFFF" d="M374.185,91.596c-0.813,0.406-1.881,0.609-3.206,0.609c-3.559,0-5.337-1.707-5.337-5.121V76.713h-3.063
			v-3.26h3.063v-4.244l4.155-1.182v5.426h4.388v3.26h-4.388v9.17c0,1.088,0.196,1.863,0.591,2.328
			c0.394,0.467,1.051,0.699,1.97,0.699c0.704,0,1.313-0.203,1.827-0.609V91.596z"/>
		<path fill="#FFFFFF" d="M392.854,91.793h-4.155V81.764c0-3.629-1.212-5.445-3.636-5.445c-1.218,0-2.245,0.525-3.081,1.576
			s-1.253,2.395-1.253,4.031v9.867h-4.174V64.642h4.174v11.856h0.071c1.385-2.316,3.367-3.474,5.946-3.474
			c4.071,0,6.107,2.49,6.107,7.468V91.793z"/>
		<path fill="#FFFFFF" d="M412.223,83.752h-12.501c0.047,1.695,0.57,3.002,1.567,3.922c0.996,0.92,2.366,1.379,4.11,1.379
			c1.958,0,3.755-0.584,5.391-1.754v3.348c-1.672,1.051-3.881,1.576-6.627,1.576c-2.698,0-4.814-0.832-6.349-2.498
			c-1.535-1.666-2.302-4.008-2.302-7.029c0-2.854,0.845-5.18,2.534-6.977s3.788-2.695,6.295-2.695c2.508,0,4.448,0.806,5.821,2.417
			s2.06,3.852,2.06,6.717V83.752z M408.211,80.815c-0.012-1.492-0.364-2.654-1.057-3.482c-0.692-0.83-1.647-1.246-2.866-1.246
			c-1.193,0-2.206,0.436-3.035,1.309c-0.83,0.871-1.341,2.012-1.531,3.42H408.211z"/>
		<path fill="#FFFFFF" d="M444.941,91.793h-4.28V80.655h-12.09v11.139h-4.263V66.111h4.263v10.8h12.09v-10.8h4.28V91.793z"/>
		<path fill="#FFFFFF" d="M457.736,92.223c-2.83,0-5.09-0.855-6.779-2.57c-1.689-1.713-2.534-3.984-2.534-6.814
			c0-3.08,0.88-5.486,2.642-7.217c1.761-1.732,4.134-2.597,7.119-2.597c2.866,0,5.099,0.841,6.698,2.525
			c1.601,1.684,2.4,4.018,2.4,7.004c0,2.924-0.863,5.268-2.588,7.029C462.969,91.344,460.649,92.223,457.736,92.223z
			 M457.933,76.338c-1.624,0-2.907,0.566-3.851,1.701s-1.415,2.697-1.415,4.691c0,1.924,0.478,3.436,1.434,4.541
			c0.955,1.104,2.232,1.656,3.832,1.656c1.636,0,2.893-0.543,3.771-1.629c0.878-1.088,1.316-2.633,1.316-4.639
			c0-2.018-0.438-3.576-1.316-4.676C460.825,76.887,459.568,76.338,457.933,76.338z"/>
		<path fill="#FFFFFF" d="M474.473,91.793h-4.174V64.642h4.174V91.793z"/>
		<path fill="#FFFFFF" d="M494.198,83.752h-12.501c0.047,1.695,0.57,3.002,1.567,3.922c0.996,0.92,2.366,1.379,4.11,1.379
			c1.958,0,3.755-0.584,5.391-1.754v3.348c-1.672,1.051-3.881,1.576-6.627,1.576c-2.698,0-4.814-0.832-6.349-2.498
			c-1.535-1.666-2.302-4.008-2.302-7.029c0-2.854,0.845-5.18,2.534-6.977s3.788-2.695,6.295-2.695c2.508,0,4.448,0.806,5.821,2.417
			s2.06,3.852,2.06,6.717V83.752z M490.187,80.815c-0.012-1.492-0.364-2.654-1.057-3.482c-0.692-0.83-1.647-1.246-2.866-1.246
			c-1.193,0-2.206,0.436-3.035,1.309c-0.83,0.871-1.341,2.012-1.531,3.42H490.187z"/>
		<path fill="#FFFFFF" d="M529.174,91.793v-17.73c0-0.907,0.071-2.37,0.215-4.388h-0.072c-0.167,0.538-0.319,1.003-0.456,1.397
			c-0.138,0.394-0.267,0.717-0.386,0.967l-8.955,19.754h-1.021l-8.973-19.629c-0.263-0.597-0.531-1.439-0.807-2.525h-0.071
			c0.048,0.549,0.081,1.176,0.099,1.88c0.018,0.705,0.026,1.487,0.026,2.346v17.928h-2.328V66.111h2.813l8.722,19.308
			c0.18,0.406,0.355,0.82,0.528,1.244s0.331,0.875,0.475,1.352h0.107c0.167-0.477,0.319-0.912,0.457-1.307
			c0.137-0.395,0.308-0.818,0.511-1.271l8.793-19.325h2.669v25.683H529.174z"/>
		<path fill="#FFFFFF" d="M548.596,91.793v-3.115h-0.072c-1.241,2.363-3.17,3.545-5.784,3.545c-4.358,0-6.537-2.662-6.537-7.986
			V73.454h2.292v10.352c0,2.197,0.391,3.822,1.173,4.873s1.979,1.576,3.592,1.576c0.787,0,1.507-0.152,2.157-0.457
			c0.651-0.305,1.212-0.734,1.684-1.289c0.472-0.557,0.839-1.221,1.102-1.998c0.263-0.775,0.395-1.635,0.395-2.578V73.454h2.292
			v18.34H548.596z"/>
		<path fill="#FFFFFF" d="M555.588,91.793V64.642h2.293v27.151H555.588z"/>
		<path fill="#FFFFFF" d="M570.461,91.579c-0.788,0.395-1.648,0.592-2.579,0.592c-2.962,0-4.442-1.707-4.442-5.123V75.459h-3.224
			v-2.006h3.224v-4.621l2.293-0.752v5.373h4.729v2.006h-4.729v11.23c0,1.242,0.203,2.137,0.608,2.686
			c0.406,0.551,1.093,0.824,2.061,0.824c0.716,0,1.402-0.215,2.06-0.645V91.579z"/>
		<path fill="#FFFFFF" d="M574.158,68.815c-0.442,0-0.824-0.155-1.146-0.466s-0.483-0.704-0.483-1.182
			c0-0.465,0.161-0.851,0.483-1.155c0.322-0.304,0.704-0.457,1.146-0.457c0.227,0,0.441,0.039,0.645,0.116
			c0.202,0.078,0.379,0.188,0.528,0.332s0.269,0.313,0.358,0.51c0.089,0.197,0.134,0.415,0.134,0.654
			c0,0.227-0.042,0.442-0.125,0.645c-0.084,0.203-0.203,0.379-0.358,0.528s-0.331,0.266-0.528,0.349S574.396,68.815,574.158,68.815z
			 M573.029,91.793v-18.34h2.293v18.34H573.029z"/>
		<path fill="#FFFFFF" d="M578.982,88.499c0.347,0.275,0.723,0.52,1.129,0.734c0.405,0.215,0.823,0.4,1.254,0.555
			c0.43,0.156,0.862,0.271,1.298,0.35s0.851,0.117,1.245,0.117c2.723,0,4.083-1.021,4.083-3.063c0-0.467-0.096-0.869-0.286-1.209
			c-0.191-0.342-0.466-0.652-0.824-0.932c-0.358-0.281-0.788-0.541-1.289-0.779c-0.502-0.238-1.069-0.49-1.701-0.752
			c-0.849-0.348-1.576-0.699-2.186-1.057c-0.609-0.359-1.11-0.75-1.505-1.174c-0.394-0.424-0.687-0.889-0.877-1.396
			c-0.191-0.508-0.287-1.084-0.287-1.729c0-0.813,0.177-1.535,0.528-2.168c0.353-0.633,0.827-1.17,1.424-1.611
			c0.598-0.441,1.287-0.779,2.069-1.012c0.781-0.232,1.603-0.349,2.462-0.349c1.588,0,2.974,0.298,4.155,0.896v2.418
			c-1.373-0.885-2.854-1.326-4.441-1.326c-0.573,0-1.096,0.072-1.567,0.215s-0.875,0.346-1.209,0.609
			c-0.334,0.262-0.594,0.576-0.778,0.939c-0.186,0.365-0.278,0.768-0.278,1.209c0,0.455,0.072,0.852,0.215,1.191
			c0.144,0.34,0.367,0.648,0.672,0.922c0.305,0.275,0.698,0.537,1.183,0.789c0.483,0.25,1.071,0.52,1.764,0.805
			c0.884,0.359,1.647,0.715,2.293,1.066c0.645,0.352,1.176,0.734,1.594,1.146s0.728,0.871,0.931,1.379s0.305,1.096,0.305,1.764
			c0,0.824-0.17,1.559-0.51,2.203c-0.341,0.645-0.813,1.188-1.415,1.631c-0.604,0.441-1.311,0.775-2.123,1.002
			c-0.812,0.227-1.695,0.34-2.65,0.34c-1.851,0-3.409-0.387-4.675-1.164V88.499z"/>
		<path fill="#FFFFFF" d="M596.006,88.838v11.391h-2.293V73.454h2.293v3.512h0.071c0.681-1.279,1.591-2.254,2.731-2.93
			c1.14-0.674,2.427-1.011,3.859-1.011c1.17,0,2.218,0.212,3.144,0.636c0.925,0.424,1.707,1.023,2.346,1.799
			c0.639,0.777,1.129,1.721,1.469,2.83c0.341,1.111,0.511,2.359,0.511,3.744c0,1.516-0.191,2.898-0.573,4.145
			c-0.383,1.248-0.932,2.32-1.647,3.215c-0.717,0.896-1.585,1.592-2.606,2.088c-1.021,0.494-2.17,0.742-3.447,0.742
			c-2.579,0-4.508-1.127-5.785-3.385H596.006z M596.006,84.165c0,0.836,0.14,1.621,0.421,2.355c0.28,0.734,0.671,1.379,1.173,1.934
			c0.501,0.555,1.107,0.994,1.817,1.316c0.711,0.322,1.496,0.484,2.355,0.484c0.919,0,1.749-0.195,2.489-0.582
			c0.74-0.389,1.37-0.941,1.89-1.658c0.52-0.715,0.92-1.582,1.2-2.596c0.28-1.016,0.421-2.15,0.421-3.404
			c0-1.074-0.132-2.043-0.395-2.91c-0.263-0.865-0.636-1.602-1.119-2.211s-1.068-1.074-1.755-1.396s-1.454-0.484-2.302-0.484
			c-0.955,0-1.814,0.176-2.579,0.529c-0.764,0.352-1.415,0.832-1.952,1.441c-0.537,0.607-0.949,1.322-1.235,2.141
			c-0.287,0.816-0.43,1.686-0.43,2.605V84.165z"/>
		<path fill="#FFFFFF" d="M621.051,92.223c-1.361,0-2.583-0.227-3.663-0.68c-1.081-0.453-2.003-1.096-2.768-1.926
			c-0.764-0.83-1.349-1.824-1.755-2.982s-0.608-2.441-0.608-3.85c0-1.529,0.215-2.896,0.645-4.102
			c0.43-1.207,1.041-2.23,1.836-3.072c0.794-0.842,1.752-1.482,2.874-1.924c1.122-0.443,2.376-0.664,3.762-0.664
			c1.325,0,2.519,0.218,3.582,0.654c1.063,0.436,1.964,1.064,2.704,1.889s1.308,1.828,1.701,3.01
			c0.395,1.182,0.591,2.525,0.591,4.029c0,1.434-0.205,2.738-0.617,3.914s-1,2.188-1.765,3.035
			c-0.764,0.848-1.695,1.504-2.794,1.971C623.677,91.991,622.436,92.223,621.051,92.223z M621.229,75.012
			c-1.003,0-1.91,0.174-2.723,0.52c-0.812,0.346-1.507,0.85-2.086,1.514c-0.58,0.662-1.024,1.475-1.335,2.436
			s-0.466,2.051-0.466,3.268c0,1.146,0.155,2.18,0.466,3.1s0.749,1.707,1.316,2.363c0.567,0.658,1.257,1.162,2.069,1.514
			c0.812,0.354,1.719,0.529,2.722,0.529c1.027,0,1.935-0.17,2.723-0.512c0.788-0.34,1.456-0.836,2.006-1.486
			c0.549-0.65,0.964-1.447,1.245-2.391c0.28-0.943,0.421-2.018,0.421-3.225c0-2.471-0.55-4.359-1.648-5.668
			C624.841,75.667,623.271,75.012,621.229,75.012z"/>
		<path fill="#FFFFFF" d="M642.461,75.799c-0.537-0.393-1.23-0.59-2.078-0.59c-0.608,0-1.146,0.115-1.611,0.35
			c-0.466,0.232-0.875,0.545-1.228,0.939c-0.352,0.395-0.65,0.852-0.896,1.371c-0.244,0.52-0.441,1.059-0.591,1.619
			c-0.149,0.563-0.257,1.129-0.322,1.703c-0.065,0.572-0.099,1.115-0.099,1.629v8.973h-2.274v-18.34h2.274v3.922h0.072
			c0.215-0.668,0.486-1.268,0.814-1.799s0.708-0.979,1.138-1.344c0.43-0.363,0.898-0.641,1.405-0.832
			c0.508-0.191,1.042-0.287,1.604-0.287c0.37,0,0.701,0.023,0.994,0.072c0.292,0.047,0.558,0.119,0.797,0.215V75.799z"/>
		<path fill="#FFFFFF" d="M652.462,91.579c-0.788,0.395-1.648,0.592-2.579,0.592c-2.962,0-4.442-1.707-4.442-5.123V75.459h-3.224
			v-2.006h3.224v-4.621l2.293-0.752v5.373h4.729v2.006h-4.729v11.23c0,1.242,0.203,2.137,0.608,2.686
			c0.406,0.551,1.093,0.824,2.061,0.824c0.716,0,1.402-0.215,2.06-0.645V91.579z"/>
		<path fill="#FFFFFF" d="M664.243,91.793V66.111h12.52v2.185h-10.138v9.421h9.386v2.148h-9.386v9.762h10.711v2.166H664.243z"/>
		<path fill="#FFFFFF" d="M687.642,91.793h-2.185l-7.021-18.34h2.525l5.069,13.971c0.31,0.848,0.507,1.594,0.591,2.238h0.071
			c0.144-0.859,0.328-1.582,0.556-2.168l5.247-14.041h2.454L687.642,91.793z"/>
		<path fill="#FFFFFF" d="M698.073,83.036c0.012,1.123,0.161,2.131,0.447,3.027c0.287,0.895,0.699,1.654,1.236,2.273
			c0.537,0.621,1.19,1.096,1.961,1.424c0.771,0.33,1.639,0.494,2.605,0.494c2.066,0,4.019-0.723,5.857-2.168v2.256
			c-1.756,1.254-3.881,1.881-6.376,1.881c-1.23,0-2.347-0.215-3.35-0.645s-1.856-1.053-2.562-1.871
			c-0.704-0.818-1.247-1.824-1.63-3.018c-0.382-1.193-0.572-2.555-0.572-4.084c0-1.373,0.208-2.645,0.627-3.814
			c0.417-1.17,0.996-2.182,1.736-3.035s1.618-1.523,2.633-2.006c1.016-0.484,2.126-0.726,3.332-0.726
			c1.182,0,2.227,0.206,3.134,0.619c0.907,0.41,1.669,1,2.284,1.764c0.614,0.764,1.083,1.695,1.405,2.793
			c0.322,1.1,0.483,2.328,0.483,3.689v1.146H698.073z M708.962,81.03c-0.035-1.91-0.489-3.391-1.36-4.441
			c-0.872-1.051-2.084-1.576-3.636-1.576c-0.776,0-1.496,0.137-2.158,0.412c-0.663,0.275-1.245,0.672-1.746,1.191
			c-0.502,0.52-0.917,1.152-1.245,1.898s-0.559,1.584-0.689,2.516H708.962z"/>
		<path fill="#FFFFFF" d="M726.987,91.793V81.227c0-4.143-1.505-6.215-4.514-6.215c-0.8,0-1.54,0.158-2.221,0.475
			s-1.269,0.756-1.764,1.316c-0.496,0.561-0.884,1.227-1.164,1.996c-0.281,0.771-0.421,1.604-0.421,2.5v10.494h-2.293v-18.34h2.293
			v3.188h0.071c1.361-2.41,3.409-3.617,6.144-3.617c2.006,0,3.534,0.652,4.585,1.953c1.05,1.301,1.575,3.182,1.575,5.641v11.176
			H726.987z"/>
		<path fill="#FFFFFF" d="M741.467,91.579c-0.788,0.395-1.648,0.592-2.579,0.592c-2.962,0-4.442-1.707-4.442-5.123V75.459h-3.224
			v-2.006h3.224v-4.621l2.293-0.752v5.373h4.729v2.006h-4.729v11.23c0,1.242,0.203,2.137,0.608,2.686
			c0.406,0.551,1.093,0.824,2.061,0.824c0.716,0,1.402-0.215,2.06-0.645V91.579z"/>
		<path fill="#FFFFFF" d="M742.995,88.499c0.347,0.275,0.723,0.52,1.129,0.734c0.405,0.215,0.823,0.4,1.254,0.555
			c0.43,0.156,0.862,0.271,1.298,0.35s0.851,0.117,1.245,0.117c2.723,0,4.083-1.021,4.083-3.063c0-0.467-0.096-0.869-0.286-1.209
			c-0.191-0.342-0.466-0.652-0.824-0.932c-0.358-0.281-0.788-0.541-1.289-0.779c-0.502-0.238-1.069-0.49-1.701-0.752
			c-0.849-0.348-1.576-0.699-2.186-1.057c-0.609-0.359-1.11-0.75-1.505-1.174c-0.394-0.424-0.687-0.889-0.877-1.396
			c-0.191-0.508-0.287-1.084-0.287-1.729c0-0.813,0.177-1.535,0.528-2.168c0.353-0.633,0.827-1.17,1.424-1.611
			c0.598-0.441,1.287-0.779,2.069-1.012c0.781-0.232,1.603-0.349,2.462-0.349c1.588,0,2.974,0.298,4.155,0.896v2.418
			c-1.373-0.885-2.854-1.326-4.441-1.326c-0.573,0-1.096,0.072-1.567,0.215s-0.875,0.346-1.209,0.609
			c-0.334,0.262-0.594,0.576-0.778,0.939c-0.186,0.365-0.278,0.768-0.278,1.209c0,0.455,0.072,0.852,0.215,1.191
			c0.144,0.34,0.367,0.648,0.672,0.922c0.305,0.275,0.698,0.537,1.183,0.789c0.483,0.25,1.071,0.52,1.764,0.805
			c0.884,0.359,1.647,0.715,2.293,1.066c0.645,0.352,1.176,0.734,1.594,1.146s0.728,0.871,0.931,1.379s0.305,1.096,0.305,1.764
			c0,0.824-0.17,1.559-0.51,2.203c-0.341,0.645-0.813,1.188-1.415,1.631c-0.604,0.441-1.311,0.775-2.123,1.002
			c-0.812,0.227-1.695,0.34-2.65,0.34c-1.851,0-3.409-0.387-4.675-1.164V88.499z"/>
	</g>
	<g display="none">
	</g>
</g>
</svg>
