<?xml version="1.0" encoding="utf-8"?>
<!-- Generator: Adobe Illustrator 16.0.0, SVG Export Plug-In . SVG Version: 6.00 Build 0)  -->
<!DOCTYPE svg PUBLIC "-//W3C//DTD SVG 1.1//EN" "http://www.w3.org/Graphics/SVG/1.1/DTD/svg11.dtd">
<svg version="1.1" xmlns="http://www.w3.org/2000/svg" xmlns:xlink="http://www.w3.org/1999/xlink" x="0px" y="0px"
	 width="82.496px" height="112.541px" viewBox="0 0 82.496 112.541" enable-background="new 0 0 82.496 112.541"
	 xml:space="preserve">
<g id="Layer_1" display="none">
	<g id="Layer_1_1_">
		<g display="inline">
			<line fill="none" x1="81.552" y1="6.5" x2="39.936" y2="6.5"/>
			<path fill="#1D1D1B" d="M39.936,6h41.616c0.521,0,0.943,0.224,0.943,0.5S82.074,7,81.552,7H39.936
				c-0.521,0-0.942-0.224-0.942-0.5S39.415,6,39.936,6z"/>
		</g>
		<g display="inline">
			<line fill="none" x1="72.292" y1="0.5" x2="30.68" y2="0.5"/>
			<path fill="#1D1D1B" d="M30.68,0h41.612c0.521,0,0.942,0.224,0.942,0.5S72.813,1,72.292,1H30.68c-0.521,0-0.942-0.224-0.942-0.5
				S30.159,0,30.68,0z"/>
		</g>
		<g display="inline">
			<line fill="none" x1="35.641" y1="6.5" x2="24.331" y2="6.5"/>
			<path fill="#1D1D1B" d="M24.331,6h11.31c0.521,0,0.942,0.224,0.942,0.5S36.162,7,35.641,7h-11.31c-0.521,0-0.942-0.224-0.942-0.5
				S23.811,6,24.331,6z"/>
		</g>
		<g display="inline">
			<line fill="none" x1="53.005" y1="13.563" x2="41.695" y2="13.563"/>
			<path fill="#1D1D1B" d="M41.695,13.063h11.311c0.52,0,0.94,0.224,0.94,0.5s-0.422,0.5-0.94,0.5H41.695
				c-0.521,0-0.942-0.224-0.942-0.5S41.174,13.063,41.695,13.063z"/>
		</g>
		<g display="inline">
			<line fill="none" x1="27.43" y1="112.041" x2="15.21" y2="112.041"/>
			<path fill="#1D1D1B" d="M27.43,112.541H15.21c-0.276,0-0.5-0.224-0.5-0.5c0-0.274,0.224-0.5,0.5-0.5h12.22
				c0.276,0,0.5,0.226,0.5,0.5C27.93,112.317,27.707,112.541,27.43,112.541z"/>
		</g>
		<g display="inline">
			<line fill="none" x1="15.364" y1="106.498" x2="9.254" y2="106.498"/>
			<path fill="#1D1D1B" d="M15.364,106.998h-6.11c-0.276,0-0.5-0.226-0.5-0.5c0-0.276,0.224-0.5,0.5-0.5h6.109
				c0.276,0,0.5,0.224,0.5,0.5C15.864,106.772,15.64,106.998,15.364,106.998z"/>
		</g>
		<g display="inline">
			<line fill="none" x1="40.919" y1="106.498" x2="18.418" y2="106.498"/>
			<path fill="#1D1D1B" d="M40.919,106.998h-22.5c-0.276,0-0.5-0.226-0.5-0.5c0-0.276,0.224-0.5,0.5-0.5h22.5
				c0.276,0,0.5,0.224,0.5,0.5C41.419,106.772,41.195,106.998,40.919,106.998z"/>
		</g>
		<path display="inline" fill="#B7343E" d="M75.833,92.656c0,2.763-2.268,5.005-5.064,5.005H5.063C2.267,97.662,0,95.419,0,92.656
			V24.499c0-2.764,2.267-5.005,5.063-5.005h65.706c2.797,0,5.064,2.241,5.064,5.005V92.656z"/>
		<path display="inline" fill="#FFFFFF" d="M70.98,89.201c0,2.541-1.934,4.604-4.318,4.604H9.17c-2.384,0-4.317-2.063-4.317-4.604
			V24.099c0-2.544,1.933-4.604,4.317-4.604h57.492c2.385,0,4.318,2.061,4.318,4.604V89.201z"/>
		<path display="inline" fill="#4C4040" d="M75.833,29.189v-4.69c0-2.764-2.268-5.005-5.064-5.005H5.063
			C2.267,19.494,0,21.735,0,24.499v4.69H75.833z"/>
		<ellipse display="inline" fill="#FFFEFA" cx="17.513" cy="24.343" rx="1.846" ry="1.823"/>
		<ellipse display="inline" fill="#FFFEFA" cx="12.449" cy="24.343" rx="1.846" ry="1.823"/>
		<ellipse display="inline" fill="#FFFEFA" cx="7.385" cy="24.343" rx="1.846" ry="1.823"/>
		<path display="inline" fill="#FFFEFA" d="M24.133,24.343c0,1.005,0.827,1.823,1.846,1.823h43.498c1.021,0,1.847-0.818,1.847-1.823
			l0,0c0-1.008-0.828-1.825-1.847-1.825H25.979C24.96,22.518,24.133,23.335,24.133,24.343L24.133,24.343z"/>
		<path display="inline" fill="#43D98E" d="M56.639,38.147c0,0.536-0.3,0.973-0.667,0.973H10.521c-0.369,0-0.667-0.437-0.667-0.973
			v-2.183c0-0.538,0.299-0.973,0.667-0.973h45.451c0.369,0,0.667,0.435,0.667,0.973V38.147z"/>
		<path display="inline" fill="#FF918C" d="M63.996,72.271c0,0.535-0.3,0.973-0.668,0.973h-25.24c-0.369,0-0.667-0.438-0.667-0.973
			v-2.184c0-0.537,0.299-0.973,0.667-0.973h25.24c0.368,0,0.666,0.436,0.666,0.973v2.184H63.996z"/>
		<path display="inline" fill="#FFC250" d="M65.71,46.099c0,0.537-0.348,0.973-0.777,0.973H10.631c-0.43,0-0.778-0.437-0.778-0.973
			v-2.182c0-0.537,0.348-0.973,0.778-0.973h54.302c0.43,0,0.777,0.436,0.777,0.973V46.099z"/>
		<path display="inline" fill="#43D98E" d="M58.162,76.841H10.521c-0.369,0-0.667,0.436-0.667,0.973v2.184
			c0,0.537,0.299,0.973,0.667,0.973h47.641V76.841z"/>
		<path display="inline" fill="#045B78" d="M48.117,87.948c0,0.537-0.348,0.973-0.777,0.973H10.631c-0.43,0-0.778-0.436-0.778-0.973
			v-2.182c0-0.539,0.348-0.974,0.778-0.974h36.708c0.43,0,0.777,0.435,0.777,0.974V87.948z"/>
		<path display="inline" fill="#045B78" d="M57.662,55.177c0,0.537-0.299,0.973-0.666,0.973H38.088
			c-0.369,0-0.667-0.436-0.667-0.973v-2.182c0-0.538,0.299-0.973,0.667-0.973h18.906c0.369,0,0.668,0.435,0.668,0.973V55.177
			L57.662,55.177z"/>
		<path display="inline" fill="#43D98E" d="M65.71,63.724c0,0.535-0.348,0.974-0.777,0.974H38.199c-0.43,0-0.778-0.438-0.778-0.974
			V61.54c0-0.537,0.348-0.973,0.778-0.973h26.734c0.43,0,0.777,0.436,0.777,0.973V63.724z"/>
		<path display="inline" fill="#FF918C" d="M10.117,54.214c0-1.65,1.35-3,3-3h15.197c1.65,0,3,1.35,3,3v15.221c0,1.648-1.35,3-3,3
			H13.117c-1.65,0-3-1.352-3-3V54.214z"/>
	</g>
	<g id="Layer_2" display="inline">
		<g>
			<path fill="#6D6E71" d="M69.455,40.897C68.597,7.25,47.044,5.598,42.207,5.652c-0.641,0.007-1.277,0.007-1.917,0
				C35.45,5.598,13.898,7.25,13.04,40.897c0,0,1.397,15.707-1.374,23.833c-0.524,1.537,0.199,3.226,1.696,3.855
				c3.903,1.643,11.144,3.813,17.279,0.746h10.605h10.606c6.136,3.066,13.376,0.896,17.278-0.746
				c1.496-0.63,2.222-2.318,1.697-3.855C68.057,56.604,69.455,40.897,69.455,40.897z"/>
			<path fill="#F8D8A7" d="M41.248,67.214L41.248,67.214c-10.31,0-18.667-8.355-18.667-18.666V35.395
				c0-10.309,8.357-18.667,18.666-18.667h0.001c10.308,0,18.666,8.357,18.666,18.667v13.153
				C59.914,58.856,51.556,67.214,41.248,67.214z"/>
			<path fill="#6D6E71" d="M53.265,20.884c-3.225-2.658-5.674-4.993-10.18-4.993l-1.334,0.083
				c-10.398-1.987-22.45,12.746-19.299,19.317l-0.031,0.094C39.793,35,49.244,26.295,53.265,20.884z"/>
			<path fill="#6D6E71" d="M59.824,33.57c2.19-0.746-3-10.526-6.713-13.586v1C53.111,20.984,52.05,28.663,59.824,33.57z"/>
			<path fill="#6D6E71" d="M71,81.381C59.777,70.878,41.247,70.877,41.247,70.877s-18.529,0.001-29.751,10.504
				C0.273,91.886,0.467,99.388,0.467,99.388l0,0c0,4.146,3.359,7.502,7.503,7.502h33.277h33.278c4.145,0,7.503-3.356,7.503-7.502
				l0,0C82.028,99.388,82.222,91.886,71,81.381z"/>
			<path fill="#919191" d="M39.577,70.94c-3.236,0.188-10.69,0.959-18.022,4.076l-2.997,5.35l6.609,6.506l-2.586,6.005l8.789,14.013
				h8.207V70.94z"/>
			<path fill="#919191" d="M42.917,70.94c3.236,0.188,10.69,0.959,18.022,4.076l2.997,5.35l-6.609,6.506l2.586,6.005l-8.789,14.013
				h-8.207V70.94z"/>
			<path fill="#F2F2F2" d="M46.856,106.89l10.472-33.227V73.66c-8.438-2.782-16.081-2.783-16.081-2.783s-7.641,0-16.08,2.783v0.004
				l10.472,33.228h5.608h5.609V106.89z"/>
			<path fill="#F8D8A7" d="M41.248,67.214L41.248,67.214c-4.268,0-8.198-1.436-11.342-3.845v8.282
				c0,6.264,5.077,11.343,11.341,11.343l0,0c6.265,0,11.342-5.079,11.342-11.343v-8.282C49.445,65.778,45.515,67.214,41.248,67.214z
				"/>
			<path fill="#EFCC9E" d="M29.906,71.487c14.614,1.727,20.844-6.875,20.844-6.875c-2.783,1.652-6.03,2.602-9.501,2.602h-0.001
				c-4.267,0-8.197-1.436-11.341-3.845V71.487z"/>
			<path fill="#D42B27" d="M20.701,46.063v-11.86c0-11.329,9.217-20.546,20.547-20.546c11.328,0,20.546,9.217,20.546,20.546v11.859
				h3.002V34.203c0-12.984-10.563-23.548-23.548-23.548s-23.55,10.563-23.55,23.548v11.859L20.701,46.063L20.701,46.063z"/>
			<path fill="#D42B27" d="M20.701,51.163L20.701,51.163V36.135l0,0c-4.039,0-7.313,3.274-7.313,7.313v0.402
				C13.389,47.888,16.662,51.163,20.701,51.163z"/>
			<path fill="#D42B27" d="M61.794,51.163L61.794,51.163V36.135l0,0c4.039,0,7.313,3.274,7.313,7.313v0.402
				C69.107,47.888,65.833,51.163,61.794,51.163z"/>
			<g>
				<path fill="#D42B27" d="M43.643,62.34l-0.08-1.875l8.362-0.358c5.75-0.246,10.598-4.15,12.063-9.715l0.62-2.354l1.814,0.479
					l-0.62,2.354c-1.679,6.363-7.222,10.83-13.8,11.111L43.643,62.34z"/>
			</g>
			<path fill="#D42B27" d="M45.279,63.369h-1.891c-1.184,0-2.141-0.958-2.141-2.142l0,0c0-1.182,0.958-2.141,2.141-2.141h1.891
				c1.182,0,2.141,0.959,2.141,2.141l0,0C47.419,62.411,46.46,63.369,45.279,63.369z"/>
		</g>
	</g>
</g>
<g id="Layer_2_1_" display="none">
	<g display="inline">
		<g>
			<path fill="#68E7C5" d="M7.105,15.026v8.717c0,0.563-0.442,1.022-0.998,1.053H6.104c-0.019,0.002-0.037,0.003-0.055,0.003
				s-0.036-0.001-0.055-0.003H5.991c-0.269-0.015-0.511-0.129-0.689-0.306c-0.19-0.191-0.309-0.455-0.309-0.747V8.965H4.688
				l-2.042,5.039c-0.215,0.587-0.408,0.91-0.91,0.91c-0.503,0-1.106-0.419-0.825-1.155l1.956-5.563c0.1-0.413,0,0,0.1-0.413
				c0.206-0.87,0.783-1.518,1.716-1.518h5.271c0.934,0,1.511,0.647,1.716,1.518c0.101,0.413,0,0,0.101,0.413l1.956,5.563
				c0.281,0.735-0.322,1.155-0.825,1.155c-0.502,0-0.694-0.323-0.91-0.91L9.95,8.965H9.645v14.778c0,0.292-0.119,0.556-0.31,0.747
				c-0.178,0.177-0.42,0.292-0.688,0.306H8.643c-0.018,0.002-0.036,0.003-0.054,0.003c-0.019,0-0.036-0.001-0.055-0.003H8.531
				c-0.557-0.031-0.998-0.49-0.998-1.053v-8.717H7.105z"/>
			<path fill="#3CE50B" d="M7.288,5.614c-1.091,0-1.975-0.884-1.975-1.974V3.578c0-1.09,0.884-1.974,1.975-1.974h0.063
				c1.09,0,1.974,0.884,1.974,1.974V3.64c0,1.09-0.884,1.974-1.974,1.974H7.288z"/>
		</g>
		<g>
			<path fill="#E6AD59" d="M18.414,15.026v8.717c0,0.563-0.441,1.022-0.997,1.053h-0.003c-0.019,0.002-0.037,0.003-0.055,0.003
				c-0.019,0-0.037-0.001-0.055-0.003h-0.003c-0.269-0.015-0.51-0.129-0.689-0.306c-0.19-0.191-0.309-0.455-0.309-0.747V8.965
				h-0.306l-2.042,5.039c-0.215,0.587-0.408,0.91-0.91,0.91c-0.503,0-1.106-0.419-0.824-1.155l1.955-5.563
				c0.101-0.413,0,0,0.101-0.413c0.205-0.87,0.783-1.518,1.716-1.518h5.272c0.933,0,1.51,0.647,1.716,1.518c0.1,0.413,0,0,0.1,0.413
				l1.956,5.563c0.281,0.735-0.322,1.155-0.824,1.155c-0.503,0-0.695-0.323-0.911-0.91L21.26,8.965h-0.306v14.778
				c0,0.292-0.119,0.556-0.309,0.747c-0.178,0.177-0.419,0.292-0.688,0.306h-0.004c-0.018,0.002-0.036,0.003-0.054,0.003
				c-0.019,0-0.037-0.001-0.055-0.003h-0.003c-0.557-0.031-0.998-0.49-0.998-1.053v-8.717H18.414z"/>
			<path fill="#BCEF41" d="M18.597,5.614c-1.089,0-1.973-0.884-1.973-1.974V3.578c0-1.09,0.884-1.974,1.973-1.974h0.063
				c1.09,0,1.974,0.884,1.974,1.974V3.64c0,1.09-0.884,1.974-1.974,1.974H18.597z"/>
		</g>
		<g>
			<path fill="#CA75FB" d="M29.724,15.026v8.717c0,0.563-0.442,1.022-0.998,1.053h-0.004c-0.018,0.002-0.036,0.003-0.054,0.003
				s-0.036-0.001-0.055-0.003h-0.003c-0.269-0.015-0.511-0.129-0.689-0.306c-0.19-0.191-0.309-0.455-0.309-0.747V8.965h-0.306
				l-2.042,5.039c-0.214,0.587-0.407,0.91-0.91,0.91c-0.503,0-1.106-0.419-0.824-1.155l1.955-5.563c0.101-0.413,0,0,0.101-0.413
				c0.206-0.87,0.782-1.518,1.716-1.518h5.272c0.933,0,1.51,0.647,1.716,1.518c0.1,0.413,0,0,0.1,0.413l1.956,5.563
				c0.282,0.735-0.321,1.155-0.824,1.155c-0.502,0-0.695-0.323-0.91-0.91l-2.042-5.039h-0.306v14.778
				c0,0.292-0.119,0.556-0.309,0.747c-0.178,0.177-0.42,0.292-0.689,0.306h-0.003c-0.019,0.002-0.036,0.003-0.054,0.003
				c-0.019,0-0.037-0.001-0.055-0.003H31.15c-0.556-0.031-0.998-0.49-0.998-1.053v-8.717H29.724z"/>
			<path fill="#A23923" d="M29.907,5.614c-1.09,0-1.974-0.884-1.974-1.974V3.578c0-1.09,0.884-1.974,1.974-1.974h0.063
				c1.091,0,1.975,0.884,1.975,1.974V3.64c0,1.09-0.884,1.974-1.975,1.974H29.907z"/>
		</g>
		<g>
			<path fill="#1E2B1B" d="M41.034,15.026v8.717c0,0.563-0.441,1.022-0.998,1.053h-0.003c-0.018,0.002-0.036,0.003-0.055,0.003
				c-0.018,0-0.036-0.001-0.054-0.003H39.92c-0.27-0.015-0.511-0.129-0.689-0.306c-0.191-0.191-0.309-0.455-0.309-0.747V8.965
				h-0.306l-2.042,5.039c-0.215,0.587-0.408,0.91-0.911,0.91c-0.502,0-1.106-0.419-0.824-1.155l1.956-5.563c0.1-0.413,0,0,0.1-0.413
				c0.206-0.87,0.783-1.518,1.716-1.518h5.271c0.935,0,1.511,0.647,1.717,1.518c0.1,0.413,0,0,0.1,0.413l1.956,5.563
				c0.281,0.735-0.321,1.155-0.824,1.155c-0.502,0-0.696-0.323-0.911-0.91l-2.041-5.039h-0.306v14.778
				c0,0.292-0.119,0.556-0.31,0.747c-0.178,0.177-0.419,0.292-0.688,0.306h-0.004c-0.018,0.002-0.036,0.003-0.054,0.003
				c-0.019,0-0.037-0.001-0.055-0.003h-0.004c-0.556-0.031-0.997-0.49-0.997-1.053v-8.717H41.034z"/>
			<path fill="#BE0DED" d="M41.216,5.614c-1.09,0-1.974-0.884-1.974-1.974V3.578c0-1.09,0.884-1.974,1.974-1.974h0.063
				c1.09,0,1.974,0.884,1.974,1.974V3.64c0,1.09-0.884,1.974-1.974,1.974H41.216z"/>
		</g>
		<g>
			<path fill="#7463BB" d="M52.343,15.026v8.717c0,0.563-0.442,1.022-0.998,1.053h-0.003c-0.019,0.002-0.036,0.003-0.056,0.003
				c-0.017,0-0.034-0.001-0.054-0.003H51.23c-0.269-0.015-0.511-0.129-0.689-0.306c-0.19-0.191-0.309-0.455-0.309-0.747V8.965
				h-0.305l-2.043,5.039c-0.215,0.587-0.407,0.91-0.91,0.91c-0.502,0-1.106-0.419-0.824-1.155l1.955-5.563
				c0.101-0.413,0,0,0.101-0.413c0.205-0.87,0.783-1.518,1.716-1.518h5.271c0.935,0,1.511,0.647,1.717,1.518
				c0.099,0.413,0,0,0.099,0.413l1.957,5.563c0.282,0.735-0.321,1.155-0.825,1.155c-0.502,0-0.695-0.323-0.909-0.91l-2.042-5.039
				h-0.306v14.778c0,0.292-0.119,0.556-0.31,0.747c-0.178,0.177-0.419,0.292-0.688,0.306h-0.004
				c-0.018,0.002-0.035,0.003-0.055,0.003c-0.019,0-0.036-0.001-0.054-0.003h-0.004c-0.556-0.031-0.998-0.49-0.998-1.053v-8.717
				H52.343z"/>
			<path fill="#4E7F71" d="M52.527,5.614c-1.092,0-1.975-0.884-1.975-1.974V3.578c0-1.09,0.883-1.974,1.975-1.974h0.063
				c1.09,0,1.974,0.884,1.974,1.974V3.64c0,1.09-0.884,1.974-1.974,1.974H52.527z"/>
		</g>
		<g>
			<path fill="#A07B31" d="M63.653,15.026v8.717c0,0.563-0.441,1.022-0.998,1.053h-0.003c-0.019,0.002-0.036,0.003-0.054,0.003
				c-0.02,0-0.036-0.001-0.056-0.003H62.54c-0.269-0.015-0.511-0.129-0.689-0.306c-0.19-0.191-0.309-0.455-0.309-0.747V8.965h-0.306
				l-2.042,5.039c-0.216,0.587-0.407,0.91-0.911,0.91c-0.502,0-1.105-0.419-0.823-1.155l1.955-5.563c0.101-0.413,0,0,0.101-0.413
				c0.205-0.87,0.783-1.518,1.715-1.518h5.272c0.935,0,1.512,0.647,1.717,1.518c0.101,0.413,0,0,0.101,0.413l1.955,5.563
				c0.282,0.735-0.321,1.155-0.825,1.155c-0.502,0-0.695-0.323-0.909-0.91l-2.042-5.039h-0.306v14.778
				c0,0.292-0.119,0.556-0.311,0.747c-0.177,0.177-0.418,0.292-0.688,0.306h-0.003c-0.019,0.002-0.036,0.003-0.056,0.003
				c-0.018,0-0.036-0.001-0.054-0.003h-0.004c-0.556-0.031-0.997-0.49-0.997-1.053v-8.717H63.653z"/>
			<path fill="#A2C3A5" d="M63.835,5.614c-1.091,0-1.974-0.884-1.974-1.974V3.578c0-1.09,0.883-1.974,1.974-1.974h0.063
				c1.089,0,1.974,0.884,1.974,1.974V3.64c0,1.09-0.885,1.974-1.974,1.974H63.835z"/>
		</g>
		<g>
			<path fill="#F28D09" d="M74.962,15.026v8.717c0,0.563-0.441,1.022-0.998,1.053h-0.003c-0.02,0.002-0.036,0.003-0.054,0.003
				c-0.02,0-0.037-0.001-0.056-0.003h-0.003c-0.27-0.015-0.511-0.129-0.689-0.306c-0.19-0.191-0.309-0.455-0.309-0.747V8.965h-0.306
				l-2.042,5.039c-0.216,0.587-0.407,0.91-0.909,0.91c-0.504,0-1.107-0.419-0.825-1.155l1.955-5.563c0.101-0.413,0,0,0.101-0.413
				c0.205-0.87,0.782-1.518,1.715-1.518h5.272c0.934,0,1.512,0.647,1.717,1.518c0.101,0.413,0,0,0.101,0.413l1.955,5.563
				c0.282,0.735-0.321,1.155-0.825,1.155c-0.502,0-0.693-0.323-0.909-0.91l-2.042-5.039h-0.306v14.778
				c0,0.292-0.118,0.556-0.309,0.747c-0.179,0.177-0.421,0.292-0.689,0.306h-0.003c-0.02,0.002-0.037,0.003-0.056,0.003
				c-0.018,0-0.036-0.001-0.054-0.003h-0.003c-0.558-0.031-0.998-0.49-0.998-1.053v-8.717H74.962z"/>
			<path fill="#441FBB" d="M75.145,5.614c-1.091,0-1.974-0.884-1.974-1.974V3.578c0-1.09,0.883-1.974,1.974-1.974h0.063
				c1.092,0,1.975,0.884,1.975,1.974V3.64c0,1.09-0.883,1.974-1.975,1.974H75.145z"/>
		</g>
	</g>
	<g display="inline">
		<g>
			<g>
				<path fill="#2AD163" d="M12.76,41.05v8.717c0,0.564-0.442,1.023-0.998,1.053h-0.003c-0.018,0.002-0.036,0.003-0.055,0.003
					c-0.018,0-0.036,0-0.055-0.003h-0.003c-0.269-0.015-0.51-0.128-0.688-0.306c-0.191-0.191-0.309-0.455-0.309-0.747V34.988h-0.306
					L8.3,40.027c-0.215,0.587-0.407,0.91-0.91,0.91c-0.502,0-1.106-0.42-0.824-1.155l1.956-5.563c0.1-0.412,0,0,0.1-0.412
					c0.206-0.87,0.783-1.518,1.716-1.518h5.272c0.933,0,1.51,0.647,1.716,1.518c0.1,0.412,0,0,0.1,0.412l1.956,5.563
					c0.282,0.735-0.322,1.155-0.824,1.155s-0.695-0.323-0.91-0.91l-2.042-5.039h-0.305v14.778c0,0.292-0.119,0.556-0.309,0.747
					c-0.178,0.178-0.42,0.291-0.689,0.306h-0.003c-0.019,0.002-0.037,0.003-0.055,0.003s-0.036,0-0.055-0.003h-0.003
					c-0.556-0.03-0.998-0.489-0.998-1.053V41.05H12.76z"/>
				<path fill="#2AD163" d="M12.942,31.638c-1.09,0-1.974-0.884-1.974-1.974v-0.063c0-1.09,0.884-1.974,1.974-1.974h0.063
					c1.09,0,1.974,0.884,1.974,1.974v0.063c0,1.09-0.884,1.974-1.974,1.974H12.942z"/>
			</g>
			<g>
				<path fill="#2AD163" d="M24.069,42.98v6.786c0,0.564-0.441,1.023-0.998,1.053h-0.004c-0.018,0.002-0.035,0.003-0.054,0.003
					s-0.036,0-0.054-0.003h-0.004c-0.269-0.015-0.511-0.128-0.689-0.306c-0.19-0.191-0.309-0.455-0.309-0.747v-6.669l-2.454-0.021
					l2.386-7.163l0.067-0.925h-0.305l-2.042,5.039c-0.215,0.587-0.408,0.91-0.91,0.91c-0.503,0-1.106-0.42-0.825-1.155l1.956-5.563
					c0.1-0.412,0,0,0.1-0.412c0.206-0.87,0.783-1.518,1.716-1.518h5.272c0.934,0,1.511,0.647,1.716,1.518c0.1,0.412,0,0,0.1,0.412
					l1.955,5.563c0.282,0.735-0.32,1.155-0.824,1.155c-0.503,0-0.695-0.323-0.91-0.91l-2.042-5.039h-0.307l0.068,0.925l2.386,7.163
					l-2.455,0.021v6.669c0,0.292-0.118,0.556-0.308,0.747c-0.179,0.178-0.42,0.291-0.689,0.306h-0.004
					c-0.018,0.002-0.036,0.003-0.054,0.003s-0.036,0-0.055-0.003h-0.003c-0.556-0.03-0.998-0.489-0.998-1.053V42.98H24.069z"/>
				<path fill="#2AD163" d="M24.252,31.638c-1.09,0-1.974-0.884-1.974-1.974v-0.063c0-1.09,0.884-1.974,1.974-1.974h0.063
					c1.09,0,1.974,0.884,1.974,1.974v0.063c0,1.09-0.884,1.974-1.974,1.974H24.252z"/>
			</g>
		</g>
		<g>
			<g>
				<path fill="#7463BB" d="M35.379,41.05v8.717c0,0.564-0.442,1.023-0.998,1.053h-0.003c-0.019,0.002-0.037,0.003-0.055,0.003
					c-0.019,0-0.036,0-0.055-0.003h-0.003c-0.269-0.015-0.511-0.128-0.689-0.306c-0.19-0.191-0.309-0.455-0.309-0.747V34.988h-0.306
					l-2.042,5.039c-0.215,0.587-0.408,0.91-0.91,0.91c-0.503,0-1.106-0.42-0.825-1.155l1.956-5.563c0.1-0.412,0,0,0.1-0.412
					c0.206-0.87,0.783-1.518,1.716-1.518h5.271c0.934,0,1.511,0.647,1.716,1.518c0.101,0.412,0,0,0.101,0.412l1.957,5.563
					c0.281,0.735-0.322,1.155-0.826,1.155c-0.502,0-0.694-0.323-0.909-0.91l-2.042-5.039h-0.306v14.778
					c0,0.292-0.118,0.556-0.31,0.747c-0.178,0.178-0.42,0.291-0.688,0.306h-0.004c-0.018,0.002-0.036,0.003-0.055,0.003
					c-0.018,0-0.035,0-0.054-0.003h-0.003c-0.557-0.03-0.998-0.489-0.998-1.053V41.05H35.379z"/>
				<path fill="#7463BB" d="M35.562,31.638c-1.091,0-1.975-0.884-1.975-1.974v-0.063c0-1.09,0.884-1.974,1.975-1.974h0.063
					c1.09,0,1.974,0.884,1.974,1.974v0.063c0,1.09-0.884,1.974-1.974,1.974H35.562z"/>
			</g>
			<g>
				<path fill="#7463BB" d="M46.689,42.98v6.786c0,0.564-0.441,1.023-0.998,1.053h-0.004c-0.018,0.002-0.035,0.003-0.054,0.003
					s-0.036,0-0.054-0.003h-0.005c-0.269-0.015-0.511-0.128-0.688-0.306c-0.19-0.191-0.311-0.455-0.311-0.747v-6.669l-2.453-0.021
					l2.387-7.163l0.066-0.925h-0.306l-2.041,5.039c-0.215,0.587-0.407,0.91-0.911,0.91c-0.503,0-1.106-0.42-0.825-1.155l1.957-5.563
					c0.101-0.412,0,0,0.101-0.412c0.205-0.87,0.782-1.518,1.716-1.518h5.272c0.933,0,1.51,0.647,1.715,1.518
					c0.101,0.412,0,0,0.101,0.412l1.955,5.563c0.282,0.735-0.321,1.155-0.823,1.155s-0.695-0.323-0.911-0.91l-2.041-5.039h-0.307
					l0.068,0.925l2.386,7.163l-2.454,0.021v6.669c0,0.292-0.118,0.556-0.309,0.747c-0.179,0.178-0.42,0.291-0.688,0.306h-0.004
					c-0.018,0.002-0.036,0.003-0.054,0.003c-0.02,0-0.036,0-0.056-0.003h-0.003c-0.556-0.03-0.998-0.489-0.998-1.053V42.98H46.689z"
					/>
				<path fill="#7463BB" d="M46.872,31.638c-1.09,0-1.975-0.884-1.975-1.974v-0.063c0-1.09,0.885-1.974,1.975-1.974h0.063
					c1.091,0,1.974,0.884,1.974,1.974v0.063c0,1.09-0.883,1.974-1.974,1.974H46.872z"/>
			</g>
		</g>
		<g>
			<g>
				<g>
					<path fill="#EC9521" d="M57.999,41.05v8.717c0,0.564-0.442,1.023-0.998,1.053h-0.004c-0.018,0.002-0.035,0.003-0.054,0.003
						c-0.02,0-0.037,0-0.054-0.003h-0.005c-0.27-0.015-0.511-0.128-0.688-0.306c-0.191-0.191-0.311-0.455-0.311-0.747V34.988h-0.306
						l-2.041,5.039c-0.215,0.587-0.408,0.91-0.91,0.91c-0.504,0-1.105-0.42-0.825-1.155l1.957-5.563c0.099-0.412,0,0,0.099-0.412
						c0.207-0.87,0.784-1.518,1.717-1.518h5.272c0.932,0,1.51,0.647,1.715,1.518c0.101,0.412,0,0,0.101,0.412l1.956,5.563
						c0.281,0.735-0.321,1.155-0.824,1.155c-0.504,0-0.695-0.323-0.911-0.91l-2.041-5.039h-0.306v14.778
						c0,0.292-0.119,0.556-0.31,0.747c-0.179,0.178-0.421,0.291-0.688,0.306h-0.004c-0.018,0.002-0.036,0.003-0.054,0.003
						c-0.02,0-0.037,0-0.056-0.003h-0.003c-0.556-0.03-0.998-0.489-0.998-1.053V41.05H57.999z"/>
					<path fill="#EC9521" d="M58.18,31.638c-1.089,0-1.974-0.884-1.974-1.974v-0.063c0-1.09,0.885-1.974,1.974-1.974h0.064
						c1.09,0,1.973,0.884,1.973,1.974v0.063c0,1.09-0.883,1.974-1.973,1.974H58.18z"/>
				</g>
				<g>
					<path fill="#EC9521" d="M69.308,42.98v6.786c0,0.564-0.442,1.023-0.998,1.053h-0.003c-0.019,0.002-0.036,0.003-0.055,0.003
						c-0.018,0-0.037,0-0.055-0.003h-0.004c-0.268-0.015-0.509-0.128-0.688-0.306c-0.19-0.191-0.31-0.455-0.31-0.747v-6.669
						l-2.453-0.021l2.386-7.163l0.067-0.925H66.89l-2.041,5.039c-0.215,0.587-0.407,0.91-0.91,0.91c-0.504,0-1.106-0.42-0.825-1.155
						l1.957-5.563c0.1-0.412,0,0,0.1-0.412c0.205-0.87,0.783-1.518,1.716-1.518h5.271c0.933,0,1.511,0.647,1.717,1.518
						c0.1,0.412,0,0,0.1,0.412l1.956,5.563c0.281,0.735-0.321,1.155-0.825,1.155c-0.501,0-0.695-0.323-0.91-0.91l-2.041-5.039
						h-0.306l0.067,0.925l2.386,7.163l-2.453,0.021v6.669c0,0.292-0.119,0.556-0.31,0.747c-0.178,0.178-0.419,0.291-0.688,0.306
						h-0.004c-0.018,0.002-0.035,0.003-0.054,0.003c-0.02,0-0.037,0-0.055-0.003h-0.004c-0.556-0.03-0.998-0.489-0.998-1.053V42.98
						H69.308z"/>
					<path fill="#EC9521" d="M69.49,31.638c-1.09,0-1.973-0.884-1.973-1.974v-0.063c0-1.09,0.883-1.974,1.973-1.974h0.064
						c1.09,0,1.974,0.884,1.974,1.974v0.063c0,1.09-0.884,1.974-1.974,1.974H69.49z"/>
				</g>
			</g>
		</g>
	</g>
	<g display="inline">
		<g>
			<path d="M7.105,68.655v8.718c0,0.563-0.442,1.021-0.998,1.052H6.104c-0.019,0.003-0.037,0.003-0.055,0.003s-0.036,0-0.055-0.003
				H5.991c-0.269-0.015-0.511-0.128-0.689-0.306c-0.19-0.19-0.309-0.455-0.309-0.746V62.595H4.688l-2.042,5.039
				c-0.215,0.586-0.408,0.909-0.91,0.909c-0.503,0-1.106-0.419-0.825-1.155l1.956-5.563c0.1-0.411,0,0,0.1-0.411
				c0.206-0.87,0.783-1.518,1.716-1.518h5.271c0.934,0,1.511,0.647,1.716,1.518c0.101,0.411,0,0,0.101,0.411l1.956,5.563
				c0.281,0.736-0.322,1.155-0.825,1.155c-0.502,0-0.694-0.323-0.91-0.909L9.95,62.595H9.645v14.778c0,0.291-0.119,0.556-0.31,0.746
				c-0.178,0.178-0.42,0.291-0.688,0.306H8.643c-0.018,0.003-0.036,0.003-0.054,0.003c-0.019,0-0.036,0-0.055-0.003H8.531
				c-0.557-0.03-0.998-0.488-0.998-1.052v-8.718H7.105z"/>
			<path d="M7.288,59.244c-1.091,0-1.975-0.884-1.975-1.975v-0.063c0-1.09,0.884-1.974,1.975-1.974h0.063
				c1.09,0,1.974,0.884,1.974,1.974v0.063c0,1.091-0.884,1.975-1.974,1.975H7.288z"/>
		</g>
		<g>
			<path d="M18.414,68.655v8.718c0,0.563-0.441,1.021-0.997,1.052h-0.003c-0.019,0.003-0.037,0.003-0.055,0.003
				c-0.019,0-0.037,0-0.055-0.003h-0.003c-0.269-0.015-0.51-0.128-0.689-0.306c-0.19-0.19-0.309-0.455-0.309-0.746V62.595h-0.306
				l-2.042,5.039c-0.215,0.586-0.408,0.909-0.91,0.909c-0.503,0-1.106-0.419-0.824-1.155l1.955-5.563c0.101-0.411,0,0,0.101-0.411
				c0.205-0.87,0.783-1.518,1.716-1.518h5.272c0.933,0,1.51,0.647,1.716,1.518c0.1,0.411,0,0,0.1,0.411l1.956,5.563
				c0.281,0.736-0.322,1.155-0.824,1.155c-0.503,0-0.695-0.323-0.911-0.909l-2.042-5.039h-0.306v14.778
				c0,0.291-0.119,0.556-0.309,0.746c-0.178,0.178-0.419,0.291-0.688,0.306h-0.004c-0.018,0.003-0.036,0.003-0.054,0.003
				c-0.019,0-0.037,0-0.055-0.003h-0.003c-0.557-0.03-0.998-0.488-0.998-1.052v-8.718H18.414z"/>
			<path d="M18.597,59.244c-1.089,0-1.973-0.884-1.973-1.975v-0.063c0-1.09,0.884-1.974,1.973-1.974h0.063
				c1.09,0,1.974,0.884,1.974,1.974v0.063c0,1.091-0.884,1.975-1.974,1.975H18.597z"/>
		</g>
		<g>
			<path d="M29.724,68.655v8.718c0,0.563-0.442,1.021-0.998,1.052h-0.004c-0.018,0.003-0.036,0.003-0.054,0.003
				s-0.036,0-0.055-0.003h-0.003c-0.269-0.015-0.511-0.128-0.689-0.306c-0.19-0.19-0.309-0.455-0.309-0.746V62.595h-0.306
				l-2.042,5.039c-0.214,0.586-0.407,0.909-0.91,0.909c-0.503,0-1.106-0.419-0.824-1.155l1.955-5.563c0.101-0.411,0,0,0.101-0.411
				c0.206-0.87,0.782-1.518,1.716-1.518h5.272c0.933,0,1.51,0.647,1.716,1.518c0.1,0.411,0,0,0.1,0.411l1.956,5.563
				c0.282,0.736-0.321,1.155-0.824,1.155c-0.502,0-0.695-0.323-0.91-0.909l-2.042-5.039h-0.306v14.778
				c0,0.291-0.119,0.556-0.309,0.746c-0.178,0.178-0.42,0.291-0.689,0.306h-0.003c-0.019,0.003-0.036,0.003-0.054,0.003
				c-0.019,0-0.037,0-0.055-0.003H31.15c-0.556-0.03-0.998-0.488-0.998-1.052v-8.718H29.724z"/>
			<path d="M29.907,59.244c-1.09,0-1.974-0.884-1.974-1.975v-0.063c0-1.09,0.884-1.974,1.974-1.974h0.063
				c1.091,0,1.975,0.884,1.975,1.974v0.063c0,1.091-0.884,1.975-1.975,1.975H29.907z"/>
		</g>
		<g>
			<path d="M41.034,68.655v8.718c0,0.563-0.441,1.021-0.998,1.052h-0.003c-0.018,0.003-0.036,0.003-0.055,0.003
				c-0.018,0-0.036,0-0.054-0.003H39.92c-0.27-0.015-0.511-0.128-0.689-0.306c-0.191-0.19-0.309-0.455-0.309-0.746V62.595h-0.306
				l-2.042,5.039c-0.215,0.586-0.408,0.909-0.911,0.909c-0.502,0-1.106-0.419-0.824-1.155l1.956-5.563c0.1-0.411,0,0,0.1-0.411
				c0.206-0.87,0.783-1.518,1.716-1.518h5.271c0.935,0,1.511,0.647,1.717,1.518c0.1,0.411,0,0,0.1,0.411l1.956,5.563
				c0.281,0.736-0.321,1.155-0.824,1.155c-0.502,0-0.696-0.323-0.911-0.909l-2.041-5.039h-0.306v14.778
				c0,0.291-0.119,0.556-0.31,0.746c-0.178,0.178-0.419,0.291-0.688,0.306h-0.004c-0.018,0.003-0.036,0.003-0.054,0.003
				c-0.019,0-0.037,0-0.055-0.003h-0.004c-0.556-0.03-0.997-0.488-0.997-1.052v-8.718H41.034z"/>
			<path d="M41.216,59.244c-1.09,0-1.974-0.884-1.974-1.975v-0.063c0-1.09,0.884-1.974,1.974-1.974h0.063
				c1.09,0,1.974,0.884,1.974,1.974v0.063c0,1.091-0.884,1.975-1.974,1.975H41.216z"/>
		</g>
		<g>
			<path d="M52.343,68.655v8.718c0,0.563-0.442,1.021-0.998,1.052h-0.003c-0.019,0.003-0.036,0.003-0.056,0.003
				c-0.017,0-0.034,0-0.054-0.003H51.23c-0.269-0.015-0.511-0.128-0.689-0.306c-0.19-0.19-0.309-0.455-0.309-0.746V62.595h-0.305
				l-2.043,5.039c-0.215,0.586-0.407,0.909-0.91,0.909c-0.502,0-1.106-0.419-0.824-1.155l1.955-5.563c0.101-0.411,0,0,0.101-0.411
				c0.205-0.87,0.783-1.518,1.716-1.518h5.271c0.935,0,1.511,0.647,1.717,1.518c0.099,0.411,0,0,0.099,0.411l1.957,5.563
				c0.282,0.736-0.321,1.155-0.825,1.155c-0.502,0-0.695-0.323-0.909-0.909l-2.042-5.039h-0.306v14.778
				c0,0.291-0.119,0.556-0.31,0.746c-0.178,0.178-0.419,0.291-0.688,0.306h-0.004c-0.018,0.003-0.035,0.003-0.055,0.003
				c-0.019,0-0.036,0-0.054-0.003h-0.004c-0.556-0.03-0.998-0.488-0.998-1.052v-8.718H52.343z"/>
			<path d="M52.527,59.244c-1.092,0-1.975-0.884-1.975-1.975v-0.063c0-1.09,0.883-1.974,1.975-1.974h0.063
				c1.09,0,1.974,0.884,1.974,1.974v0.063c0,1.091-0.884,1.975-1.974,1.975H52.527z"/>
		</g>
		<g>
			<path d="M63.653,68.655v8.718c0,0.563-0.441,1.021-0.998,1.052h-0.003c-0.019,0.003-0.036,0.003-0.054,0.003
				c-0.02,0-0.036,0-0.056-0.003H62.54c-0.269-0.015-0.511-0.128-0.689-0.306c-0.19-0.19-0.309-0.455-0.309-0.746V62.595h-0.306
				l-2.042,5.039c-0.216,0.586-0.407,0.909-0.911,0.909c-0.502,0-1.105-0.419-0.823-1.155l1.955-5.563c0.101-0.411,0,0,0.101-0.411
				c0.205-0.87,0.783-1.518,1.715-1.518h5.272c0.935,0,1.512,0.647,1.717,1.518c0.101,0.411,0,0,0.101,0.411l1.955,5.563
				c0.282,0.736-0.321,1.155-0.825,1.155c-0.502,0-0.695-0.323-0.909-0.909l-2.042-5.039h-0.306v14.778
				c0,0.291-0.119,0.556-0.311,0.746c-0.177,0.178-0.418,0.291-0.688,0.306h-0.003c-0.019,0.003-0.036,0.003-0.056,0.003
				c-0.018,0-0.036,0-0.054-0.003h-0.004c-0.556-0.03-0.997-0.488-0.997-1.052v-8.718H63.653z"/>
			<path d="M63.835,59.244c-1.091,0-1.974-0.884-1.974-1.975v-0.063c0-1.09,0.883-1.974,1.974-1.974h0.063
				c1.089,0,1.974,0.884,1.974,1.974v0.063c0,1.091-0.885,1.975-1.974,1.975H63.835z"/>
		</g>
		<g>
			<path d="M74.962,68.655v8.718c0,0.563-0.441,1.021-0.998,1.052h-0.003c-0.02,0.003-0.036,0.003-0.054,0.003
				c-0.02,0-0.037,0-0.056-0.003h-0.003c-0.27-0.015-0.511-0.128-0.689-0.306c-0.19-0.19-0.309-0.455-0.309-0.746V62.595h-0.306
				l-2.042,5.039c-0.216,0.586-0.407,0.909-0.909,0.909c-0.504,0-1.107-0.419-0.825-1.155l1.955-5.563c0.101-0.411,0,0,0.101-0.411
				c0.205-0.87,0.782-1.518,1.715-1.518h5.272c0.934,0,1.512,0.647,1.717,1.518c0.101,0.411,0,0,0.101,0.411l1.955,5.563
				c0.282,0.736-0.321,1.155-0.825,1.155c-0.502,0-0.693-0.323-0.909-0.909l-2.042-5.039h-0.306v14.778
				c0,0.291-0.118,0.556-0.309,0.746c-0.179,0.178-0.421,0.291-0.689,0.306h-0.003c-0.02,0.003-0.037,0.003-0.056,0.003
				c-0.018,0-0.036,0-0.054-0.003h-0.003c-0.558-0.03-0.998-0.488-0.998-1.052v-8.718H74.962z"/>
			<path d="M75.145,59.244c-1.091,0-1.974-0.884-1.974-1.975v-0.063c0-1.09,0.883-1.974,1.974-1.974h0.063
				c1.092,0,1.975,0.884,1.975,1.974v0.063c0,1.091-0.883,1.975-1.975,1.975H75.145z"/>
		</g>
	</g>
	<linearGradient id="SVGID_1_" gradientUnits="userSpaceOnUse" x1="1.4424" y1="95.8662" x2="81.0532" y2="95.8662">
		<stop  offset="0" style="stop-color:#00A0DB"/>
		<stop  offset="0.2" style="stop-color:#362983"/>
		<stop  offset="0.4" style="stop-color:#E4007D"/>
		<stop  offset="0.6" style="stop-color:#E31F21"/>
		<stop  offset="0.8" style="stop-color:#FFE900"/>
		<stop  offset="1" style="stop-color:#009447"/>
	</linearGradient>
	<path display="inline" fill="url(#SVGID_1_)" d="M8.974,87.217h0.071c1.243,0,2.251-1.009,2.251-2.251v-0.073
		c0-1.242-1.008-2.25-2.251-2.25H8.974c-1.243,0-2.251,1.008-2.251,2.25v0.073C6.723,86.208,7.73,87.217,8.974,87.217z
		 M21.868,87.217h0.072c1.243,0,2.25-1.009,2.25-2.251v-0.073c0-1.242-1.007-2.25-2.25-2.25h-0.072c-1.243,0-2.25,1.008-2.25,2.25
		v0.073C19.618,86.208,20.625,87.217,21.868,87.217z M34.764,87.217h0.072c1.242,0,2.25-1.009,2.25-2.251v-0.073
		c0-1.242-1.008-2.25-2.25-2.25h-0.072c-1.243,0-2.251,1.008-2.251,2.25v0.073C32.513,86.208,33.521,87.217,34.764,87.217z
		 M47.658,87.217h0.071c1.244,0,2.251-1.009,2.251-2.251v-0.073c0-1.242-1.007-2.25-2.251-2.25h-0.071
		c-1.243,0-2.25,1.008-2.25,2.25v0.073C45.408,86.208,46.415,87.217,47.658,87.217z M60.553,87.217h0.071
		c1.243,0,2.25-1.009,2.25-2.251v-0.073c0-1.242-1.007-2.25-2.25-2.25h-0.071c-1.244,0-2.251,1.008-2.251,2.25v0.073
		C58.302,86.208,59.309,87.217,60.553,87.217z M73.448,87.217h0.071c1.244,0,2.251-1.009,2.251-2.251v-0.073
		c0-1.242-1.007-2.25-2.251-2.25h-0.071c-1.243,0-2.25,1.008-2.25,2.25v0.073C71.198,86.208,72.205,87.217,73.448,87.217z
		 M78.56,90.159c-0.114-0.47,0,0-0.114-0.47c-0.234-0.992-0.893-1.731-1.957-1.731h-6.012c-1.063,0-1.721,0.739-1.955,1.731
		c-0.114,0.47,0,0-0.114,0.47l-1.372,3.9l-1.37-3.9c-0.115-0.47,0,0-0.115-0.47c-0.234-0.992-0.892-1.731-1.957-1.731h-6.01
		c-1.064,0-1.722,0.739-1.956,1.731c-0.115,0.47,0,0-0.115,0.47l-1.37,3.9l-1.372-3.9c-0.115-0.47,0,0-0.115-0.47
		c-0.234-0.992-0.892-1.731-1.956-1.731h-6.01c-1.065,0-1.723,0.739-1.957,1.731c-0.114,0.47,0,0-0.114,0.47l-1.371,3.9l-1.371-3.9
		c-0.114-0.47,0,0-0.114-0.47c-0.234-0.992-0.893-1.731-1.957-1.731h-6.011c-1.064,0-1.722,0.739-1.957,1.731
		c-0.113,0.47,0,0-0.113,0.47l-1.372,3.9l-1.371-3.9c-0.114-0.47,0,0-0.114-0.47c-0.234-0.992-0.893-1.731-1.957-1.731h-6.011
		c-1.064,0-1.722,0.739-1.957,1.731c-0.113,0.47,0,0-0.113,0.47l-1.372,3.9l-1.371-3.9c-0.114-0.47,0,0-0.114-0.47
		c-0.233-0.992-0.893-1.731-1.956-1.731H6.003c-1.063,0-1.722,0.739-1.955,1.731c-0.114,0.47,0,0-0.114,0.47
		c0,0-2.483,6.174-2.491,6.622s0.465,1.037,1.037,1.037c0.027,0,0.055-0.001,0.082-0.004c0.027,0.003,0.055,0.004,0.082,0.004
		c0.572,0,0.792-0.368,1.037-1.037l2.328-5.746h0.349v16.853c0,0.331,0.136,0.633,0.353,0.851c0.203,0.202,0.479,0.332,0.785,0.35
		H7.5c0.02,0.001,0.04,0.003,0.062,0.003c0.021,0,0.041-0.002,0.062-0.003h0.005c0.633-0.035,1.138-0.56,1.138-1.2v-9.941h0.487
		v9.941c0,0.641,0.504,1.165,1.138,1.2h0.004c0.021,0.001,0.041,0.003,0.063,0.003c0.021,0,0.041-0.002,0.062-0.003h0.004
		c0.307-0.018,0.583-0.147,0.786-0.35c0.217-0.218,0.353-0.52,0.353-0.851V91.035h0.349l2.328,5.746
		c0.245,0.669,0.465,1.037,1.037,1.037c0.027,0,0.055-0.001,0.081-0.004c0.028,0.003,0.055,0.004,0.082,0.004
		c0.573,0,0.793-0.368,1.038-1.037l2.328-5.746h0.349v16.853c0,0.331,0.135,0.633,0.352,0.851c0.204,0.202,0.479,0.332,0.786,0.35
		h0.003c0.021,0.001,0.042,0.003,0.063,0.003c0.021,0,0.041-0.002,0.063-0.003h0.004c0.634-0.035,1.138-0.56,1.138-1.2v-9.941h0.488
		v9.941c0,0.641,0.503,1.165,1.138,1.2h0.004c0.021,0.001,0.041,0.003,0.063,0.003c0.021,0,0.04-0.002,0.062-0.003h0.004
		c0.307-0.018,0.582-0.147,0.785-0.35c0.218-0.218,0.353-0.52,0.353-0.851V91.035h0.349l2.328,5.746
		c0.245,0.669,0.465,1.037,1.038,1.037c0.026,0,0.054-0.001,0.081-0.004c0.027,0.003,0.055,0.004,0.081,0.004
		c0.573,0,0.793-0.368,1.038-1.037l2.329-5.746h0.348v16.853c0,0.331,0.136,0.633,0.353,0.851c0.203,0.202,0.479,0.332,0.785,0.35
		h0.004c0.021,0.001,0.041,0.003,0.063,0.003c0.021,0,0.041-0.002,0.062-0.003h0.004c0.635-0.035,1.139-0.56,1.139-1.2v-9.941h0.488
		v9.941c0,0.641,0.503,1.165,1.138,1.2h0.003c0.021,0.001,0.042,0.003,0.063,0.003s0.041-0.002,0.063-0.003h0.003
		c0.308-0.018,0.583-0.147,0.786-0.35c0.217-0.218,0.352-0.52,0.352-0.851V91.035h0.349l2.328,5.746
		c0.245,0.669,0.465,1.037,1.038,1.037c0.027,0,0.055-0.001,0.082-0.004c0.027,0.003,0.054,0.004,0.081,0.004
		c0.573,0,0.792-0.368,1.038-1.037l2.327-5.746h0.35v16.853c0,0.331,0.135,0.633,0.352,0.851c0.204,0.202,0.479,0.332,0.786,0.35
		h0.004c0.021,0.001,0.041,0.003,0.062,0.003c0.021,0,0.04-0.002,0.063-0.003h0.004c0.633-0.035,1.138-0.56,1.138-1.2v-9.941h0.487
		v9.941c0,0.641,0.505,1.165,1.138,1.2h0.005c0.021,0.001,0.04,0.003,0.063,0.003c0.021,0,0.04-0.002,0.061-0.003h0.005
		c0.307-0.018,0.582-0.147,0.785-0.35c0.217-0.218,0.353-0.52,0.353-0.851V91.035h0.349l2.328,5.746
		c0.245,0.669,0.465,1.037,1.037,1.037c0.027,0,0.055-0.001,0.083-0.004c0.026,0.003,0.054,0.004,0.081,0.004
		c0.572,0,0.792-0.368,1.037-1.037l2.328-5.746h0.349v16.853c0,0.331,0.136,0.633,0.353,0.851c0.203,0.202,0.479,0.332,0.785,0.35
		h0.005c0.021,0.001,0.04,0.003,0.061,0.003c0.022,0,0.041-0.002,0.063-0.003h0.005c0.633-0.035,1.138-0.56,1.138-1.2v-9.941h0.487
		v9.941c0,0.641,0.505,1.165,1.138,1.2h0.004c0.021,0.001,0.041,0.003,0.063,0.003c0.021,0,0.041-0.002,0.062-0.003h0.004
		c0.308-0.018,0.582-0.147,0.786-0.35c0.217-0.218,0.352-0.52,0.352-0.851V91.035h0.35l2.327,5.746
		c0.246,0.669,0.466,1.037,1.037,1.037c0.028,0,0.056-0.001,0.083-0.004c0.026,0.003,0.054,0.004,0.082,0.004
		c0.571,0,0.791-0.368,1.037-1.037l2.327-5.746h0.35v16.853c0,0.331,0.135,0.633,0.352,0.851c0.204,0.202,0.479,0.332,0.786,0.35
		h0.004c0.021,0.001,0.041,0.003,0.062,0.003s0.041-0.002,0.063-0.003h0.004c0.633-0.035,1.138-0.56,1.138-1.2v-9.941h0.487v9.941
		c0,0.641,0.504,1.165,1.138,1.2h0.005c0.021,0.001,0.041,0.003,0.063,0.003c0.021,0,0.041-0.002,0.061-0.003h0.005
		c0.307-0.018,0.582-0.147,0.785-0.35c0.217-0.218,0.353-0.52,0.353-0.851V91.035h0.349l2.328,5.746
		c0.246,0.669,0.466,1.037,1.037,1.037c0.027,0,0.056-0.001,0.083-0.004c0.026,0.003,0.054,0.004,0.081,0.004
		c0.572,0,1.072-0.631,1.038-1.037S78.56,90.159,78.56,90.159z"/>
</g>
<g id="Layer_3" display="none">
	<g display="inline">
		<path fill="#231F20" d="M35.783,3H3.051C1.921,3,1,3.92,1,5.05v32.73c0,1.131,0.921,2.053,2.051,2.053h32.732
			c1.13,0,2.051-0.922,2.051-2.053V5.05C37.834,3.92,36.913,3,35.783,3z M24.721,11.457c1.568,0,2.841,1.456,2.841,3.254
			c0,1.797-1.273,3.253-2.841,3.253c-1.569,0-2.841-1.456-2.841-3.253C21.879,12.913,23.152,11.457,24.721,11.457z M21.065,29.66
			c0,0-9.422-5.655-18.371,0.681c1.24-1.901,5.077-6.903,11.457-7.51c0.297-0.286,0.602-0.59,0.89-0.901
			c0.486-0.521,1.804-1.646,2.042-1.944c0.875-1.095-0.68-3.694-1.507-4.521c-0.826-0.825-1.63-1.574-3.621-1.785
			c-2.683-0.286-4.74,0.035-4.74,0.035s3.099-1.71,6.088-1.64c2.769,0.063,4.3,1.179,4.958,1.677
			c1.372,1.036,2.024,2.607,3.392,3.536c1.367,0.93,1.7,0.85,2.724,1.745c1.022,0.893,0.92,3.383-0.003,4.259
			c-0.463,0.437-1.087,0.917-1.596,1.287c0.062,0.028,0.122,0.056,0.181,0.085c0,0,8.477,2.833,13.133-5.884
			C36.093,18.779,35.577,34.369,21.065,29.66z"/>
		<g>
			
				<ellipse transform="matrix(0.4087 -0.9127 0.9127 0.4087 -25.3858 86.5751)" fill="#231F20" cx="54.123" cy="62.879" rx="5.83" ry="5.487"/>
			<path fill="#231F20" d="M75.537,57.559c-2.769-1.24-6.077,0.14-7.395,3.078c-1.314,2.938-0.137,6.324,2.629,7.563
				s6.074-0.141,7.388-3.08C79.479,62.183,78.302,58.796,75.537,57.559z"/>
			<path fill="#231F20" d="M79.445,38.681H46.713c-1.13,0-2.052,0.92-2.052,2.05v32.73c0,1.132,0.922,2.053,2.052,2.053h32.731
				c1.128,0,2.051-0.921,2.051-2.053V40.73C81.496,39.601,80.573,38.681,79.445,38.681z M68.308,43.762
				c1.42,0,2.574,1.299,2.574,2.898c0,1.603-1.154,2.9-2.574,2.9c-1.426,0-2.58-1.297-2.58-2.9
				C65.728,45.061,66.882,43.762,68.308,43.762z M60.154,66.322c-1.733,3.874-6.1,5.691-9.746,4.059
				c-3.648-1.633-5.198-6.099-3.463-9.973c1.734-3.877,6.099-5.692,9.747-4.061C60.338,57.981,61.89,62.446,60.154,66.322z
				 M62.254,61.374c-0.059-0.892-0.255-2.018-0.361-2.395c-0.324-1.146-0.836-1.961-1.564-2.492
				c-0.534-0.39-1.154-0.636-1.797-0.876c-0.23-0.085-0.471-0.157-0.725-0.231c-0.751-0.226-1.527-0.456-2.09-1.079
				c-0.398-0.44-0.578-0.981-0.524-1.567c0.098-1.039,0.759-1.766,1.407-2.258c0.305-0.229,1.74-1.012,3.24-1.553
				c1.505-0.544,3.076-0.847,3.511-0.847c0.877,0,1.568,0.291,2.151,0.758c1.528,1.229,0.729,4.293,1.831,4.827
				s1.852-0.2,3.438-0.089c1.588,0.11,2.468,1.191,2.468,1.191s-1.674-0.287-3.305,0.33c-2.021,0.764-3.203,1.239-4.492,0.292
				c-1.288-0.949-1.039-3.429-2.198-4.298c-0.131-0.099-3.403,1.338-3.437,1.504c-0.157,0.784,1.006,1.401,1.312,1.542
				c0.995,0.464,2.621,1.4,2.938,3.962c0.311,2.563-1.686,5.748-1.686,5.748S62.311,62.269,62.254,61.374z M79.185,66.322
				c-1.734,3.874-6.101,5.691-9.749,4.059s-5.196-6.099-3.462-9.973c1.736-3.877,6.1-5.692,9.748-4.061
				C79.371,57.981,80.918,62.446,79.185,66.322z"/>
		</g>
		<path fill="#231F20" d="M34.649,72.975H1.92c-1.058,0-1.92,0.861-1.92,1.918v32.73c0,1.059,0.862,1.918,1.92,1.918h32.729
			c1.061,0,1.92-0.859,1.92-1.918v-32.73C36.569,73.836,35.71,72.975,34.649,72.975z M22.781,77.416
			c1.586-0.249,3.095,0.976,3.372,2.736c0.276,1.762-0.783,3.392-2.369,3.641c-1.585,0.248-3.094-0.977-3.371-2.737
			C20.136,79.294,21.196,77.664,22.781,77.416z M7.656,102.314c-6.042-1.333-5.439-8.648-5.439-8.648s1.089,3.931,4.414,4.055
			c3.325,0.12,7.137-2.422,8.951-6.293c1.817-3.868-1.571-7.618-3.991-5.622c-2.42,1.994-1.269,6.955-1.269,6.955
			c-5.626-5.142-1.877-12.581,5.02-11.553c6.892,1.029,7.617,5.504,10.34,7.982c2.723,2.48,6.954,0.668,6.954,0.668
			c-5.2,7.012-10.16,0.482-10.16,0.482s-1.631,2.479-1.148,3.206c11.309-1.392,12.942,11.308,12.942,11.308
			C23.082,89.858,13.708,103.645,7.656,102.314z"/>
	</g>
</g>
<g id="Layer_4" display="none">
	<g display="inline">
		<g>
			<path fill="#F1F2F2" d="M0.998,28.341v61.455c0,3.681,2.994,6.725,6.725,6.725h67.05c3.682,0,6.725-2.994,6.725-6.725V28.341
				c0-3.682-2.994-6.726-6.725-6.726h-67.1C3.992,21.615,0.998,24.659,0.998,28.341z"/>
			<path fill="#E21E30" d="M0.998,28.341V41.74h80.5V28.341c0-3.682-2.994-6.726-6.725-6.726h-67.1
				C3.992,21.615,0.998,24.659,0.998,28.341z"/>
			<g>
				<circle fill="#2E515B" cx="16.41" cy="29.421" r="3.338"/>
				<path fill="#B2B6BA" d="M14.742,17.689v10.063c0,0.933,0.736,1.668,1.668,1.668l0,0c0.933,0,1.669-0.735,1.669-1.668V17.689
					c0-0.933-0.736-1.669-1.669-1.669l0,0C15.478,16.021,14.742,16.806,14.742,17.689z"/>
				<circle fill="#2E515B" cx="32.952" cy="29.421" r="3.338"/>
				<path fill="#B2B6BA" d="M31.283,17.689v10.063c0,0.933,0.737,1.668,1.669,1.668l0,0c0.933,0,1.669-0.735,1.669-1.668V17.689
					c0-0.933-0.736-1.669-1.669-1.669l0,0C32.02,16.021,31.283,16.806,31.283,17.689z"/>
				<circle fill="#2E515B" cx="49.494" cy="29.421" r="3.338"/>
				<path fill="#B2B6BA" d="M47.826,17.689v10.063c0,0.933,0.736,1.668,1.668,1.668l0,0c0.934,0,1.67-0.735,1.67-1.668V17.689
					c0-0.933-0.736-1.669-1.67-1.669l0,0C48.562,16.021,47.826,16.806,47.826,17.689z"/>
				<circle fill="#2E515B" cx="66.037" cy="29.421" r="3.338"/>
				<path fill="#B2B6BA" d="M64.367,17.689v10.063c0,0.933,0.736,1.668,1.67,1.668l0,0c0.932,0,1.668-0.735,1.668-1.668V17.689
					c0-0.933-0.736-1.669-1.668-1.669l0,0C65.103,16.021,64.367,16.806,64.367,17.689z"/>
			</g>
			<g>
				<path fill="#B2B6BA" d="M11.257,49.399v6.282c0,1.13,0.883,2.012,2.012,2.012h6.284c1.129,0,2.013-0.882,2.013-2.012v-6.282
					c0-1.13-0.884-2.014-2.013-2.014h-6.284C12.189,47.386,11.257,48.27,11.257,49.399z"/>
				<path fill="#B2B6BA" d="M27.798,49.399v6.282c0,1.13,0.884,2.012,2.013,2.012h6.283c1.129,0,2.012-0.882,2.012-2.012v-6.282
					c0-1.13-0.883-2.014-2.012-2.014h-6.283C28.731,47.386,27.798,48.27,27.798,49.399z"/>
				<path fill="#B2B6BA" d="M44.339,49.399v6.282c0,1.13,0.885,2.012,2.014,2.012h6.283c1.129,0,2.012-0.882,2.012-2.012v-6.282
					c0-1.13-0.883-2.014-2.012-2.014h-6.283C45.273,47.386,44.339,48.27,44.339,49.399z"/>
				<path fill="#B2B6BA" d="M60.882,49.399v6.282c0,1.13,0.883,2.012,2.012,2.012h6.283c1.129,0,2.012-0.882,2.012-2.012v-6.282
					c0-1.13-0.883-2.014-2.012-2.014h-6.283C61.814,47.386,60.882,48.27,60.882,49.399z"/>
			</g>
			<g>
				<path fill="#B2B6BA" d="M11.257,63.24v6.283c0,1.129,0.883,2.013,2.012,2.013h6.284c1.129,0,2.013-0.884,2.013-2.013V63.24
					c0-1.13-0.884-2.013-2.013-2.013h-6.284C12.189,61.228,11.257,62.11,11.257,63.24z"/>
				<path fill="#B2B6BA" d="M27.798,63.24v6.283c0,1.129,0.884,2.013,2.013,2.013h6.283c1.129,0,2.012-0.884,2.012-2.013V63.24
					c0-1.13-0.883-2.013-2.012-2.013h-6.283C28.731,61.228,27.798,62.11,27.798,63.24z"/>
				<path fill="#E21E30" d="M44.339,63.24v6.283c0,1.129,0.885,2.013,2.014,2.013h6.283c1.129,0,2.012-0.884,2.012-2.013V63.24
					c0-1.13-0.883-2.013-2.012-2.013h-6.283C45.273,61.228,44.339,62.11,44.339,63.24z"/>
				<path fill="#B2B6BA" d="M60.882,63.24v6.283c0,1.129,0.883,2.013,2.012,2.013h6.283c1.129,0,2.012-0.884,2.012-2.013V63.24
					c0-1.13-0.883-2.013-2.012-2.013h-6.283C61.814,61.228,60.882,62.11,60.882,63.24z"/>
			</g>
			<g>
				<path fill="#B2B6BA" d="M11.257,77.082v6.283c0,1.13,0.883,2.013,2.012,2.013h6.284c1.129,0,2.013-0.883,2.013-2.013v-6.283
					c0-1.128-0.884-2.013-2.013-2.013h-6.284C12.189,75.069,11.257,76.002,11.257,77.082z"/>
				<path fill="#B2B6BA" d="M27.798,77.082v6.283c0,1.13,0.884,2.013,2.013,2.013h6.283c1.129,0,2.012-0.883,2.012-2.013v-6.283
					c0-1.128-0.883-2.013-2.012-2.013h-6.283C28.731,75.069,27.798,76.002,27.798,77.082z"/>
				<path fill="#B2B6BA" d="M44.339,77.082v6.283c0,1.13,0.885,2.013,2.014,2.013h6.283c1.129,0,2.012-0.883,2.012-2.013v-6.283
					c0-1.128-0.883-2.013-2.012-2.013h-6.283C45.273,75.069,44.339,76.002,44.339,77.082z"/>
				<path fill="#B2B6BA" d="M60.882,77.082v6.283c0,1.13,0.883,2.013,2.012,2.013h6.283c1.129,0,2.012-0.883,2.012-2.013v-6.283
					c0-1.128-0.883-2.013-2.012-2.013h-6.283C61.814,75.069,60.882,76.002,60.882,77.082z"/>
			</g>
			<g>
				<g>
					<path fill="#FFFFFF" d="M23.871,36.979L23.871,36.979c0,0.785,0.639,1.473,1.473,1.473h21.304c0.783,0,1.473-0.638,1.473-1.473
						l0,0c0-0.784-0.639-1.473-1.473-1.473H25.344C24.51,35.507,23.871,36.146,23.871,36.979z"/>
					<path fill="#FFFFFF" d="M51.31,36.979L51.31,36.979c0,0.785,0.639,1.473,1.473,1.473h4.369c0.785,0,1.473-0.638,1.473-1.473
						l0,0c0-0.784-0.639-1.473-1.473-1.473h-4.369C51.949,35.507,51.31,36.146,51.31,36.979z"/>
				</g>
			</g>
		</g>
	</g>
</g>
<g id="Layer_5">
	<g>
		<path d="M6.445,30.484c0-3.517,0.927-6.869,2.782-10.056c1.854-3.185,4.326-5.991,7.417-8.416
			c3.089-2.425,6.632-4.351,10.626-5.776c3.994-1.427,8.177-2.14,12.553-2.14c4.563,0,9.007,0.548,13.335,1.64
			c4.327,1.094,8.202,2.781,11.626,5.063c3.423,2.282,6.155,5.231,8.201,8.843c2.044,3.615,3.066,7.941,3.066,12.98
			c0,3.138-0.522,5.944-1.568,8.416c-1.047,2.474-2.402,4.707-4.065,6.704c-1.665,1.998-3.52,3.829-5.563,5.492
			c-2.045,1.665-4.018,3.188-5.919,4.564c-1.903,1.38-3.637,2.64-5.205,3.78c-1.569,1.141-2.736,2.282-3.495,3.423
			c-0.856,1.237-1.498,2.567-1.927,3.995c-0.428,1.425-0.975,2.732-1.64,3.923c-0.667,1.189-1.594,2.162-2.781,2.924
			c-1.189,0.761-2.973,1.141-5.349,1.141c-3.044,0-5.327-1.022-6.846-3.066c-1.522-2.044-2.282-4.209-2.282-6.49
			c0-2.854,0.617-5.35,1.854-7.489c1.235-2.14,2.781-4.111,4.636-5.919c1.854-1.805,3.851-3.495,5.991-5.063
			c2.14-1.569,4.137-3.185,5.99-4.85c1.855-1.662,3.398-3.398,4.636-5.206c1.235-1.806,1.854-3.898,1.854-6.276
			c0-3.898-1.213-6.918-3.638-9.058s-5.776-3.209-10.055-3.209c-3.044,0-5.445,0.477-7.203,1.426
			c-1.761,0.952-3.187,2.117-4.279,3.495c-1.094,1.379-1.975,2.877-2.639,4.493c-0.667,1.618-1.426,3.115-2.282,4.493
			c-0.855,1.38-1.925,2.545-3.209,3.495c-1.284,0.951-3.067,1.426-5.349,1.426c-2.474,0-4.636-0.735-6.49-2.21
			C7.372,35.501,6.445,33.337,6.445,30.484z M27.413,97.951c0-3.231,1.141-5.99,3.423-8.271c2.282-2.284,5.04-3.425,8.273-3.425
			c3.232,0,5.991,1.141,8.274,3.425c2.281,2.281,3.423,5.04,3.423,8.271c0,3.233-1.142,5.99-3.423,8.274
			c-2.283,2.281-5.042,3.422-8.274,3.422c-3.233,0-5.991-1.141-8.273-3.422C28.554,103.941,27.413,101.185,27.413,97.951z"/>
	</g>
</g>
</svg>
